{"glyphs":{"0":{"ha":814,"x_min":62,"x_max":755,"o":"m 62 505 q 154 925 62 783 q 421 1068 246 1068 q 755 530 755 1068 q 661 123 755 264 q 397 -18 567 -18 q 150 116 237 -18 q 62 505 62 250 m 197 511 q 410 92 197 92 q 618 517 618 92 q 414 958 618 958 q 197 511 197 958 z "},"1":{"ha":814,"x_min":122,"x_max":730,"o":"m 730 0 l 128 0 l 128 115 l 363 115 l 363 912 l 122 842 l 122 964 l 496 1073 l 496 115 l 730 115 l 730 0 z "},"2":{"ha":814,"x_min":72,"x_max":720,"o":"m 711 0 l 72 0 l 72 115 l 377 420 q 546 620 503 546 q 589 772 589 693 q 538 909 589 861 q 393 957 488 957 q 125 838 253 957 l 125 972 q 414 1068 250 1068 q 638 991 556 1068 q 720 785 720 915 q 668 594 720 688 q 469 355 615 500 l 229 121 l 229 118 l 711 118 l 711 0 z "},"3":{"ha":814,"x_min":97,"x_max":711,"o":"m 97 176 q 340 92 205 92 q 512 145 449 92 q 576 288 576 199 q 290 488 576 488 l 203 488 l 203 597 l 286 597 q 539 785 539 597 q 346 958 539 958 q 138 883 235 958 l 138 1008 q 378 1068 241 1068 q 594 998 513 1068 q 675 816 675 928 q 465 551 675 610 l 465 548 q 645 468 579 536 q 711 298 711 399 q 609 69 711 156 q 338 -18 507 -18 q 97 38 189 -18 l 97 176 z "},"4":{"ha":814,"x_min":12,"x_max":765,"o":"m 765 273 l 631 273 l 631 0 l 502 0 l 502 273 l 12 273 l 12 359 l 477 1050 l 631 1050 l 631 378 l 765 378 l 765 273 m 502 378 l 502 818 q 505 926 502 865 l 502 926 q 462 845 492 900 l 149 378 l 502 378 z "},"5":{"ha":814,"x_min":120,"x_max":717,"o":"m 120 161 q 340 92 226 92 q 515 153 449 92 q 582 314 582 214 q 514 471 582 415 q 319 526 447 526 q 153 517 257 526 l 153 1050 l 669 1050 l 669 933 l 276 933 l 276 636 q 365 640 335 640 q 624 555 531 640 q 717 323 717 471 q 617 77 717 171 q 342 -18 517 -18 q 120 26 195 -18 l 120 161 z "},"6":{"ha":814,"x_min":80,"x_max":756,"o":"m 690 916 q 519 958 608 958 q 300 839 382 958 q 216 515 217 720 l 219 515 q 457 659 294 659 q 675 570 593 659 q 756 334 756 481 q 662 81 756 180 q 422 -18 568 -18 q 171 107 262 -18 q 80 463 80 233 q 200 904 80 741 q 515 1068 319 1068 q 690 1038 627 1068 l 690 916 m 224 344 q 279 166 224 240 q 426 92 334 92 q 567 156 513 92 q 621 320 621 220 q 570 489 621 429 q 425 549 519 549 q 279 488 335 549 q 224 344 224 427 z "},"7":{"ha":814,"x_min":64,"x_max":747,"o":"m 747 1004 l 336 0 l 198 0 l 589 933 l 64 933 l 64 1050 l 747 1050 l 747 1004 z "},"8":{"ha":814,"x_min":72,"x_max":745,"o":"m 297 553 q 109 806 109 640 q 197 995 109 922 q 422 1068 286 1068 q 629 1000 548 1068 q 711 823 711 931 q 515 553 711 648 l 515 551 q 745 269 745 468 q 650 60 745 138 q 386 -18 555 -18 q 159 59 247 -18 q 72 258 72 136 q 297 550 72 458 l 297 553 m 576 807 q 532 918 576 878 q 413 959 488 959 q 293 917 342 959 q 243 808 243 874 q 408 608 243 677 q 576 807 576 678 m 400 490 q 205 264 205 411 q 262 140 205 189 q 411 91 319 91 q 555 139 500 91 q 611 260 611 188 q 400 490 611 413 z "},"9":{"ha":814,"x_min":68,"x_max":742,"o":"m 125 142 q 313 92 212 92 q 531 203 454 92 q 609 519 609 315 q 606 519 608 518 q 374 388 537 388 q 155 479 241 388 q 68 715 68 570 q 163 969 68 869 q 409 1068 258 1068 q 654 945 566 1068 q 742 587 742 822 q 628 139 742 296 q 313 -18 514 -18 q 125 18 202 -18 l 125 142 m 202 732 q 256 564 202 626 q 406 502 311 502 q 545 558 489 502 q 602 696 602 615 q 546 883 602 809 q 398 958 490 958 q 258 893 313 958 q 202 732 202 829 z "},"☰":{"ha":1389,"x_min":87,"x_max":1302,"o":"m 87 884 l 87 1112 l 1302 1112 l 1302 884 l 87 884 m 87 391 l 87 613 l 1302 613 l 1302 391 l 87 391 m 87 -114 l 87 114 l 1302 114 l 1302 -114 l 87 -114 z "},"☱":{"ha":1389,"x_min":87,"x_max":1302,"o":"m 87 391 l 87 613 l 1302 613 l 1302 391 l 87 391 m 87 -114 l 87 114 l 1302 114 l 1302 -114 l 87 -114 m 798 884 l 798 1112 l 1302 1112 l 1302 884 l 798 884 m 87 884 l 87 1112 l 591 1112 l 591 884 l 87 884 z "},"☲":{"ha":1389,"x_min":87,"x_max":1302,"o":"m 87 -114 l 87 114 l 1302 114 l 1302 -114 l 87 -114 m 798 391 l 798 613 l 1302 613 l 1302 391 l 798 391 m 87 391 l 87 613 l 591 613 l 591 391 l 87 391 m 87 890 l 87 1112 l 1302 1112 l 1302 890 l 87 890 z "},"☳":{"ha":1389,"x_min":87,"x_max":1302,"o":"m 87 -114 l 87 114 l 1302 114 l 1302 -114 l 87 -114 m 798 391 l 798 613 l 1302 613 l 1302 391 l 798 391 m 87 391 l 87 613 l 591 613 l 591 391 l 87 391 m 798 890 l 798 1112 l 1302 1112 l 1302 890 l 798 890 m 87 890 l 87 1112 l 591 1112 l 591 890 l 87 890 z "},"☴":{"ha":1389,"x_min":87,"x_max":1302,"o":"m 798 -114 l 798 109 l 1302 109 l 1302 -114 l 798 -114 m 87 -114 l 87 109 l 591 109 l 591 -114 l 87 -114 m 87 391 l 87 613 l 1302 613 l 1302 391 l 87 391 m 87 890 l 87 1112 l 1302 1112 l 1302 890 l 87 890 z "},"☵":{"ha":1389,"x_min":87,"x_max":1302,"o":"m 798 -114 l 798 109 l 1302 109 l 1302 -114 l 798 -114 m 87 -114 l 87 109 l 591 109 l 591 -114 l 87 -114 m 798 890 l 798 1112 l 1302 1112 l 1302 890 l 798 890 m 87 890 l 87 1112 l 591 1112 l 591 890 l 87 890 m 87 391 l 87 613 l 1302 613 l 1302 391 l 87 391 z "},"☶":{"ha":1389,"x_min":87,"x_max":1302,"o":"m 798 391 l 798 613 l 1302 613 l 1302 391 l 798 391 m 87 391 l 87 613 l 591 613 l 591 391 l 87 391 m 798 -114 l 798 109 l 1302 109 l 1302 -114 l 798 -114 m 87 -114 l 87 109 l 591 109 l 591 -114 l 87 -114 m 87 890 l 87 1112 l 1302 1112 l 1302 890 l 87 890 z "},"☷":{"ha":1389,"x_min":87,"x_max":1302,"o":"m 798 884 l 798 1112 l 1302 1112 l 1302 884 l 798 884 m 798 391 l 798 613 l 1302 613 l 1302 391 l 798 391 m 798 -114 l 798 114 l 1302 114 l 1302 -114 l 798 -114 m 87 884 l 87 1112 l 591 1112 l 591 884 l 87 884 m 87 391 l 87 613 l 591 613 l 591 391 l 87 391 m 87 -114 l 87 114 l 591 114 l 591 -114 l 87 -114 z "}," ":{"ha":411,"x_min":0,"x_max":0,"o":""},"¡":{"ha":434,"x_min":130,"x_max":304,"o":"m 130 682 q 155 741 130 716 q 217 766 181 766 q 278 741 252 766 q 304 682 304 715 q 278 621 304 646 q 220 596 253 596 q 154 621 179 596 q 130 682 130 646 m 288 -297 l 149 -297 l 164 454 l 273 454 l 288 -297 z "},"!":{"ha":434,"x_min":130,"x_max":304,"o":"m 285 1050 l 269 299 l 161 299 l 146 1050 l 285 1050 m 130 71 q 155 133 130 108 q 217 157 181 157 q 278 132 252 157 q 304 71 304 106 q 279 12 304 37 q 220 -14 254 -14 q 155 12 180 -14 q 130 71 130 37 z "},"\"":{"ha":605,"x_min":144,"x_max":462,"o":"m 279 1052 l 256 725 l 165 725 l 144 1052 l 279 1052 m 462 1052 l 440 725 l 349 725 l 326 1052 l 462 1052 z "},"#":{"ha":886,"x_min":24,"x_max":852,"o":"m 852 760 l 836 675 l 650 675 l 606 460 l 802 460 l 785 376 l 587 376 l 526 90 l 428 90 l 489 376 l 309 376 l 248 90 l 149 90 l 210 376 l 24 376 l 41 460 l 229 460 l 273 675 l 75 675 l 92 760 l 290 760 l 350 1050 l 448 1050 l 388 760 l 568 760 l 629 1050 l 727 1050 l 667 760 l 852 760 m 551 675 l 371 675 l 327 460 l 507 460 l 551 675 z "},"$":{"ha":814,"x_min":115,"x_max":724,"o":"m 456 -153 l 376 -153 l 376 0 q 120 64 222 0 l 120 200 q 376 111 222 117 l 376 473 q 164 616 213 550 q 115 774 115 683 q 188 958 115 880 q 376 1052 261 1036 l 376 1184 l 456 1184 l 456 1055 q 658 1013 604 1049 l 658 880 q 456 944 580 939 l 456 570 q 667 430 609 500 q 724 274 724 361 q 652 95 724 165 q 456 6 579 24 l 456 -153 m 376 940 q 246 789 246 911 q 274 691 246 730 q 376 611 302 652 l 376 940 m 456 116 q 593 263 593 146 q 456 435 593 361 l 456 116 z "},"%":{"ha":1236,"x_min":59,"x_max":1179,"o":"m 59 785 q 128 990 59 914 q 313 1066 197 1066 q 488 996 425 1066 q 551 802 551 926 q 481 600 551 677 q 298 523 412 523 q 124 595 189 523 q 59 785 59 667 m 163 792 q 201 657 163 705 q 305 610 239 610 q 410 659 373 610 q 447 798 447 708 q 411 933 447 885 q 309 981 374 981 q 202 931 241 981 q 163 792 163 881 m 1008 1050 l 334 -7 l 220 -7 l 895 1050 l 1008 1050 m 688 246 q 757 452 688 375 q 942 529 826 529 q 1116 459 1053 529 q 1179 261 1179 389 q 1109 61 1179 138 q 927 -16 1040 -16 q 753 57 818 -16 q 688 246 688 130 m 792 252 q 830 119 792 167 q 934 71 868 71 q 1039 121 1002 71 q 1076 259 1076 170 q 1039 394 1076 347 q 937 441 1002 441 q 830 391 868 441 q 792 252 792 341 z "},"&":{"ha":1208,"x_min":84,"x_max":1179,"o":"m 822 142 q 444 -17 667 -17 q 181 64 279 -17 q 84 288 84 145 q 328 607 84 502 q 206 827 206 700 q 283 1003 206 937 q 484 1068 359 1068 q 674 1006 602 1068 q 747 844 747 944 q 548 600 747 682 q 835 335 699 542 q 954 720 954 498 q 940 821 954 773 l 1066 821 q 1076 724 1076 781 q 1030 475 1076 605 q 901 235 983 345 q 995 130 957 158 q 1083 102 1034 102 q 1179 123 1124 102 l 1179 5 q 1061 -17 1122 -17 q 946 13 998 -17 q 822 142 895 43 m 448 656 q 623 833 623 716 q 583 929 623 894 q 484 965 543 965 q 372 927 414 965 q 331 827 331 888 q 448 656 331 720 m 760 237 q 604 436 675 369 q 424 544 533 503 q 266 440 313 499 q 218 292 218 380 q 281 148 218 201 q 446 96 345 96 q 760 237 631 96 z "},"'":{"ha":356,"x_min":111,"x_max":245,"o":"m 245 1052 l 223 725 l 132 725 l 111 1052 l 245 1052 z "},"(":{"ha":464,"x_min":104,"x_max":450,"o":"m 332 -239 q 104 401 104 22 q 332 1050 104 780 l 450 1050 q 220 402 220 769 q 448 -239 220 36 l 332 -239 z "},")":{"ha":464,"x_min":16,"x_max":363,"o":"m 17 -239 q 245 402 245 35 q 16 1050 245 770 l 134 1050 q 363 401 363 782 q 134 -239 363 20 l 17 -239 z "},"*":{"ha":632,"x_min":55,"x_max":578,"o":"m 578 804 l 377 765 l 517 589 l 431 530 l 318 724 l 204 530 l 117 589 l 257 765 l 55 804 l 90 902 l 281 829 l 263 1050 l 372 1050 l 353 829 l 545 902 l 578 804 z "},"+":{"ha":1030,"x_min":171,"x_max":862,"o":"m 862 385 l 567 385 l 567 91 l 465 91 l 465 385 l 171 385 l 171 488 l 465 488 l 465 782 l 567 782 l 567 488 l 862 488 l 862 385 z "},",":{"ha":334,"x_min":28,"x_max":241,"o":"m 241 169 l 125 -193 l 28 -193 l 113 169 l 241 169 z "},"-":{"ha":601,"x_min":106,"x_max":505,"o":"m 505 365 l 106 365 l 106 467 l 505 467 l 505 365 z "},".":{"ha":334,"x_min":81,"x_max":256,"o":"m 81 70 q 106 132 81 106 q 168 157 131 157 q 231 131 206 157 q 256 70 256 106 q 231 9 256 35 q 168 -16 206 -16 q 105 9 130 -16 q 81 70 81 35 z "},"/":{"ha":593,"x_min":-22,"x_max":606,"o":"m 606 1050 l 102 -174 l -22 -174 l 481 1050 l 606 1050 z "},":":{"ha":334,"x_min":81,"x_max":256,"o":"m 81 680 q 106 741 81 717 q 168 766 132 766 q 231 741 205 766 q 256 680 256 716 q 231 619 256 644 q 168 594 206 594 q 106 619 131 594 q 81 680 81 644 m 81 70 q 106 132 81 106 q 168 157 131 157 q 231 131 206 157 q 256 70 256 106 q 231 9 256 35 q 168 -16 206 -16 q 105 9 130 -16 q 81 70 81 35 z "},";":{"ha":334,"x_min":28,"x_max":258,"o":"m 82 680 q 108 741 82 716 q 170 766 134 766 q 232 741 206 766 q 258 680 258 715 q 233 619 258 644 q 170 594 208 594 q 107 620 132 594 q 82 680 82 646 m 241 169 l 125 -193 l 28 -193 l 113 169 l 241 169 z "},"<":{"ha":1030,"x_min":198,"x_max":834,"o":"m 834 87 l 198 404 l 198 455 l 834 806 l 834 688 l 361 434 l 361 431 l 834 204 l 834 87 z "},"=":{"ha":1030,"x_min":171,"x_max":862,"o":"m 862 542 l 171 542 l 171 644 l 862 644 l 862 542 m 862 229 l 171 229 l 171 331 l 862 331 l 862 229 z "},">":{"ha":1030,"x_min":198,"x_max":834,"o":"m 834 405 l 198 89 l 198 205 l 671 430 l 671 435 l 198 689 l 198 806 l 834 456 l 834 405 z "},"?":{"ha":671,"x_min":90,"x_max":602,"o":"m 239 293 q 222 400 222 343 q 243 491 222 445 q 347 617 263 536 q 451 739 432 698 q 471 816 471 779 q 425 919 471 881 q 307 956 378 956 q 90 859 183 956 l 90 998 q 326 1068 203 1068 q 526 1005 450 1068 q 602 833 602 942 q 579 727 602 781 q 463 583 557 673 q 367 478 391 516 q 342 396 342 440 q 366 293 342 347 l 239 293 m 222 71 q 248 132 222 106 q 310 157 274 157 q 372 132 346 157 q 397 71 397 106 q 372 12 397 37 q 313 -14 347 -14 q 248 12 273 -14 q 222 71 222 38 z "},"@":{"ha":1432,"x_min":123,"x_max":1312,"o":"m 976 779 q 942 368 942 383 q 1025 222 942 222 q 1153 307 1103 222 q 1204 527 1204 391 q 1078 850 1204 725 q 731 976 953 976 q 373 825 515 976 q 231 446 231 673 q 364 88 231 224 q 726 -47 497 -47 q 1034 13 904 -47 l 1034 -83 q 717 -138 907 -138 q 287 23 450 -138 q 123 442 123 183 q 295 887 123 710 q 735 1065 467 1065 q 1149 917 986 1065 q 1312 533 1312 770 q 1225 245 1312 357 q 1011 134 1137 134 q 849 304 850 134 l 846 304 q 638 134 791 134 q 476 207 538 134 q 414 406 414 280 q 500 681 414 572 q 720 790 585 790 q 814 763 773 790 q 866 696 855 736 l 869 696 q 876 779 869 699 l 976 779 m 525 406 q 560 274 525 323 q 659 224 595 224 q 799 313 748 224 q 850 547 850 401 q 722 701 850 701 q 579 615 634 701 q 525 406 525 530 z "},"A":{"ha":977,"x_min":16,"x_max":961,"o":"m 961 0 l 811 0 l 704 288 l 267 288 l 165 0 l 16 0 l 416 1050 l 561 1050 l 961 0 m 662 406 l 503 843 q 487 916 496 864 l 484 916 q 467 843 476 869 l 309 406 l 662 406 z "},"B":{"ha":871,"x_min":136,"x_max":799,"o":"m 136 0 l 136 1050 l 444 1050 q 665 984 583 1050 q 748 809 748 918 q 699 656 748 722 q 564 562 650 589 l 564 559 q 735 478 671 547 q 799 303 799 409 q 702 84 799 168 q 452 0 604 0 l 136 0 m 271 932 l 271 603 l 395 603 q 549 651 493 603 q 605 783 605 699 q 407 932 605 932 l 271 932 m 271 485 l 271 119 l 434 119 q 598 168 541 119 q 656 304 656 217 q 412 485 656 485 l 271 485 z "},"C":{"ha":929,"x_min":68,"x_max":854,"o":"m 854 43 q 564 -18 739 -18 q 203 126 338 -18 q 68 505 68 269 q 220 913 68 759 q 606 1068 372 1068 q 854 1025 756 1068 l 854 884 q 607 946 742 946 q 321 829 431 946 q 210 513 210 712 q 313 214 210 325 q 583 103 416 103 q 854 174 739 103 l 854 43 z "},"D":{"ha":1058,"x_min":136,"x_max":991,"o":"m 136 0 l 136 1050 l 435 1050 q 832 911 674 1050 q 991 538 991 772 q 832 147 991 294 q 425 0 674 0 l 136 0 m 271 930 l 271 120 l 424 120 q 736 229 624 120 q 848 535 848 338 q 733 831 848 732 q 430 930 618 930 l 271 930 z "},"E":{"ha":764,"x_min":136,"x_max":701,"o":"m 701 0 l 136 0 l 136 1050 l 677 1050 l 677 930 l 271 930 l 271 593 l 647 593 l 647 473 l 271 473 l 271 120 l 701 120 l 701 0 z "},"F":{"ha":738,"x_min":136,"x_max":677,"o":"m 677 930 l 271 930 l 271 578 l 647 578 l 647 459 l 271 459 l 271 0 l 136 0 l 136 1050 l 677 1050 l 677 930 z "},"G":{"ha":1033,"x_min":68,"x_max":930,"o":"m 930 72 q 574 -18 772 -18 q 207 126 347 -18 q 68 511 68 271 q 222 911 68 755 q 616 1068 376 1068 q 905 1014 787 1068 l 905 867 q 604 947 779 947 q 321 829 433 947 q 210 520 210 712 q 313 213 210 323 q 589 103 415 103 q 793 149 709 103 l 793 433 l 566 433 l 566 553 l 930 553 l 930 72 z "},"H":{"ha":1074,"x_min":136,"x_max":939,"o":"m 939 0 l 803 0 l 803 473 l 271 473 l 271 0 l 136 0 l 136 1050 l 271 1050 l 271 594 l 803 594 l 803 1050 l 939 1050 l 939 0 z "},"I":{"ha":408,"x_min":35,"x_max":372,"o":"m 372 936 l 271 936 l 271 115 l 372 115 l 372 0 l 35 0 l 35 115 l 136 115 l 136 936 l 35 936 l 35 1050 l 372 1050 l 372 936 z "},"J":{"ha":550,"x_min":16,"x_max":423,"o":"m 423 381 q 342 86 423 191 q 123 -18 262 -18 q 16 1 58 -18 l 16 134 q 122 103 58 103 q 288 381 288 103 l 288 1050 l 423 1050 l 423 381 z "},"K":{"ha":882,"x_min":136,"x_max":883,"o":"m 883 0 l 697 0 l 302 477 q 275 517 282 503 l 271 517 l 271 0 l 136 0 l 136 1050 l 271 1050 l 271 556 l 275 556 q 302 595 286 574 l 684 1050 l 851 1050 l 410 547 l 883 0 z "},"L":{"ha":713,"x_min":136,"x_max":690,"o":"m 690 0 l 136 0 l 136 1050 l 271 1050 l 271 120 l 690 120 l 690 0 z "},"M":{"ha":1357,"x_min":136,"x_max":1221,"o":"m 1086 0 l 1086 696 q 1096 903 1086 782 l 1093 903 q 1061 797 1075 827 l 715 0 l 640 0 l 294 791 q 262 903 281 818 l 258 903 q 265 690 265 829 l 265 0 l 136 0 l 136 1050 l 319 1050 l 629 330 q 676 201 665 248 l 681 201 q 730 333 716 298 l 1046 1050 l 1221 1050 l 1221 0 l 1086 0 z "},"N":{"ha":1129,"x_min":136,"x_max":994,"o":"m 994 0 l 833 0 l 304 817 q 269 886 282 852 l 264 886 q 270 739 270 850 l 270 0 l 136 0 l 136 1050 l 306 1050 l 820 248 q 863 175 857 191 l 866 175 q 859 328 859 220 l 859 1050 l 994 1050 l 994 0 z "},"O":{"ha":1132,"x_min":68,"x_max":1065,"o":"m 68 513 q 205 918 68 767 q 578 1068 343 1068 q 931 921 798 1068 q 1065 538 1065 774 q 928 132 1065 282 q 562 -18 791 -18 q 203 130 338 -18 q 68 513 68 277 m 210 524 q 308 218 210 333 q 562 103 405 103 q 826 213 730 103 q 922 522 922 323 q 828 836 922 725 q 570 946 734 946 q 310 829 410 946 q 210 524 210 713 z "},"P":{"ha":850,"x_min":136,"x_max":792,"o":"m 271 393 l 271 0 l 136 0 l 136 1050 l 434 1050 q 698 968 604 1050 q 792 734 792 886 q 682 483 792 579 q 408 393 572 387 l 271 393 m 271 931 l 271 512 l 397 512 q 585 568 521 512 q 650 728 650 624 q 410 931 650 931 l 271 931 z "},"Q":{"ha":1132,"x_min":68,"x_max":1095,"o":"m 1095 -273 q 977 -288 1046 -288 q 792 -241 879 -288 q 551 -18 705 -193 q 204 132 340 -19 q 68 513 68 283 q 205 918 68 768 q 582 1068 343 1068 q 931 921 797 1068 q 1065 538 1065 774 q 970 186 1065 328 q 703 2 876 43 q 852 -128 790 -93 q 989 -163 913 -163 q 1095 -144 1052 -163 l 1095 -273 m 210 524 q 308 218 210 333 q 562 103 405 103 q 826 213 730 103 q 922 522 922 323 q 828 836 922 725 q 570 946 734 946 q 310 829 410 946 q 210 524 210 713 z "},"R":{"ha":907,"x_min":136,"x_max":903,"o":"m 903 0 l 743 0 l 568 292 q 473 411 516 379 q 369 442 429 442 l 271 442 l 271 0 l 136 0 l 136 1050 l 456 1050 q 696 977 609 1050 q 783 770 783 903 q 549 486 783 551 l 549 483 q 624 431 593 465 q 706 315 656 397 l 903 0 m 271 932 l 271 561 l 431 561 q 582 615 524 561 q 640 758 640 669 q 587 886 640 840 q 433 932 534 932 l 271 932 z "},"S":{"ha":802,"x_min":87,"x_max":732,"o":"m 87 197 q 216 128 135 155 q 369 101 296 101 q 590 258 590 101 q 566 338 590 302 q 501 400 543 373 q 346 484 460 427 q 138 630 188 562 q 87 784 87 697 q 193 991 87 915 q 458 1068 298 1068 q 688 1030 614 1068 l 688 882 q 448 948 593 948 q 291 908 351 948 q 230 795 230 867 q 272 692 230 732 q 454 583 314 652 q 671 435 609 509 q 732 269 732 361 q 632 56 732 130 q 353 -18 532 -18 q 208 0 291 -18 q 87 43 125 17 l 87 197 z "},"T":{"ha":796,"x_min":29,"x_max":770,"o":"m 770 930 l 467 930 l 467 0 l 331 0 l 331 930 l 29 930 l 29 1050 l 770 1050 l 770 930 z "},"U":{"ha":1037,"x_min":123,"x_max":914,"o":"m 914 428 q 510 -18 914 -18 q 123 412 123 -18 l 123 1050 l 258 1050 l 258 418 q 523 103 258 103 q 779 408 779 103 l 779 1050 l 914 1050 l 914 428 z "},"V":{"ha":939,"x_min":12,"x_max":927,"o":"m 927 1050 l 541 0 l 391 0 l 12 1050 l 163 1050 l 446 229 q 467 135 460 189 l 470 135 q 494 231 475 182 l 782 1050 l 927 1050 z "},"W":{"ha":1413,"x_min":18,"x_max":1396,"o":"m 1396 1050 l 1101 0 l 943 0 l 732 757 q 715 865 718 808 l 712 865 q 693 758 708 809 l 479 0 l 323 0 l 18 1050 l 168 1050 l 382 257 q 399 149 397 203 l 404 149 q 426 257 407 190 l 653 1050 l 787 1050 l 1004 251 q 1021 151 1015 212 l 1024 151 q 1044 254 1027 195 l 1250 1050 l 1396 1050 z "},"X":{"ha":896,"x_min":18,"x_max":876,"o":"m 876 0 l 711 0 l 476 395 q 452 450 468 409 l 449 450 q 425 395 448 444 l 183 0 l 18 0 l 367 528 l 45 1050 l 212 1050 l 419 687 q 456 612 437 655 l 458 612 q 498 690 475 649 l 715 1050 l 871 1050 l 543 530 l 876 0 z "},"Y":{"ha":838,"x_min":12,"x_max":831,"o":"m 831 1050 l 485 387 l 485 0 l 349 0 l 349 383 l 12 1050 l 167 1050 l 394 585 q 419 518 395 585 l 421 518 q 449 585 429 547 l 686 1050 l 831 1050 z "},"Z":{"ha":861,"x_min":25,"x_max":829,"o":"m 829 1010 l 224 120 l 816 120 l 816 0 l 25 0 l 25 46 l 627 930 l 73 930 l 73 1050 l 829 1050 l 829 1010 z "},"[":{"ha":464,"x_min":148,"x_max":425,"o":"m 425 -239 l 148 -239 l 148 1050 l 425 1050 l 425 956 l 264 956 l 264 -145 l 425 -145 l 425 -239 z "},"\\":{"ha":578,"x_min":-17,"x_max":598,"o":"m 598 -176 l 477 -176 l -17 1050 l 107 1050 l 598 -176 z "},"]":{"ha":464,"x_min":40,"x_max":318,"o":"m 318 -239 l 40 -239 l 40 -145 l 201 -145 l 201 956 l 40 956 l 40 1050 l 318 1050 l 318 -239 z "},"^":{"ha":1030,"x_min":166,"x_max":866,"o":"m 866 456 l 749 456 l 509 906 l 505 906 l 281 456 l 166 456 l 476 1068 l 532 1068 l 866 456 z "},"_":{"ha":623,"x_min":0,"x_max":623,"o":"m 623 -218 l 0 -218 l 0 -130 l 623 -130 l 623 -218 z "},"`":{"ha":410,"x_min":58,"x_max":355,"o":"m 355 889 l 254 889 l 58 1129 l 191 1129 l 355 889 z "},"a":{"ha":768,"x_min":63,"x_max":666,"o":"m 136 698 q 395 768 248 768 q 666 483 666 768 l 666 0 l 534 0 l 534 116 l 531 116 q 301 -18 453 -18 q 127 41 192 -18 q 63 201 63 100 q 312 446 63 411 l 534 477 q 382 661 534 661 q 136 570 248 661 l 136 698 m 359 353 q 232 307 267 340 q 197 212 197 273 q 235 124 197 158 q 335 90 273 90 q 478 151 422 90 q 534 304 534 212 l 534 376 l 359 353 z "},"b":{"ha":887,"x_min":119,"x_max":819,"o":"m 252 106 l 252 0 l 119 0 l 119 1110 l 252 1110 l 252 621 l 254 621 q 512 768 342 768 q 736 668 653 768 q 819 397 819 569 q 726 95 819 207 q 477 -18 633 -18 q 254 106 331 -18 l 252 106 m 251 309 q 310 155 251 218 q 458 92 369 92 q 623 174 564 92 q 683 399 683 255 q 627 588 683 517 q 475 658 572 658 q 314 588 378 658 q 251 410 251 518 l 251 309 z "},"c":{"ha":696,"x_min":68,"x_max":637,"o":"m 637 34 q 429 -18 551 -18 q 168 87 267 -18 q 68 357 68 191 q 175 655 68 542 q 461 768 282 768 q 637 731 564 768 l 637 600 q 461 658 558 658 q 276 579 347 658 q 204 368 204 500 q 272 165 204 239 q 454 92 339 92 q 637 156 551 92 l 637 34 z "},"d":{"ha":888,"x_min":68,"x_max":770,"o":"m 770 0 l 637 0 l 637 125 l 634 125 q 379 -18 552 -18 q 153 84 237 -18 q 68 357 68 185 q 163 655 68 543 q 412 768 258 768 q 634 648 565 768 l 637 648 l 637 1110 l 770 1110 l 770 0 m 637 446 q 578 597 637 536 q 432 658 519 658 q 265 579 326 658 q 204 363 204 500 q 263 165 204 238 q 419 92 321 92 q 576 164 515 92 q 637 342 637 235 l 637 446 z "},"e":{"ha":788,"x_min":68,"x_max":730,"o":"m 730 341 l 205 341 q 271 156 208 221 q 445 90 333 90 q 676 171 571 90 l 676 52 q 414 -18 577 -18 q 160 85 251 -18 q 68 372 68 189 q 169 656 68 544 q 417 768 269 768 q 647 673 564 768 q 730 408 730 578 l 730 341 m 597 448 q 549 605 596 549 q 415 661 501 661 q 278 602 336 661 q 205 448 220 543 l 597 448 z "},"f":{"ha":481,"x_min":38,"x_max":503,"o":"m 503 997 q 422 1017 466 1017 q 298 862 298 1017 l 298 750 l 473 750 l 473 640 l 298 640 l 298 0 l 166 0 l 166 640 l 38 640 l 38 750 l 166 750 l 166 868 q 236 1058 166 989 q 412 1126 305 1126 q 503 1114 469 1126 l 503 997 z "},"g":{"ha":888,"x_min":68,"x_max":770,"o":"m 770 63 q 366 -353 770 -353 q 123 -301 226 -353 l 123 -173 q 363 -243 248 -243 q 637 45 637 -243 l 637 124 l 634 124 q 379 -18 549 -18 q 153 83 238 -18 q 68 351 68 184 q 162 655 68 543 q 412 768 256 768 q 634 648 562 768 l 637 648 l 637 750 l 770 750 l 770 63 m 637 446 q 578 595 637 533 q 433 658 519 658 q 264 578 325 658 q 204 359 204 498 q 262 166 204 240 q 417 92 321 92 q 576 163 514 92 q 637 342 637 233 l 637 446 z "},"h":{"ha":855,"x_min":119,"x_max":752,"o":"m 752 0 l 620 0 l 620 431 q 452 658 620 658 q 309 592 366 658 q 252 425 252 526 l 252 0 l 119 0 l 119 1110 l 252 1110 l 252 627 l 254 627 q 499 768 340 768 q 752 462 752 768 l 752 0 z "},"i":{"ha":370,"x_min":102,"x_max":271,"o":"m 102 1015 q 126 1074 102 1050 q 186 1098 151 1098 q 247 1074 222 1098 q 271 1015 271 1050 q 247 956 271 979 q 186 932 222 932 q 126 956 150 932 q 102 1015 102 979 m 118 0 l 118 750 l 251 750 l 251 0 l 118 0 z "},"j":{"ha":371,"x_min":-140,"x_max":272,"o":"m 103 1015 q 127 1074 103 1050 q 186 1098 151 1098 q 248 1074 223 1098 q 272 1015 272 1050 q 247 956 272 980 q 186 932 222 932 q 127 957 151 932 q 103 1015 103 981 m 252 29 q 176 -253 252 -153 q -39 -353 100 -353 q -140 -330 -90 -353 l -140 -210 q -39 -242 -87 -242 q 119 9 119 -242 l 119 750 l 252 750 l 252 29 z "},"k":{"ha":756,"x_min":119,"x_max":756,"o":"m 756 0 l 575 0 l 254 361 l 252 361 l 252 0 l 119 0 l 119 1110 l 252 1110 l 252 406 l 254 406 l 559 750 l 730 750 l 391 389 l 756 0 z "},"l":{"ha":370,"x_min":118,"x_max":251,"o":"m 118 0 l 118 1110 l 251 1110 l 251 0 l 118 0 z "},"m":{"ha":1301,"x_min":119,"x_max":1198,"o":"m 1198 0 l 1065 0 l 1065 431 q 1027 605 1065 553 q 903 658 989 658 q 777 589 829 658 q 725 427 725 521 l 725 0 l 592 0 l 592 444 q 427 658 592 658 q 301 593 351 658 q 252 427 252 528 l 252 0 l 119 0 l 119 750 l 252 750 l 252 631 l 254 631 q 488 768 334 768 q 621 726 564 768 q 701 614 679 685 q 951 768 785 768 q 1198 463 1198 768 l 1198 0 z "},"n":{"ha":856,"x_min":119,"x_max":753,"o":"m 753 0 l 621 0 l 621 427 q 452 658 621 658 q 308 593 364 658 q 252 428 252 528 l 252 0 l 119 0 l 119 750 l 252 750 l 252 626 l 254 626 q 500 768 339 768 q 688 689 624 768 q 753 458 753 610 l 753 0 z "},"o":{"ha":883,"x_min":68,"x_max":814,"o":"m 68 367 q 172 660 68 553 q 454 768 276 768 q 719 664 623 768 q 814 378 814 561 q 712 92 814 201 q 437 -18 610 -18 q 169 88 269 -18 q 68 367 68 194 m 204 371 q 270 167 204 241 q 446 92 335 92 q 619 165 559 92 q 679 374 679 238 q 619 585 679 511 q 446 658 559 658 q 269 581 334 658 q 204 371 204 505 z "},"p":{"ha":887,"x_min":119,"x_max":819,"o":"m 252 106 l 252 -345 l 119 -345 l 119 750 l 252 750 l 252 621 l 254 621 q 512 768 342 768 q 738 667 656 768 q 819 397 819 566 q 727 96 819 210 q 477 -18 634 -18 q 254 106 333 -18 l 252 106 m 251 309 q 310 155 251 218 q 458 92 369 92 q 623 174 564 92 q 683 399 683 255 q 627 589 683 520 q 475 658 572 658 q 314 588 377 658 q 251 409 251 518 l 251 309 z "},"q":{"ha":888,"x_min":68,"x_max":770,"o":"m 770 -345 l 637 -345 l 637 126 l 634 126 q 380 -18 555 -18 q 154 82 239 -18 q 68 357 68 182 q 162 656 68 544 q 413 768 256 768 q 634 648 565 768 l 637 648 l 637 750 l 770 750 l 770 -345 m 637 444 q 580 595 637 532 q 431 658 523 658 q 264 579 325 658 q 204 361 204 500 q 262 163 204 235 q 414 92 320 92 q 577 163 517 92 q 637 340 637 234 l 637 444 z "},"r":{"ha":530,"x_min":119,"x_max":521,"o":"m 521 618 q 429 642 488 642 q 302 570 352 642 q 252 380 252 498 l 252 0 l 119 0 l 119 750 l 252 750 l 252 597 l 254 597 q 451 763 311 763 q 521 753 496 763 l 521 618 z "},"s":{"ha":643,"x_min":77,"x_max":583,"o":"m 77 162 q 293 90 177 90 q 448 191 448 90 q 414 263 448 235 q 277 330 380 291 q 115 429 152 380 q 77 548 77 478 q 162 708 77 648 q 370 768 246 768 q 547 734 465 768 l 547 606 q 357 661 463 661 q 253 633 293 661 q 213 559 213 605 q 242 490 213 515 q 370 425 271 465 q 539 328 495 378 q 583 204 583 278 q 499 42 583 101 q 280 -18 414 -18 q 77 26 163 -18 l 77 162 z "},"t":{"ha":517,"x_min":31,"x_max":479,"o":"m 479 7 q 361 -16 435 -16 q 160 207 160 -16 l 160 640 l 31 640 l 31 750 l 160 750 l 160 930 l 292 972 l 292 750 l 479 750 l 479 640 l 292 640 l 292 231 q 317 125 292 157 q 401 93 342 93 q 479 118 446 93 l 479 7 z "},"u":{"ha":856,"x_min":104,"x_max":738,"o":"m 738 0 l 604 0 l 604 118 l 602 118 q 370 -18 526 -18 q 104 301 104 -18 l 104 750 l 235 750 l 235 321 q 410 92 235 92 q 551 156 497 92 q 604 318 604 220 l 604 750 l 738 750 l 738 0 z "},"v":{"ha":729,"x_min":9,"x_max":723,"o":"m 723 750 l 426 0 l 292 0 l 9 750 l 155 750 l 338 214 q 364 106 360 150 l 368 106 q 391 212 374 163 l 583 750 l 723 750 z "},"w":{"ha":1097,"x_min":17,"x_max":1080,"o":"m 1080 750 l 856 0 l 718 0 l 568 526 q 556 598 559 560 l 553 598 q 538 528 551 570 l 376 0 l 242 0 l 17 750 l 155 750 l 305 194 q 315 125 312 169 l 321 125 q 334 196 323 163 l 495 750 l 618 750 l 775 193 q 786 124 782 169 l 792 124 q 804 193 793 154 l 951 750 l 1080 750 z "},"x":{"ha":704,"x_min":18,"x_max":686,"o":"m 686 750 l 435 372 l 683 0 l 528 0 l 385 239 q 353 297 374 258 l 350 297 q 316 239 349 293 l 170 0 l 18 0 l 273 368 l 29 750 l 184 750 l 324 499 q 355 439 337 476 l 358 439 l 541 750 l 686 750 z "},"y":{"ha":735,"x_min":9,"x_max":729,"o":"m 729 750 l 389 -113 q 121 -353 294 -353 q 36 -342 71 -353 l 36 -226 q 111 -241 75 -241 q 245 -135 201 -241 l 303 1 l 9 750 l 156 750 l 352 186 l 368 125 l 372 125 q 388 185 376 146 l 593 750 l 729 750 z "},"z":{"ha":683,"x_min":24,"x_max":649,"o":"m 646 0 l 24 0 l 24 44 l 460 640 l 64 640 l 64 750 l 649 750 l 649 707 l 216 110 l 646 110 l 646 0 z "},"{":{"ha":464,"x_min":68,"x_max":416,"o":"m 416 -239 q 182 -7 182 -237 l 182 208 q 68 361 182 355 l 68 451 q 182 607 182 458 l 182 816 q 416 1050 182 1048 l 416 951 q 300 809 300 949 l 300 601 q 190 408 300 444 l 190 405 q 300 214 300 372 l 300 9 q 327 -108 300 -75 q 416 -142 355 -141 l 416 -239 z "},"|":{"ha":374,"x_min":130,"x_max":246,"o":"m 246 -353 l 130 -353 l 130 1147 l 246 1147 l 246 -353 z "},"}":{"ha":464,"x_min":50,"x_max":397,"o":"m 397 361 q 283 208 283 355 l 283 -7 q 50 -239 283 -237 l 50 -142 q 139 -107 111 -141 q 167 9 167 -73 l 167 214 q 277 405 167 372 l 277 408 q 167 601 167 444 l 167 809 q 50 951 167 948 l 50 1050 q 283 816 283 1048 l 283 607 q 397 451 283 458 l 397 361 z "},"~":{"ha":1030,"x_min":152,"x_max":880,"o":"m 880 551 q 819 380 873 440 q 671 319 764 319 q 478 398 591 319 q 362 446 406 446 q 257 319 261 446 l 152 319 q 213 490 157 430 q 361 551 269 551 q 533 487 437 551 q 676 422 629 422 q 747 458 721 422 q 775 551 774 493 l 880 551 z "},"§":{"ha":678,"x_min":96,"x_max":599,"o":"m 490 306 q 555 171 555 252 q 482 14 555 75 q 292 -48 409 -48 q 113 -7 193 -48 l 113 117 q 300 60 213 60 q 393 88 361 60 q 425 159 425 115 q 397 224 425 197 q 267 304 369 250 q 96 537 96 393 q 201 715 96 655 q 125 878 125 777 q 196 1031 125 971 q 378 1092 266 1092 q 541 1060 472 1092 l 541 936 q 376 985 464 985 q 256 884 256 985 q 359 760 256 808 q 504 683 463 710 q 572 610 545 656 q 599 508 599 564 q 490 306 599 385 m 294 659 q 223 547 223 623 q 268 452 223 492 q 408 372 313 413 q 470 494 470 420 q 425 588 470 552 q 294 659 380 625 z "},"°":{"ha":566,"x_min":80,"x_max":487,"o":"m 283 1062 q 427 1003 367 1062 q 487 859 487 943 q 427 715 487 774 q 283 656 367 656 q 140 715 200 656 q 80 859 80 774 q 140 1003 80 943 q 283 1062 200 1062 m 283 746 q 363 780 330 746 q 397 859 397 813 q 363 939 397 906 q 283 972 330 972 q 204 939 237 972 q 171 859 171 906 q 204 780 171 813 q 283 746 237 746 z "},"¿":{"ha":671,"x_min":97,"x_max":608,"o":"m 477 682 q 451 622 477 648 q 389 595 425 595 q 328 621 355 595 q 302 682 302 647 q 328 742 302 717 q 389 766 355 766 q 450 742 423 766 q 477 682 477 717 m 460 460 q 476 352 476 412 q 455 261 476 307 q 363 146 434 215 q 254 24 279 64 q 228 -64 228 -16 q 274 -165 228 -127 q 392 -203 321 -203 q 608 -106 515 -203 l 608 -245 q 374 -315 496 -315 q 173 -252 250 -315 q 97 -81 97 -189 q 131 46 97 -12 q 261 193 165 104 q 357 357 357 283 q 333 460 357 406 l 460 460 z "},"À":{"ha":977,"x_min":16,"x_max":961,"o":"m 961 0 l 811 0 l 704 288 l 267 288 l 165 0 l 16 0 l 416 1050 l 561 1050 l 961 0 m 662 406 l 503 843 q 487 916 496 864 l 484 916 q 467 843 476 869 l 309 406 l 662 406 m 615 1144 l 514 1144 l 318 1384 l 450 1384 l 615 1144 z "},"Á":{"ha":977,"x_min":16,"x_max":961,"o":"m 961 0 l 811 0 l 704 288 l 267 288 l 165 0 l 16 0 l 416 1050 l 561 1050 l 961 0 m 662 406 l 503 843 q 487 916 496 864 l 484 916 q 467 843 476 869 l 309 406 l 662 406 m 648 1384 l 452 1144 l 350 1144 l 517 1384 l 648 1384 z "},"Â":{"ha":977,"x_min":16,"x_max":961,"o":"m 961 0 l 811 0 l 704 288 l 267 288 l 165 0 l 16 0 l 416 1050 l 561 1050 l 961 0 m 662 406 l 503 843 q 487 916 496 864 l 484 916 q 467 843 476 869 l 309 406 l 662 406 m 697 1143 l 601 1143 l 481 1309 l 361 1143 l 271 1143 l 431 1386 l 537 1386 l 697 1143 z "},"Ã":{"ha":977,"x_min":16,"x_max":961,"o":"m 961 0 l 811 0 l 704 288 l 267 288 l 165 0 l 16 0 l 416 1050 l 561 1050 l 961 0 m 662 406 l 503 843 q 487 916 496 864 l 484 916 q 467 843 476 869 l 309 406 l 662 406 m 724 1324 q 687 1195 724 1244 q 591 1145 651 1145 q 471 1183 538 1145 q 384 1215 414 1215 q 320 1132 320 1215 l 248 1132 q 284 1262 248 1215 q 382 1310 320 1310 q 494 1272 431 1310 q 587 1239 548 1239 q 648 1324 648 1239 l 724 1324 z "},"Ä":{"ha":977,"x_min":16,"x_max":961,"o":"m 961 0 l 811 0 l 704 288 l 267 288 l 165 0 l 16 0 l 416 1050 l 561 1050 l 961 0 m 662 406 l 503 843 q 487 916 496 864 l 484 916 q 467 843 476 869 l 309 406 l 662 406 m 555 1219 q 577 1273 555 1252 q 631 1295 600 1295 q 686 1273 663 1295 q 709 1219 709 1251 q 686 1165 709 1187 q 632 1143 663 1143 q 578 1165 601 1143 q 555 1219 555 1187 m 266 1219 q 288 1273 266 1251 q 342 1295 310 1295 q 397 1273 374 1295 q 420 1219 420 1251 q 398 1166 420 1188 q 345 1143 376 1143 q 290 1165 313 1143 q 266 1219 266 1187 z "},"Å":{"ha":977,"x_min":16,"x_max":962,"o":"m 962 0 l 812 0 l 704 288 l 267 288 l 165 0 l 16 0 l 401 1013 q 331 1134 331 1049 q 376 1236 331 1194 q 490 1278 421 1278 q 598 1237 555 1278 q 641 1134 641 1197 q 574 1013 641 1049 l 962 0 m 403 1134 q 488 1052 403 1052 q 549 1075 530 1052 q 569 1134 569 1098 q 545 1192 569 1170 q 486 1214 521 1214 q 426 1191 449 1214 q 403 1134 403 1168 m 662 408 l 503 843 q 489 916 496 861 l 486 916 q 467 843 476 869 l 309 408 l 662 408 z "},"Ç":{"ha":929,"x_min":68,"x_max":854,"o":"m 854 43 q 570 -18 734 -18 l 570 -74 q 708 -186 708 -77 q 667 -281 708 -242 q 507 -319 625 -319 l 454 -317 l 454 -247 q 505 -252 481 -252 q 608 -186 608 -252 q 527 -130 608 -130 q 484 -134 511 -130 l 484 -13 q 180 154 292 10 q 68 505 68 298 q 218 909 68 751 q 606 1068 369 1068 q 854 1025 756 1068 l 854 884 q 607 946 742 946 q 320 828 431 946 q 210 513 210 709 q 313 215 210 328 q 583 103 416 103 q 854 174 739 103 l 854 43 z "},"È":{"ha":764,"x_min":136,"x_max":701,"o":"m 701 0 l 136 0 l 136 1050 l 677 1050 l 677 930 l 271 930 l 271 593 l 647 593 l 647 473 l 271 473 l 271 120 l 701 120 l 701 0 m 524 1144 l 422 1144 l 227 1384 l 359 1384 l 524 1144 z "},"É":{"ha":764,"x_min":136,"x_max":701,"o":"m 701 0 l 136 0 l 136 1050 l 677 1050 l 677 930 l 271 930 l 271 593 l 647 593 l 647 473 l 271 473 l 271 120 l 701 120 l 701 0 m 594 1383 l 398 1143 l 296 1143 l 463 1383 l 594 1383 z "},"Ê":{"ha":764,"x_min":136,"x_max":701,"o":"m 701 0 l 136 0 l 136 1050 l 677 1050 l 677 930 l 271 930 l 271 593 l 647 593 l 647 473 l 271 473 l 271 120 l 701 120 l 701 0 m 614 1145 l 517 1145 l 398 1310 l 278 1145 l 188 1145 l 347 1388 l 454 1388 l 614 1145 z "},"Ë":{"ha":764,"x_min":136,"x_max":701,"o":"m 701 0 l 136 0 l 136 1050 l 677 1050 l 677 930 l 271 930 l 271 593 l 647 593 l 647 473 l 271 473 l 271 120 l 701 120 l 701 0 m 478 1220 q 500 1274 478 1253 q 553 1295 522 1295 q 609 1274 586 1295 q 631 1220 631 1252 q 609 1166 631 1187 q 555 1144 586 1144 q 501 1166 524 1144 q 478 1220 478 1188 m 189 1220 q 211 1274 189 1252 q 265 1295 233 1295 q 320 1273 297 1295 q 343 1220 343 1251 q 321 1166 343 1189 q 267 1144 298 1144 q 212 1166 236 1144 q 189 1220 189 1188 z "},"Ì":{"ha":408,"x_min":19,"x_max":372,"o":"m 372 936 l 271 936 l 271 115 l 372 115 l 372 0 l 35 0 l 35 115 l 136 115 l 136 936 l 35 936 l 35 1050 l 372 1050 l 372 936 m 316 1144 l 215 1144 l 19 1384 l 151 1384 l 316 1144 z "},"Í":{"ha":408,"x_min":35,"x_max":384,"o":"m 372 936 l 271 936 l 271 115 l 372 115 l 372 0 l 35 0 l 35 115 l 136 115 l 136 936 l 35 936 l 35 1050 l 372 1050 l 372 936 m 384 1384 l 188 1144 l 86 1144 l 253 1384 l 384 1384 z "},"Î":{"ha":408,"x_min":-5,"x_max":420,"o":"m 372 936 l 271 936 l 271 115 l 372 115 l 372 0 l 35 0 l 35 115 l 136 115 l 136 936 l 35 936 l 35 1050 l 372 1050 l 372 936 m 420 1145 l 324 1145 l 205 1310 l 85 1145 l -5 1145 l 154 1388 l 260 1388 l 420 1145 z "},"Ï":{"ha":408,"x_min":-14,"x_max":429,"o":"m 372 936 l 271 936 l 271 115 l 372 115 l 372 0 l 35 0 l 35 115 l 136 115 l 136 936 l 35 936 l 35 1050 l 372 1050 l 372 936 m 276 1220 q 298 1274 276 1253 q 351 1295 320 1295 q 407 1274 384 1295 q 429 1220 429 1252 q 407 1166 429 1187 q 353 1144 384 1144 q 299 1166 321 1144 q 276 1220 276 1188 m -14 1220 q 8 1274 -14 1252 q 63 1295 31 1295 q 118 1273 95 1295 q 141 1220 141 1251 q 119 1166 141 1189 q 65 1144 96 1144 q 10 1166 34 1144 q -14 1220 -14 1188 z "},"Ñ":{"ha":1129,"x_min":136,"x_max":994,"o":"m 994 0 l 833 0 l 304 817 q 269 886 282 852 l 264 886 q 270 739 270 850 l 270 0 l 136 0 l 136 1050 l 306 1050 l 820 248 q 863 175 857 191 l 866 175 q 859 328 859 220 l 859 1050 l 994 1050 l 994 0 m 820 1324 q 784 1195 820 1244 q 687 1145 747 1145 q 568 1183 635 1145 q 480 1215 510 1215 q 416 1132 416 1215 l 344 1132 q 380 1262 344 1215 q 479 1310 416 1310 q 590 1272 528 1310 q 684 1239 644 1239 q 744 1324 744 1239 l 820 1324 z "},"Ò":{"ha":1132,"x_min":68,"x_max":1065,"o":"m 68 513 q 205 918 68 767 q 578 1068 343 1068 q 931 921 798 1068 q 1065 538 1065 774 q 928 132 1065 282 q 562 -18 791 -18 q 203 130 338 -18 q 68 513 68 277 m 210 524 q 308 218 210 333 q 562 103 405 103 q 826 213 730 103 q 922 522 922 323 q 828 836 922 725 q 570 946 734 946 q 310 829 410 946 q 210 524 210 713 m 655 1144 l 554 1144 l 358 1384 l 490 1384 l 655 1144 z "},"Ó":{"ha":1132,"x_min":68,"x_max":1065,"o":"m 68 513 q 205 918 68 767 q 578 1068 343 1068 q 931 921 798 1068 q 1065 538 1065 774 q 928 132 1065 282 q 562 -18 791 -18 q 203 130 338 -18 q 68 513 68 277 m 210 524 q 308 218 210 333 q 562 103 405 103 q 826 213 730 103 q 922 522 922 323 q 828 836 922 725 q 570 946 734 946 q 310 829 410 946 q 210 524 210 713 m 759 1384 l 563 1144 l 461 1144 l 628 1384 l 759 1384 z "},"Ô":{"ha":1132,"x_min":68,"x_max":1065,"o":"m 68 513 q 205 918 68 767 q 578 1068 343 1068 q 931 921 798 1068 q 1065 538 1065 774 q 928 132 1065 282 q 562 -18 791 -18 q 203 130 338 -18 q 68 513 68 277 m 210 524 q 308 218 210 333 q 562 103 405 103 q 826 213 730 103 q 922 522 922 323 q 828 836 922 725 q 570 946 734 946 q 310 829 410 946 q 210 524 210 713 m 787 1144 l 690 1144 l 571 1310 l 451 1144 l 361 1144 l 520 1387 l 627 1387 l 787 1144 z "},"Õ":{"ha":1132,"x_min":68,"x_max":1065,"o":"m 68 513 q 205 918 68 767 q 578 1068 343 1068 q 931 921 798 1068 q 1065 538 1065 774 q 928 132 1065 282 q 562 -18 791 -18 q 203 130 338 -18 q 68 513 68 277 m 210 524 q 308 218 210 333 q 562 103 405 103 q 826 213 730 103 q 922 522 922 323 q 828 836 922 725 q 570 946 734 946 q 310 829 410 946 q 210 524 210 713 m 810 1324 q 774 1194 810 1243 q 677 1145 738 1145 q 558 1182 625 1145 q 471 1214 500 1214 q 407 1131 407 1214 l 334 1131 q 371 1261 334 1214 q 469 1309 407 1309 q 581 1271 518 1309 q 674 1238 635 1238 q 734 1324 734 1238 l 810 1324 z "},"Ö":{"ha":1132,"x_min":68,"x_max":1065,"o":"m 68 513 q 205 918 68 767 q 578 1068 343 1068 q 931 921 798 1068 q 1065 538 1065 774 q 928 132 1065 282 q 562 -18 791 -18 q 203 130 338 -18 q 68 513 68 277 m 210 524 q 308 218 210 333 q 562 103 405 103 q 826 213 730 103 q 922 522 922 323 q 828 836 922 725 q 570 946 734 946 q 310 829 410 946 q 210 524 210 713 m 636 1218 q 658 1272 636 1251 q 711 1293 680 1293 q 767 1272 744 1293 q 789 1218 789 1250 q 767 1164 789 1185 q 713 1142 744 1142 q 659 1164 682 1142 q 636 1218 636 1186 m 347 1218 q 369 1272 347 1250 q 423 1293 391 1293 q 478 1271 455 1293 q 501 1218 501 1249 q 479 1164 501 1187 q 425 1142 456 1142 q 370 1164 394 1142 q 347 1218 347 1186 z "},"Ø":{"ha":1132,"x_min":68,"x_max":1065,"o":"m 129 -38 l 68 13 l 182 151 q 68 513 68 293 q 207 916 68 763 q 578 1068 345 1068 q 873 974 749 1068 l 972 1092 l 1032 1042 l 931 922 q 1065 538 1065 774 q 927 133 1065 283 q 562 -18 790 -18 q 239 94 369 -18 l 129 -38 m 792 876 q 570 948 701 948 q 309 830 409 948 q 208 523 208 711 q 275 260 208 367 l 792 876 m 325 198 q 562 101 418 101 q 826 213 729 101 q 924 521 924 325 q 844 817 924 704 l 325 198 z "},"Ù":{"ha":1037,"x_min":123,"x_max":914,"o":"m 914 428 q 510 -18 914 -18 q 123 412 123 -18 l 123 1050 l 258 1050 l 258 418 q 523 103 258 103 q 779 408 779 103 l 779 1050 l 914 1050 l 914 428 m 618 1144 l 517 1144 l 321 1384 l 454 1384 l 618 1144 z "},"Ú":{"ha":1037,"x_min":123,"x_max":914,"o":"m 914 428 q 510 -18 914 -18 q 123 412 123 -18 l 123 1050 l 258 1050 l 258 418 q 523 103 258 103 q 779 408 779 103 l 779 1050 l 914 1050 l 914 428 m 711 1383 l 515 1143 l 413 1143 l 580 1383 l 711 1383 z "},"Û":{"ha":1037,"x_min":123,"x_max":914,"o":"m 914 428 q 510 -18 914 -18 q 123 412 123 -18 l 123 1050 l 258 1050 l 258 418 q 523 103 258 103 q 779 408 779 103 l 779 1050 l 914 1050 l 914 428 m 732 1145 l 635 1145 l 516 1310 l 396 1145 l 306 1145 l 465 1388 l 572 1388 l 732 1145 z "},"Ü":{"ha":1037,"x_min":123,"x_max":914,"o":"m 914 428 q 510 -18 914 -18 q 123 412 123 -18 l 123 1050 l 258 1050 l 258 418 q 523 103 258 103 q 779 408 779 103 l 779 1050 l 914 1050 l 914 428 m 587 1221 q 609 1275 587 1253 q 662 1296 631 1296 q 717 1274 694 1296 q 740 1221 740 1253 q 717 1166 740 1188 q 663 1145 694 1145 q 609 1167 632 1145 q 587 1221 587 1189 m 297 1221 q 319 1274 297 1253 q 374 1296 341 1296 q 429 1274 406 1296 q 452 1221 452 1252 q 429 1167 452 1190 q 376 1145 407 1145 q 321 1167 345 1145 q 297 1221 297 1189 z "},"Ý":{"ha":838,"x_min":12,"x_max":831,"o":"m 831 1050 l 485 387 l 485 0 l 349 0 l 349 383 l 12 1050 l 167 1050 l 394 585 q 419 518 395 585 l 421 518 q 449 585 429 547 l 686 1050 l 831 1050 m 605 1384 l 409 1144 l 307 1144 l 474 1384 l 605 1384 z "},"à":{"ha":768,"x_min":63,"x_max":666,"o":"m 136 698 q 395 768 248 768 q 666 483 666 768 l 666 0 l 534 0 l 534 116 l 531 116 q 301 -18 453 -18 q 127 41 192 -18 q 63 201 63 100 q 312 446 63 411 l 534 477 q 382 661 534 661 q 136 570 248 661 l 136 698 m 359 353 q 232 307 267 340 q 197 212 197 273 q 235 124 197 158 q 335 90 273 90 q 478 151 422 90 q 534 304 534 212 l 534 376 l 359 353 m 503 889 l 401 889 l 205 1129 l 338 1129 l 503 889 z "},"á":{"ha":768,"x_min":63,"x_max":666,"o":"m 136 698 q 395 768 248 768 q 666 483 666 768 l 666 0 l 534 0 l 534 116 l 531 116 q 301 -18 453 -18 q 127 41 192 -18 q 63 201 63 100 q 312 446 63 411 l 534 477 q 382 661 534 661 q 136 570 248 661 l 136 698 m 359 353 q 232 307 267 340 q 197 212 197 273 q 235 124 197 158 q 335 90 273 90 q 478 151 422 90 q 534 304 534 212 l 534 376 l 359 353 m 562 1129 l 366 889 l 264 889 l 431 1129 l 562 1129 z "},"â":{"ha":768,"x_min":63,"x_max":666,"o":"m 136 698 q 395 768 248 768 q 666 483 666 768 l 666 0 l 534 0 l 534 116 l 531 116 q 301 -18 453 -18 q 127 41 192 -18 q 63 201 63 100 q 312 446 63 411 l 534 477 q 382 661 534 661 q 136 570 248 661 l 136 698 m 359 353 q 232 307 267 340 q 197 212 197 273 q 235 124 197 158 q 335 90 273 90 q 478 151 422 90 q 534 304 534 212 l 534 376 l 359 353 m 598 889 l 502 889 l 382 1055 l 262 889 l 172 889 l 332 1132 l 438 1132 l 598 889 z "},"ã":{"ha":768,"x_min":63,"x_max":666,"o":"m 136 698 q 395 768 248 768 q 666 483 666 768 l 666 0 l 534 0 l 534 116 l 531 116 q 301 -18 453 -18 q 127 41 192 -18 q 63 201 63 100 q 312 446 63 411 l 534 477 q 382 661 534 661 q 136 570 248 661 l 136 698 m 359 353 q 232 307 267 340 q 197 212 197 273 q 235 124 197 158 q 335 90 273 90 q 478 151 422 90 q 534 304 534 212 l 534 376 l 359 353 m 623 1072 q 586 942 623 991 q 490 892 550 892 q 370 930 437 892 q 283 962 313 962 q 219 879 219 962 l 146 879 q 183 1009 146 962 q 281 1057 219 1057 q 393 1019 330 1057 q 486 986 447 986 q 547 1072 547 986 l 623 1072 z "},"ä":{"ha":768,"x_min":63,"x_max":666,"o":"m 136 698 q 395 768 248 768 q 666 483 666 768 l 666 0 l 534 0 l 534 116 l 531 116 q 301 -18 453 -18 q 127 41 192 -18 q 63 201 63 100 q 312 446 63 411 l 534 477 q 382 661 534 661 q 136 570 248 661 l 136 698 m 359 353 q 232 307 267 340 q 197 212 197 273 q 235 124 197 158 q 335 90 273 90 q 478 151 422 90 q 534 304 534 212 l 534 376 l 359 353 m 448 965 q 470 1019 448 998 q 524 1040 492 1040 q 579 1019 556 1040 q 602 965 602 997 q 579 911 602 932 q 525 889 556 889 q 471 911 494 889 q 448 965 448 933 m 159 965 q 181 1019 159 997 q 235 1040 203 1040 q 290 1018 267 1040 q 313 965 313 996 q 291 911 313 934 q 237 889 269 889 q 182 911 206 889 q 159 965 159 933 z "},"å":{"ha":768,"x_min":63,"x_max":666,"o":"m 136 698 q 395 768 248 768 q 666 483 666 768 l 666 0 l 534 0 l 534 116 l 531 116 q 301 -18 453 -18 q 127 41 192 -18 q 63 201 63 100 q 312 446 63 411 l 534 477 q 382 661 534 661 q 136 570 248 661 l 136 698 m 359 353 q 232 307 267 340 q 197 212 197 273 q 235 124 197 158 q 335 90 273 90 q 478 151 422 90 q 534 304 534 212 l 534 376 l 359 353 m 231 1003 q 274 1109 231 1067 q 387 1150 318 1150 q 495 1109 452 1150 q 538 1008 538 1069 q 493 904 538 946 q 382 862 448 862 q 273 902 316 862 q 231 1003 231 942 m 300 1006 q 382 926 300 926 q 441 949 418 926 q 465 1006 465 972 q 442 1065 465 1042 q 382 1088 418 1088 q 323 1064 347 1088 q 300 1006 300 1040 z "},"ç":{"ha":696,"x_min":68,"x_max":637,"o":"m 637 34 q 437 -18 551 -18 l 437 -74 q 574 -186 574 -77 q 522 -287 574 -252 q 374 -321 470 -321 l 320 -317 l 320 -247 q 372 -252 348 -252 q 473 -186 473 -252 q 380 -130 473 -130 q 350 -134 378 -130 l 350 -10 q 145 115 221 14 q 68 357 68 217 q 177 655 68 543 q 461 768 285 768 q 637 731 564 768 l 637 600 q 461 658 558 658 q 276 577 348 658 q 204 368 204 497 q 272 166 204 241 q 454 92 339 92 q 637 156 551 92 l 637 34 z "},"è":{"ha":788,"x_min":68,"x_max":730,"o":"m 730 341 l 205 341 q 271 156 208 221 q 445 90 333 90 q 676 171 571 90 l 676 52 q 414 -18 577 -18 q 160 85 251 -18 q 68 372 68 189 q 169 656 68 544 q 417 768 269 768 q 647 673 564 768 q 730 408 730 578 l 730 341 m 597 448 q 549 605 596 549 q 415 661 501 661 q 278 602 336 661 q 205 448 220 543 l 597 448 m 540 889 l 439 889 l 243 1129 l 375 1129 l 540 889 z "},"é":{"ha":788,"x_min":68,"x_max":730,"o":"m 730 341 l 205 341 q 271 156 208 221 q 445 90 333 90 q 676 171 571 90 l 676 52 q 414 -18 577 -18 q 160 85 251 -18 q 68 372 68 189 q 169 656 68 544 q 417 768 269 768 q 647 673 564 768 q 730 408 730 578 l 730 341 m 597 448 q 549 605 596 549 q 415 661 501 661 q 278 602 336 661 q 205 448 220 543 l 597 448 m 589 1129 l 393 889 l 292 889 l 458 1129 l 589 1129 z "},"ê":{"ha":788,"x_min":68,"x_max":730,"o":"m 730 341 l 205 341 q 271 156 208 221 q 445 90 333 90 q 676 171 571 90 l 676 52 q 414 -18 577 -18 q 160 85 251 -18 q 68 372 68 189 q 169 656 68 544 q 417 768 269 768 q 647 673 564 768 q 730 408 730 578 l 730 341 m 597 448 q 549 605 596 549 q 415 661 501 661 q 278 602 336 661 q 205 448 220 543 l 597 448 m 624 889 l 528 889 l 408 1055 l 288 889 l 198 889 l 357 1132 l 464 1132 l 624 889 z "},"ë":{"ha":788,"x_min":68,"x_max":730,"o":"m 730 341 l 205 341 q 271 156 208 221 q 445 90 333 90 q 676 171 571 90 l 676 52 q 414 -18 577 -18 q 160 85 251 -18 q 68 372 68 189 q 169 656 68 544 q 417 768 269 768 q 647 673 564 768 q 730 408 730 578 l 730 341 m 597 448 q 549 605 596 549 q 415 661 501 661 q 278 602 336 661 q 205 448 220 543 l 597 448 m 476 965 q 498 1019 476 998 q 551 1040 520 1040 q 607 1019 584 1040 q 629 965 629 997 q 607 911 629 932 q 553 889 584 889 q 499 911 522 889 q 476 965 476 933 m 186 965 q 209 1019 186 997 q 263 1040 231 1040 q 318 1018 295 1040 q 341 965 341 996 q 319 911 341 934 q 265 889 296 889 q 210 911 234 889 q 186 965 186 933 z "},"ì":{"ha":370,"x_min":5,"x_max":302,"o":"m 118 0 l 118 750 l 251 750 l 251 0 l 118 0 m 302 889 l 201 889 l 5 1129 l 138 1129 l 302 889 z "},"í":{"ha":370,"x_min":64,"x_max":361,"o":"m 118 0 l 118 750 l 251 750 l 251 0 l 118 0 m 361 1129 l 165 889 l 64 889 l 231 1129 l 361 1129 z "},"î":{"ha":370,"x_min":-34,"x_max":392,"o":"m 118 0 l 118 750 l 251 750 l 251 0 l 118 0 m 392 889 l 296 889 l 176 1055 l 56 889 l -34 889 l 125 1132 l 232 1132 l 392 889 z "},"ï":{"ha":370,"x_min":-43,"x_max":400,"o":"m 118 0 l 118 750 l 251 750 l 251 0 l 118 0 m 247 965 q 269 1019 247 998 q 322 1040 291 1040 q 377 1019 355 1040 q 400 965 400 997 q 377 911 400 932 q 323 889 355 889 q 270 911 292 889 q 247 965 247 933 m -43 965 q -21 1019 -43 997 q 34 1040 1 1040 q 89 1018 66 1040 q 112 965 112 996 q 90 911 112 934 q 36 889 67 889 q -19 911 5 889 q -43 965 -43 933 z "},"ñ":{"ha":856,"x_min":119,"x_max":753,"o":"m 753 0 l 621 0 l 621 427 q 452 658 621 658 q 308 593 364 658 q 252 428 252 528 l 252 0 l 119 0 l 119 750 l 252 750 l 252 626 l 254 626 q 500 768 339 768 q 688 689 624 768 q 753 458 753 610 l 753 0 m 672 1072 q 636 942 672 991 q 539 892 600 892 q 420 930 487 892 q 332 962 362 962 q 269 879 269 962 l 196 879 q 232 1009 196 962 q 331 1057 269 1057 q 442 1019 380 1057 q 536 986 496 986 q 596 1072 596 986 l 672 1072 z "},"ò":{"ha":883,"x_min":68,"x_max":814,"o":"m 68 367 q 172 660 68 553 q 454 768 276 768 q 719 664 623 768 q 814 378 814 561 q 712 92 814 201 q 437 -18 610 -18 q 169 88 269 -18 q 68 367 68 194 m 204 371 q 270 167 204 241 q 446 92 335 92 q 619 165 559 92 q 679 374 679 238 q 619 585 679 511 q 446 658 559 658 q 269 581 334 658 q 204 371 204 505 m 557 889 l 456 889 l 260 1129 l 392 1129 l 557 889 z "},"ó":{"ha":883,"x_min":68,"x_max":814,"o":"m 68 367 q 172 660 68 553 q 454 768 276 768 q 719 664 623 768 q 814 378 814 561 q 712 92 814 201 q 437 -18 610 -18 q 169 88 269 -18 q 68 367 68 194 m 204 371 q 270 167 204 241 q 446 92 335 92 q 619 165 559 92 q 679 374 679 238 q 619 585 679 511 q 446 658 559 658 q 269 581 334 658 q 204 371 204 505 m 626 1129 l 430 889 l 328 889 l 495 1129 l 626 1129 z "},"ô":{"ha":883,"x_min":68,"x_max":814,"o":"m 68 367 q 172 660 68 553 q 454 768 276 768 q 719 664 623 768 q 814 378 814 561 q 712 92 814 201 q 437 -18 610 -18 q 169 88 269 -18 q 68 367 68 194 m 204 371 q 270 167 204 241 q 446 92 335 92 q 619 165 559 92 q 679 374 679 238 q 619 585 679 511 q 446 658 559 658 q 269 581 334 658 q 204 371 204 505 m 656 889 l 560 889 l 441 1055 l 321 889 l 231 889 l 390 1132 l 496 1132 l 656 889 z "},"õ":{"ha":883,"x_min":68,"x_max":814,"o":"m 68 367 q 172 660 68 553 q 454 768 276 768 q 719 664 623 768 q 814 378 814 561 q 712 92 814 201 q 437 -18 610 -18 q 169 88 269 -18 q 68 367 68 194 m 204 371 q 270 167 204 241 q 446 92 335 92 q 619 165 559 92 q 679 374 679 238 q 619 585 679 511 q 446 658 559 658 q 269 581 334 658 q 204 371 204 505 m 686 1072 q 650 942 686 991 q 553 892 614 892 q 434 930 501 892 q 347 962 376 962 q 283 879 283 962 l 210 879 q 247 1009 210 962 q 345 1057 283 1057 q 456 1019 394 1057 q 550 986 511 986 q 610 1072 610 986 l 686 1072 z "},"ö":{"ha":883,"x_min":68,"x_max":814,"o":"m 68 367 q 172 660 68 553 q 454 768 276 768 q 719 664 623 768 q 814 378 814 561 q 712 92 814 201 q 437 -18 610 -18 q 169 88 269 -18 q 68 367 68 194 m 204 371 q 270 167 204 241 q 446 92 335 92 q 619 165 559 92 q 679 374 679 238 q 619 585 679 511 q 446 658 559 658 q 269 581 334 658 q 204 371 204 505 m 510 965 q 532 1019 510 998 q 585 1040 554 1040 q 641 1019 618 1040 q 663 965 663 997 q 641 911 663 932 q 587 889 618 889 q 533 911 555 889 q 510 965 510 933 m 220 965 q 242 1019 220 997 q 297 1040 264 1040 q 352 1018 329 1040 q 375 965 375 996 q 353 911 375 934 q 299 889 330 889 q 244 911 268 889 q 220 965 220 933 z "},"ø":{"ha":883,"x_min":35,"x_max":863,"o":"m 863 764 l 741 635 q 814 382 814 535 q 712 90 814 198 q 437 -18 609 -18 q 203 56 296 -18 l 98 -60 l 35 0 l 143 118 q 68 367 68 220 q 172 660 68 552 q 456 768 276 768 q 681 697 591 768 l 798 824 l 863 764 m 597 608 q 446 660 542 660 q 267 583 332 660 q 202 371 202 507 q 236 216 202 280 l 597 608 m 288 143 q 444 90 349 90 q 622 165 561 90 q 682 376 682 239 q 650 536 682 469 l 288 143 z "},"ù":{"ha":856,"x_min":104,"x_max":738,"o":"m 738 0 l 604 0 l 604 118 l 602 118 q 370 -18 526 -18 q 104 301 104 -18 l 104 750 l 235 750 l 235 321 q 410 92 235 92 q 551 156 497 92 q 604 318 604 220 l 604 750 l 738 750 l 738 0 m 527 889 l 426 889 l 230 1129 l 362 1129 l 527 889 z "},"ú":{"ha":856,"x_min":104,"x_max":738,"o":"m 738 0 l 604 0 l 604 118 l 602 118 q 370 -18 526 -18 q 104 301 104 -18 l 104 750 l 235 750 l 235 321 q 410 92 235 92 q 551 156 497 92 q 604 318 604 220 l 604 750 l 738 750 l 738 0 m 621 1129 l 425 889 l 323 889 l 490 1129 l 621 1129 z "},"û":{"ha":856,"x_min":104,"x_max":738,"o":"m 738 0 l 604 0 l 604 118 l 602 118 q 370 -18 526 -18 q 104 301 104 -18 l 104 750 l 235 750 l 235 321 q 410 92 235 92 q 551 156 497 92 q 604 318 604 220 l 604 750 l 738 750 l 738 0 m 635 889 l 538 889 l 419 1055 l 299 889 l 209 889 l 368 1132 l 475 1132 l 635 889 z "},"ü":{"ha":856,"x_min":104,"x_max":738,"o":"m 738 0 l 604 0 l 604 118 l 602 118 q 370 -18 526 -18 q 104 301 104 -18 l 104 750 l 235 750 l 235 321 q 410 92 235 92 q 551 156 497 92 q 604 318 604 220 l 604 750 l 738 750 l 738 0 m 494 965 q 516 1019 494 998 q 569 1040 538 1040 q 624 1019 602 1040 q 647 965 647 997 q 624 911 647 932 q 570 889 602 889 q 516 911 539 889 q 494 965 494 933 m 204 965 q 226 1019 204 997 q 281 1040 248 1040 q 336 1018 313 1040 q 359 965 359 996 q 336 911 359 934 q 283 889 314 889 q 228 911 252 889 q 204 965 204 933 z "},"ý":{"ha":735,"x_min":9,"x_max":729,"o":"m 729 750 l 389 -113 q 121 -353 294 -353 q 36 -342 71 -353 l 36 -226 q 111 -241 75 -241 q 245 -135 201 -241 l 303 1 l 9 750 l 156 750 l 352 186 l 368 125 l 372 125 q 388 185 376 146 l 593 750 l 729 750 m 555 1129 l 359 889 l 258 889 l 425 1129 l 555 1129 z "},"ÿ":{"ha":735,"x_min":9,"x_max":729,"o":"m 729 750 l 389 -113 q 121 -353 294 -353 q 36 -342 71 -353 l 36 -226 q 111 -241 75 -241 q 245 -135 201 -241 l 303 1 l 9 750 l 156 750 l 352 186 l 368 125 l 372 125 q 388 185 376 146 l 593 750 l 729 750 m 440 965 q 462 1019 440 998 q 515 1040 484 1040 q 571 1019 548 1040 q 593 965 593 997 q 571 911 593 932 q 517 889 548 889 q 463 911 486 889 q 440 965 440 933 m 151 965 q 173 1019 151 997 q 227 1040 195 1040 q 282 1018 259 1040 q 305 965 305 996 q 283 911 305 934 q 229 889 260 889 q 174 911 198 889 q 151 965 151 933 z "},"Ā":{"ha":977,"x_min":16,"x_max":961,"o":"m 961 0 l 811 0 l 704 288 l 267 288 l 165 0 l 16 0 l 416 1050 l 561 1050 l 961 0 m 662 406 l 503 843 q 487 916 496 864 l 484 916 q 467 843 476 869 l 309 406 l 662 406 m 650 1142 l 268 1142 l 268 1229 l 650 1229 l 650 1142 z "},"ā":{"ha":768,"x_min":63,"x_max":666,"o":"m 136 698 q 395 768 248 768 q 666 483 666 768 l 666 0 l 534 0 l 534 116 l 531 116 q 301 -18 453 -18 q 127 41 192 -18 q 63 201 63 100 q 312 446 63 411 l 534 477 q 382 661 534 661 q 136 570 248 661 l 136 698 m 359 353 q 232 307 267 340 q 197 212 197 273 q 235 124 197 158 q 335 90 273 90 q 478 151 422 90 q 534 304 534 212 l 534 376 l 359 353 m 563 888 l 180 888 l 180 975 l 563 975 l 563 888 z "},"Ă":{"ha":977,"x_min":16,"x_max":961,"o":"m 961 0 l 811 0 l 704 288 l 267 288 l 165 0 l 16 0 l 416 1050 l 561 1050 l 961 0 m 662 406 l 503 843 q 487 916 496 864 l 484 916 q 467 843 476 869 l 309 406 l 662 406 m 674 1333 q 607 1195 665 1247 q 465 1143 549 1143 q 321 1196 376 1143 q 262 1333 265 1249 l 341 1333 q 467 1221 351 1221 q 551 1252 517 1221 q 593 1333 585 1282 l 674 1333 z "},"ă":{"ha":768,"x_min":63,"x_max":666,"o":"m 136 698 q 395 768 248 768 q 666 483 666 768 l 666 0 l 534 0 l 534 116 l 531 116 q 301 -18 453 -18 q 127 41 192 -18 q 63 201 63 100 q 312 446 63 411 l 534 477 q 382 661 534 661 q 136 570 248 661 l 136 698 m 359 353 q 232 307 267 340 q 197 212 197 273 q 235 124 197 158 q 335 90 273 90 q 478 151 422 90 q 534 304 534 212 l 534 376 l 359 353 m 573 1079 q 506 941 564 993 q 363 889 448 889 q 220 942 275 889 q 161 1079 164 994 l 240 1079 q 366 966 250 966 q 450 997 416 966 q 492 1079 484 1028 l 573 1079 z "},"Ą":{"ha":977,"x_min":15,"x_max":983,"o":"m 961 0 l 904 0 q 861 -121 861 -72 q 909 -169 861 -169 q 983 -151 945 -169 l 983 -232 q 887 -248 940 -248 q 798 -214 831 -248 q 764 -122 764 -180 q 811 0 764 -72 l 704 288 l 267 288 l 165 0 l 15 0 l 416 1050 l 560 1050 l 961 0 m 662 406 l 503 843 q 487 916 494 869 l 484 916 q 467 843 473 866 l 309 406 l 662 406 z "},"ą":{"ha":768,"x_min":63,"x_max":705,"o":"m 705 -232 q 611 -248 663 -248 q 521 -214 555 -248 q 488 -122 488 -179 q 535 0 488 -72 l 535 80 q 534 116 535 109 l 531 116 q 301 -18 453 -18 q 128 42 193 -18 q 63 201 63 101 q 312 446 63 412 l 534 477 q 382 661 534 661 q 136 570 247 661 l 136 698 q 255 747 179 727 q 395 768 331 768 q 665 483 665 768 l 665 0 l 627 0 q 584 -121 584 -72 q 632 -169 584 -169 q 705 -151 668 -169 l 705 -232 m 534 376 l 359 353 q 242 316 288 343 q 197 212 197 288 q 234 124 197 157 q 335 90 272 90 q 479 152 423 90 q 534 304 534 214 l 534 376 z "},"Ć":{"ha":929,"x_min":68,"x_max":854,"o":"m 854 43 q 564 -18 739 -18 q 203 126 338 -18 q 68 505 68 269 q 220 913 68 759 q 606 1068 372 1068 q 854 1025 756 1068 l 854 884 q 607 946 742 946 q 321 829 431 946 q 210 513 210 712 q 313 214 210 325 q 583 103 416 103 q 854 174 739 103 l 854 43 m 785 1384 l 589 1144 l 487 1144 l 654 1384 l 785 1384 z "},"ć":{"ha":696,"x_min":68,"x_max":637,"o":"m 637 34 q 429 -18 551 -18 q 168 87 267 -18 q 68 357 68 191 q 175 655 68 542 q 461 768 282 768 q 637 731 564 768 l 637 600 q 461 658 558 658 q 276 579 347 658 q 204 368 204 500 q 272 165 204 239 q 454 92 339 92 q 637 156 551 92 l 637 34 m 626 1129 l 430 889 l 328 889 l 495 1129 l 626 1129 z "},"Č":{"ha":929,"x_min":68,"x_max":854,"o":"m 854 43 q 564 -18 739 -18 q 203 126 338 -18 q 68 505 68 269 q 220 913 68 759 q 606 1068 372 1068 q 854 1025 756 1068 l 854 884 q 607 946 742 946 q 321 829 431 946 q 210 513 210 712 q 313 214 210 325 q 583 103 416 103 q 854 174 739 103 l 854 43 m 821 1385 l 662 1144 l 555 1144 l 396 1385 l 488 1385 l 606 1221 l 726 1385 l 821 1385 z "},"č":{"ha":696,"x_min":68,"x_max":637,"o":"m 637 34 q 429 -18 551 -18 q 168 87 267 -18 q 68 357 68 191 q 175 655 68 542 q 461 768 282 768 q 637 731 564 768 l 637 600 q 461 658 558 658 q 276 579 347 658 q 204 368 204 500 q 272 165 204 239 q 454 92 339 92 q 637 156 551 92 l 637 34 m 635 1131 l 477 889 l 370 889 l 211 1131 l 302 1131 l 421 966 l 541 1131 l 635 1131 z "},"Ď":{"ha":1058,"x_min":136,"x_max":991,"o":"m 136 0 l 136 1050 l 435 1050 q 832 911 674 1050 q 991 538 991 772 q 832 147 991 294 q 425 0 674 0 l 136 0 m 271 930 l 271 120 l 424 120 q 736 229 624 120 q 848 535 848 338 q 733 831 848 732 q 430 930 618 930 l 271 930 m 764 1385 l 606 1144 l 499 1144 l 340 1385 l 431 1385 l 550 1221 l 670 1385 l 764 1385 z "},"ď":{"ha":994,"x_min":68,"x_max":1051,"o":"m 770 0 l 637 0 l 637 125 l 634 125 q 379 -18 552 -18 q 153 84 237 -18 q 68 357 68 185 q 163 655 68 543 q 412 768 258 768 q 634 648 565 768 l 637 648 l 637 1110 l 770 1110 l 770 0 m 637 446 q 578 597 637 536 q 432 658 519 658 q 265 579 326 658 q 204 363 204 500 q 263 165 204 238 q 419 92 321 92 q 576 164 515 92 q 637 342 637 235 l 637 446 m 1051 1110 l 929 913 l 833 913 l 917 1110 l 1051 1110 z "},"Đ":{"ha":1058,"x_min":18,"x_max":991,"o":"m 136 0 l 136 465 l 18 465 l 18 588 l 136 588 l 136 1050 l 435 1050 q 991 538 991 1050 q 836 148 991 296 q 425 0 682 0 l 136 0 m 271 930 l 271 588 l 512 588 l 512 465 l 271 465 l 271 120 l 424 120 q 736 230 624 120 q 848 535 848 339 q 430 930 848 930 l 271 930 z "},"đ":{"ha":890,"x_min":68,"x_max":869,"o":"m 869 878 l 770 878 l 770 0 l 637 0 l 637 125 l 634 125 q 379 -18 552 -18 q 151 85 234 -18 q 68 357 68 187 q 161 653 68 538 q 412 768 253 768 q 634 648 564 768 l 637 648 l 637 878 l 395 878 l 395 982 l 637 982 l 637 1110 l 770 1110 l 770 982 l 869 982 l 869 878 m 637 446 q 578 597 637 536 q 432 658 519 658 q 263 577 323 658 q 204 363 204 496 q 262 165 204 239 q 419 92 319 92 q 578 166 517 92 q 637 342 640 239 l 637 446 z "},"Ē":{"ha":764,"x_min":136,"x_max":701,"o":"m 701 0 l 136 0 l 136 1050 l 677 1050 l 677 930 l 271 930 l 271 593 l 647 593 l 647 473 l 271 473 l 271 120 l 701 120 l 701 0 m 613 1143 l 231 1143 l 231 1230 l 613 1230 l 613 1143 z "},"ē":{"ha":788,"x_min":68,"x_max":730,"o":"m 730 341 l 205 341 q 271 156 208 221 q 445 90 333 90 q 676 171 571 90 l 676 52 q 414 -18 577 -18 q 160 85 251 -18 q 68 372 68 189 q 169 656 68 544 q 417 768 269 768 q 647 673 564 768 q 730 408 730 578 l 730 341 m 597 448 q 549 605 596 549 q 415 661 501 661 q 278 602 336 661 q 205 448 220 543 l 597 448 m 610 888 l 228 888 l 228 975 l 610 975 l 610 888 z "},"Ę":{"ha":764,"x_min":136,"x_max":701,"o":"m 701 0 l 604 0 q 561 -121 561 -72 q 609 -169 561 -169 q 683 -151 646 -169 l 683 -232 q 589 -248 640 -248 q 498 -214 531 -248 q 465 -122 465 -180 q 513 0 465 -73 l 136 0 l 136 1050 l 677 1050 l 677 930 l 271 930 l 271 593 l 647 593 l 647 473 l 271 473 l 271 120 l 701 120 l 701 0 z "},"ę":{"ha":787,"x_min":68,"x_max":730,"o":"m 553 -232 q 457 -248 510 -248 q 367 -214 401 -248 q 333 -122 333 -179 q 370 -16 333 -77 q 148 99 227 -2 q 68 372 68 201 q 168 658 68 548 q 417 768 268 768 q 648 672 566 768 q 730 408 730 576 l 730 341 l 205 341 q 445 90 215 90 q 676 171 572 90 l 676 52 q 464 -16 595 -4 q 431 -121 431 -76 q 479 -169 431 -169 q 553 -151 515 -169 l 553 -232 m 597 448 q 549 606 596 551 q 415 661 501 661 q 277 602 335 661 q 205 448 220 544 l 597 448 z "},"Ě":{"ha":764,"x_min":136,"x_max":701,"o":"m 701 0 l 136 0 l 136 1050 l 677 1050 l 677 930 l 271 930 l 271 593 l 647 593 l 647 473 l 271 473 l 271 120 l 701 120 l 701 0 m 625 1385 l 467 1144 l 360 1144 l 201 1385 l 292 1385 l 411 1221 l 531 1385 l 625 1385 z "},"ě":{"ha":788,"x_min":68,"x_max":730,"o":"m 730 341 l 205 341 q 271 156 208 221 q 445 90 333 90 q 676 171 571 90 l 676 52 q 414 -18 577 -18 q 160 85 251 -18 q 68 372 68 189 q 169 656 68 544 q 417 768 269 768 q 647 673 564 768 q 730 408 730 578 l 730 341 m 597 448 q 549 605 596 549 q 415 661 501 661 q 278 602 336 661 q 205 448 220 543 l 597 448 m 627 1131 l 469 889 l 362 889 l 203 1131 l 294 1131 l 413 966 l 533 1131 l 627 1131 z "},"ń":{"ha":856,"x_min":119,"x_max":753,"o":"m 753 0 l 621 0 l 621 427 q 452 658 621 658 q 308 593 364 658 q 252 428 252 528 l 252 0 l 119 0 l 119 750 l 252 750 l 252 626 l 254 626 q 500 768 339 768 q 688 689 624 768 q 753 458 753 610 l 753 0 m 618 1129 l 422 889 l 321 889 l 488 1129 l 618 1129 z "},"Ň":{"ha":1129,"x_min":136,"x_max":994,"o":"m 994 0 l 833 0 l 304 817 q 269 886 282 852 l 264 886 q 270 739 270 850 l 270 0 l 136 0 l 136 1050 l 306 1050 l 820 248 q 863 175 857 191 l 866 175 q 859 328 859 220 l 859 1050 l 994 1050 l 994 0 m 776 1385 l 617 1144 l 511 1144 l 351 1385 l 443 1385 l 562 1221 l 682 1385 l 776 1385 z "},"ň":{"ha":856,"x_min":119,"x_max":753,"o":"m 753 0 l 621 0 l 621 427 q 452 658 621 658 q 308 593 364 658 q 252 428 252 528 l 252 0 l 119 0 l 119 750 l 252 750 l 252 626 l 254 626 q 500 768 339 768 q 688 689 624 768 q 753 458 753 610 l 753 0 m 655 1131 l 496 889 l 390 889 l 231 1131 l 322 1131 l 441 966 l 561 1131 l 655 1131 z "},"Ō":{"ha":1132,"x_min":68,"x_max":1065,"o":"m 68 513 q 205 918 68 767 q 578 1068 343 1068 q 931 921 798 1068 q 1065 538 1065 774 q 928 132 1065 282 q 562 -18 791 -18 q 203 130 338 -18 q 68 513 68 277 m 210 524 q 308 218 210 333 q 562 103 405 103 q 826 213 730 103 q 922 522 922 323 q 828 836 922 725 q 570 946 734 946 q 310 829 410 946 q 210 524 210 713 m 761 1157 l 378 1157 l 378 1244 l 761 1244 l 761 1157 z "},"ō":{"ha":883,"x_min":68,"x_max":814,"o":"m 68 367 q 172 660 68 553 q 454 768 276 768 q 719 664 623 768 q 814 378 814 561 q 712 92 814 201 q 437 -18 610 -18 q 169 88 269 -18 q 68 367 68 194 m 204 371 q 270 167 204 241 q 446 92 335 92 q 619 165 559 92 q 679 374 679 238 q 619 585 679 511 q 446 658 559 658 q 269 581 334 658 q 204 371 204 505 m 637 888 l 255 888 l 255 975 l 637 975 l 637 888 z "},"Ř":{"ha":907,"x_min":136,"x_max":903,"o":"m 903 0 l 743 0 l 568 292 q 473 411 516 379 q 369 442 429 442 l 271 442 l 271 0 l 136 0 l 136 1050 l 456 1050 q 696 977 609 1050 q 783 770 783 903 q 549 486 783 551 l 549 483 q 624 431 593 465 q 706 315 656 397 l 903 0 m 271 932 l 271 561 l 431 561 q 582 615 524 561 q 640 758 640 669 q 587 886 640 840 q 433 932 534 932 l 271 932 m 662 1385 l 503 1144 l 397 1144 l 237 1385 l 329 1385 l 448 1221 l 568 1385 l 662 1385 z "},"ř":{"ha":530,"x_min":94,"x_max":521,"o":"m 521 618 q 429 642 488 642 q 302 570 352 642 q 252 380 252 498 l 252 0 l 119 0 l 119 750 l 252 750 l 252 597 l 254 597 q 451 763 311 763 q 521 753 496 763 l 521 618 m 518 1131 l 359 889 l 253 889 l 94 1131 l 185 1131 l 304 966 l 424 1131 l 518 1131 z "},"Ś":{"ha":802,"x_min":87,"x_max":732,"o":"m 87 197 q 216 128 135 155 q 369 101 296 101 q 590 258 590 101 q 566 338 590 302 q 501 400 543 373 q 346 484 460 427 q 138 630 188 562 q 87 784 87 697 q 193 991 87 915 q 458 1068 298 1068 q 688 1030 614 1068 l 688 882 q 448 948 593 948 q 291 908 351 948 q 230 795 230 867 q 272 692 230 732 q 454 583 314 652 q 671 435 609 509 q 732 269 732 361 q 632 56 732 130 q 353 -18 532 -18 q 208 0 291 -18 q 87 43 125 17 l 87 197 m 616 1382 l 420 1142 l 319 1142 l 486 1382 l 616 1382 z "},"ś":{"ha":643,"x_min":77,"x_max":583,"o":"m 77 162 q 293 90 177 90 q 448 191 448 90 q 414 263 448 235 q 277 330 380 291 q 115 429 152 380 q 77 548 77 478 q 162 708 77 648 q 370 768 246 768 q 547 734 465 768 l 547 606 q 357 661 463 661 q 253 633 293 661 q 213 559 213 605 q 242 490 213 515 q 370 425 271 465 q 539 328 495 378 q 583 204 583 278 q 499 42 583 101 q 280 -18 414 -18 q 77 26 163 -18 l 77 162 m 539 1129 l 343 889 l 241 889 l 408 1129 l 539 1129 z "},"Ş":{"ha":802,"x_min":87,"x_max":732,"o":"m 87 197 q 216 128 135 155 q 369 101 296 101 q 589 258 589 101 q 566 338 589 302 q 500 401 543 373 q 346 484 458 429 q 138 630 188 562 q 87 784 87 697 q 193 991 87 915 q 458 1068 298 1068 q 688 1030 614 1068 l 688 882 q 448 948 593 948 q 291 908 351 948 q 230 795 230 867 q 272 692 230 732 q 454 583 314 652 q 669 436 606 510 q 732 269 732 362 q 425 -14 732 19 l 425 -74 q 528 -105 490 -75 q 565 -186 565 -135 q 509 -286 560 -253 q 353 -319 458 -319 l 311 -317 l 311 -247 q 361 -252 336 -252 q 464 -186 464 -252 q 370 -130 464 -130 q 341 -134 366 -130 l 341 -18 q 87 43 172 -9 l 87 197 z "},"ş":{"ha":640,"x_min":73,"x_max":579,"o":"m 73 162 q 290 90 174 90 q 445 191 445 90 q 411 263 445 235 q 273 330 377 291 q 111 429 149 380 q 74 548 74 478 q 158 708 74 648 q 366 768 243 768 q 544 734 462 768 l 544 606 q 353 661 460 661 q 249 632 288 661 q 209 559 209 604 q 224 505 209 528 q 264 470 240 483 q 366 425 288 456 q 536 327 493 378 q 579 204 579 277 q 515 58 579 115 q 340 -14 451 1 l 340 -74 q 442 -105 405 -75 q 479 -186 479 -135 q 428 -280 479 -239 q 273 -320 377 -320 l 224 -317 l 224 -247 q 276 -252 248 -252 q 377 -186 377 -252 q 285 -130 377 -130 q 254 -134 281 -130 l 254 -17 q 73 26 152 -14 l 73 162 z "},"Š":{"ha":802,"x_min":87,"x_max":732,"o":"m 87 197 q 216 128 135 155 q 369 101 296 101 q 590 258 590 101 q 566 338 590 302 q 501 400 543 373 q 346 484 460 427 q 138 630 188 562 q 87 784 87 697 q 193 991 87 915 q 458 1068 298 1068 q 688 1030 614 1068 l 688 882 q 448 948 593 948 q 291 908 351 948 q 230 795 230 867 q 272 692 230 732 q 454 583 314 652 q 671 435 609 509 q 732 269 732 361 q 632 56 732 130 q 353 -18 532 -18 q 208 0 291 -18 q 87 43 125 17 l 87 197 m 616 1387 l 457 1145 l 351 1145 l 191 1387 l 283 1387 l 401 1223 l 522 1387 l 616 1387 z "},"š":{"ha":643,"x_min":77,"x_max":583,"o":"m 77 162 q 293 90 177 90 q 448 191 448 90 q 414 263 448 235 q 277 330 380 291 q 115 429 152 380 q 77 548 77 478 q 162 708 77 648 q 370 768 246 768 q 547 734 465 768 l 547 606 q 357 661 463 661 q 253 633 293 661 q 213 559 213 605 q 242 490 213 515 q 370 425 271 465 q 539 328 495 378 q 583 204 583 278 q 499 42 583 101 q 280 -18 414 -18 q 77 26 163 -18 l 77 162 m 566 1131 l 407 889 l 300 889 l 141 1131 l 233 1131 l 351 966 l 471 1131 l 566 1131 z "},"Ţ":{"ha":796,"x_min":29,"x_max":770,"o":"m 770 930 l 467 930 l 467 0 l 427 0 l 427 -74 q 528 -104 491 -75 q 565 -186 565 -134 q 515 -278 564 -237 q 349 -321 465 -319 q 311 -317 336 -321 l 311 -247 q 362 -252 336 -252 q 464 -186 464 -252 q 371 -130 464 -130 q 341 -134 368 -130 l 341 0 l 331 0 l 331 930 l 29 930 l 29 1050 l 770 1050 l 770 930 z "},"ţ":{"ha":517,"x_min":31,"x_max":492,"o":"m 478 7 q 362 -16 435 -18 l 353 -16 l 353 -74 q 454 -105 417 -75 q 492 -186 492 -135 q 445 -281 492 -243 q 288 -319 398 -319 q 237 -317 267 -319 l 237 -247 q 289 -252 260 -252 q 390 -186 390 -252 q 298 -130 390 -130 q 267 -134 294 -130 l 267 -1 q 159 207 159 41 l 159 640 l 31 640 l 31 750 l 159 750 l 159 930 q 292 972 220 951 l 292 750 l 478 750 l 478 640 l 292 640 l 292 231 q 317 125 292 157 q 401 93 342 93 q 478 118 445 93 l 478 7 z "},"Ť":{"ha":796,"x_min":29,"x_max":770,"o":"m 770 930 l 467 930 l 467 0 l 331 0 l 331 930 l 29 930 l 29 1050 l 770 1050 l 770 930 m 611 1385 l 452 1144 l 346 1144 l 186 1385 l 278 1385 l 397 1221 l 517 1385 l 611 1385 z "},"ť":{"ha":603,"x_min":31,"x_max":660,"o":"m 660 1031 l 538 833 l 442 833 l 526 1031 l 660 1031 m 478 7 q 361 -16 435 -16 q 159 207 159 -16 l 159 640 l 31 640 l 31 750 l 159 750 l 159 930 l 292 972 l 292 750 l 478 750 l 478 640 l 292 640 l 292 231 q 317 125 292 157 q 401 93 342 93 q 478 118 446 93 l 478 7 z "},"Ũ":{"ha":1037,"x_min":123,"x_max":914,"o":"m 914 428 q 510 -18 914 -18 q 123 412 123 -18 l 123 1050 l 258 1050 l 258 418 q 523 103 258 103 q 779 408 779 103 l 779 1050 l 914 1050 l 914 428 m 766 1326 q 729 1197 766 1246 q 633 1147 693 1147 q 513 1185 581 1147 q 426 1217 456 1217 q 362 1134 362 1217 l 290 1134 q 326 1264 290 1217 q 425 1312 362 1312 q 536 1274 473 1312 q 629 1241 590 1241 q 690 1326 690 1241 l 766 1326 z "},"ũ":{"ha":856,"x_min":104,"x_max":738,"o":"m 738 0 l 604 0 l 604 118 l 602 118 q 370 -18 526 -18 q 104 301 104 -18 l 104 750 l 235 750 l 235 321 q 410 92 235 92 q 551 156 497 92 q 604 318 604 220 l 604 750 l 738 750 l 738 0 m 665 1072 q 629 942 665 991 q 532 892 593 892 q 413 930 480 892 q 326 962 355 962 q 262 879 262 962 l 189 879 q 225 1009 189 962 q 324 1057 262 1057 q 435 1019 373 1057 q 529 986 490 986 q 589 1072 589 986 l 665 1072 z "},"Ū":{"ha":1037,"x_min":123,"x_max":914,"o":"m 914 428 q 510 -18 914 -18 q 123 412 123 -18 l 123 1050 l 258 1050 l 258 418 q 523 103 258 103 q 779 408 779 103 l 779 1050 l 914 1050 l 914 428 m 708 1143 l 326 1143 l 326 1230 l 708 1230 l 708 1143 z "},"ū":{"ha":856,"x_min":104,"x_max":738,"o":"m 738 0 l 604 0 l 604 118 l 602 118 q 370 -18 526 -18 q 104 301 104 -18 l 104 750 l 235 750 l 235 321 q 410 92 235 92 q 551 156 497 92 q 604 318 604 220 l 604 750 l 738 750 l 738 0 m 610 888 l 227 888 l 227 975 l 610 975 l 610 888 z "},"Ů":{"ha":1037,"x_min":123,"x_max":914,"o":"m 914 428 q 510 -18 914 -18 q 123 412 123 -18 l 123 1050 l 258 1050 l 258 418 q 523 103 258 103 q 779 408 779 103 l 779 1050 l 914 1050 l 914 428 m 349 1289 q 392 1395 349 1354 q 505 1436 436 1436 q 613 1396 570 1436 q 656 1294 656 1355 q 611 1190 656 1232 q 500 1148 566 1148 q 391 1188 434 1148 q 349 1289 349 1228 m 418 1293 q 500 1212 418 1212 q 559 1235 536 1212 q 583 1293 583 1258 q 560 1351 583 1329 q 500 1374 536 1374 q 441 1350 465 1374 q 418 1293 418 1326 z "},"ů":{"ha":856,"x_min":104,"x_max":738,"o":"m 738 0 l 604 0 l 604 118 l 602 118 q 370 -18 526 -18 q 104 301 104 -18 l 104 750 l 235 750 l 235 321 q 410 92 235 92 q 551 156 497 92 q 604 318 604 220 l 604 750 l 738 750 l 738 0 m 262 1003 q 306 1109 262 1067 q 418 1150 349 1150 q 527 1109 484 1150 q 570 1008 570 1069 q 525 904 570 946 q 413 862 479 862 q 304 902 347 862 q 262 1003 262 942 m 332 1006 q 413 926 332 926 q 473 949 449 926 q 496 1006 496 972 q 473 1065 496 1042 q 413 1088 450 1088 q 355 1064 378 1088 q 332 1006 332 1040 z "},"Ÿ":{"ha":838,"x_min":12,"x_max":831,"o":"m 831 1050 l 485 387 l 485 0 l 349 0 l 349 383 l 12 1050 l 167 1050 l 394 585 q 419 518 395 585 l 421 518 q 449 585 429 547 l 686 1050 l 831 1050 m 487 1219 q 509 1273 487 1252 q 562 1295 531 1295 q 617 1273 595 1295 q 640 1219 640 1251 q 617 1165 640 1187 q 564 1143 595 1143 q 510 1165 532 1143 q 487 1219 487 1187 m 197 1219 q 219 1273 197 1251 q 274 1295 241 1295 q 329 1273 306 1295 q 352 1219 352 1251 q 330 1166 352 1188 q 276 1143 307 1143 q 221 1165 245 1143 q 197 1219 197 1187 z "},"Ź":{"ha":861,"x_min":25,"x_max":829,"o":"m 829 1010 l 224 120 l 816 120 l 816 0 l 25 0 l 25 46 l 627 930 l 73 930 l 73 1050 l 829 1050 l 829 1010 m 642 1385 l 446 1145 l 345 1145 l 511 1385 l 642 1385 z "},"ź":{"ha":683,"x_min":24,"x_max":649,"o":"m 646 0 l 24 0 l 24 44 l 460 640 l 64 640 l 64 750 l 649 750 l 649 707 l 216 110 l 646 110 l 646 0 m 536 1129 l 340 889 l 238 889 l 405 1129 l 536 1129 z "},"Ż":{"ha":861,"x_min":25,"x_max":829,"o":"m 829 1010 l 224 120 l 816 120 l 816 0 l 25 0 l 25 46 l 627 930 l 73 930 l 73 1050 l 829 1050 l 829 1010 m 363 1220 q 385 1272 363 1251 q 439 1294 407 1294 q 494 1273 472 1294 q 515 1220 515 1253 q 493 1166 515 1188 q 439 1144 471 1144 q 385 1166 407 1144 q 363 1220 363 1189 z "},"ż":{"ha":683,"x_min":24,"x_max":649,"o":"m 646 0 l 24 0 l 24 44 l 460 640 l 64 640 l 64 750 l 649 750 l 649 707 l 216 110 l 646 110 l 646 0 m 283 965 q 306 1017 283 996 q 360 1039 328 1039 q 414 1018 393 1039 q 436 965 436 998 q 414 911 436 933 q 360 889 391 889 q 306 911 328 889 q 283 965 283 934 z "},"Ž":{"ha":861,"x_min":25,"x_max":829,"o":"m 829 1010 l 224 120 l 816 120 l 816 0 l 25 0 l 25 46 l 627 930 l 73 930 l 73 1050 l 829 1050 l 829 1010 m 654 1385 l 496 1143 l 389 1143 l 230 1385 l 321 1385 l 440 1221 l 560 1385 l 654 1385 z "},"ž":{"ha":683,"x_min":24,"x_max":649,"o":"m 646 0 l 24 0 l 24 44 l 460 640 l 64 640 l 64 750 l 649 750 l 649 707 l 216 110 l 646 110 l 646 0 m 580 1131 l 421 889 l 315 889 l 155 1131 l 247 1131 l 366 966 l 486 1131 l 580 1131 z "},"λ":{"ha":756,"x_min":-1,"x_max":735,"o":"m 735 0 l 593 0 l 395 596 l 144 0 l -1 0 l 337 744 l 290 881 q 176 992 252 992 q 85 977 138 992 l 85 1101 q 186 1111 134 1111 q 327 1062 278 1111 q 423 883 376 1013 l 735 0 z "},"Ỳ":{"ha":838,"x_min":12,"x_max":831,"o":"m 831 1050 l 485 387 l 485 0 l 349 0 l 349 383 l 12 1050 l 167 1050 l 394 585 q 419 518 395 585 l 421 518 q 449 585 429 547 l 686 1050 l 831 1050 m 536 1144 l 435 1144 l 239 1384 l 371 1384 l 536 1144 z "},"ỳ":{"ha":735,"x_min":9,"x_max":729,"o":"m 729 750 l 389 -113 q 121 -353 294 -353 q 36 -342 71 -353 l 36 -226 q 111 -241 75 -241 q 245 -135 201 -241 l 303 1 l 9 750 l 156 750 l 352 186 l 368 125 l 372 125 q 388 185 376 146 l 593 750 l 729 750 m 471 889 l 370 889 l 174 1129 l 307 1129 l 471 889 z "},"–":{"ha":750,"x_min":0,"x_max":750,"o":"m 750 365 l 0 365 l 0 467 l 750 467 l 750 365 z "},"—":{"ha":1500,"x_min":0,"x_max":1500,"o":"m 1500 365 l 0 365 l 0 467 l 1500 467 l 1500 365 z "},"‘":{"ha":1389,"x_min":1109,"x_max":1308,"o":"m 1308 1069 l 1229 742 l 1109 742 l 1216 1069 l 1308 1069 z "},"’":{"ha":1389,"x_min":81,"x_max":280,"o":"m 280 1069 l 173 742 l 81 742 l 160 1069 l 280 1069 z "},"“":{"ha":1389,"x_min":877,"x_max":1308,"o":"m 1308 1069 l 1229 742 l 1109 742 l 1216 1069 l 1308 1069 m 1076 1069 l 997 742 l 877 742 l 984 1069 l 1076 1069 z "},"”":{"ha":1389,"x_min":81,"x_max":513,"o":"m 513 1069 l 406 742 l 314 742 l 393 1069 l 513 1069 m 280 1069 l 173 742 l 81 742 l 160 1069 l 280 1069 z "},"…":{"ha":1130,"x_min":102,"x_max":1029,"o":"m 856 71 q 882 133 856 108 q 942 159 907 159 q 1003 133 978 159 q 1029 71 1029 106 q 1004 11 1029 36 q 942 -14 979 -14 q 880 12 905 -14 q 856 71 856 37 m 477 71 q 503 133 477 108 q 565 159 528 159 q 626 133 600 159 q 651 71 651 106 q 626 11 651 36 q 564 -14 601 -14 q 503 11 528 -14 q 477 71 477 36 m 102 71 q 126 133 102 108 q 187 159 151 159 q 248 133 222 159 q 274 71 274 107 q 249 11 274 36 q 186 -14 224 -14 q 126 11 151 -14 q 102 71 102 35 z "},"※":{"ha":1169,"x_min":40,"x_max":1129,"o":"m 1129 1009 l 644 525 l 1129 41 l 1069 -20 l 585 465 l 100 -18 l 40 42 l 525 525 l 40 1008 l 100 1068 l 585 585 l 1069 1069 l 1129 1009 m 585 976 q 646 949 620 976 q 673 888 673 923 q 646 826 673 852 q 585 800 620 800 q 523 826 549 800 q 496 888 496 852 q 523 949 496 923 q 585 976 549 976 m 1036 525 q 1009 463 1036 490 q 947 437 983 437 q 886 463 912 437 q 859 525 859 490 q 886 587 859 560 q 947 613 912 613 q 1009 587 983 613 q 1036 525 1036 560 m 311 525 q 284 463 311 490 q 222 437 258 437 q 161 463 187 437 q 134 525 134 490 q 161 587 134 560 q 222 613 187 613 q 284 587 258 613 q 311 525 311 560 m 585 251 q 646 224 620 251 q 673 163 673 198 q 646 101 673 127 q 585 75 620 75 q 523 101 549 75 q 496 163 496 127 q 523 224 496 198 q 585 251 549 251 z "},"−":{"ha":1030,"x_min":171,"x_max":862,"o":"m 862 385 l 171 385 l 171 488 l 862 488 l 862 385 z "},"○":{"ha":839,"x_min":121,"x_max":718,"o":"m 420 690 q 566 652 494 690 q 678 541 638 613 q 718 392 718 469 q 631 180 718 268 q 420 93 543 93 q 208 180 296 93 q 121 392 121 268 q 161 542 121 470 q 273 652 201 613 q 420 690 345 690 m 420 639 q 298 607 357 639 q 205 515 239 575 q 172 392 172 456 q 245 217 172 290 q 420 144 317 144 q 594 217 522 144 q 667 392 667 290 q 633 515 667 456 q 541 607 600 575 q 420 639 482 639 z "},"★":{"ha":1133,"x_min":52,"x_max":1082,"o":"m 679 614 l 937 635 q 1048 644 1045 644 q 1082 615 1082 644 q 1075 597 1082 604 q 971 529 1068 591 l 754 390 l 893 41 q 896 25 896 36 q 888 7 896 15 q 872 0 881 0 q 855 6 864 0 q 760 86 846 12 l 567 253 l 377 89 q 279 6 288 12 q 262 0 271 0 q 245 8 253 0 q 237 25 237 16 q 276 128 237 31 l 379 390 l 158 532 q 58 597 64 591 q 52 615 52 604 q 86 645 52 645 q 181 637 89 645 l 454 614 l 516 876 q 546 989 540 979 q 567 999 551 999 q 589 988 583 999 q 620 866 594 977 l 679 614 z "},"！":{"ha":1389,"x_min":607,"x_max":782,"o":"m 761 1050 l 746 298 l 639 298 l 624 1050 l 761 1050 m 694 155 q 756 130 730 155 q 782 69 782 105 q 756 8 782 33 q 694 -17 730 -17 q 633 8 659 -17 q 607 69 607 33 q 633 130 607 105 q 694 155 659 155 z "},"（":{"ha":1389,"x_min":558,"x_max":917,"o":"m 800 -239 q 558 401 558 26 q 800 1050 558 782 l 917 1050 q 676 403 676 775 q 916 -239 676 36 l 800 -239 z "},"）":{"ha":1389,"x_min":472,"x_max":829,"o":"m 589 -239 l 472 -239 q 713 410 713 35 q 473 1050 713 777 l 589 1050 q 829 410 829 787 q 589 -239 829 28 z "},"，":{"ha":1389,"x_min":557,"x_max":766,"o":"m 766 168 l 652 -193 l 557 -193 l 640 168 l 766 168 z "},"．":{"ha":1389,"x_min":608,"x_max":783,"o":"m 696 155 q 758 130 732 155 q 783 69 783 105 q 758 8 783 33 q 696 -17 732 -17 q 634 8 660 -17 q 608 69 608 33 q 634 130 608 105 q 696 155 660 155 z "},"：":{"ha":1389,"x_min":608,"x_max":783,"o":"m 696 766 q 758 741 732 766 q 783 681 783 716 q 758 620 783 646 q 696 595 733 595 q 633 620 659 595 q 608 681 608 646 q 634 741 608 716 q 696 766 660 766 m 696 155 q 758 130 732 155 q 783 69 783 105 q 758 8 783 33 q 696 -17 732 -17 q 634 8 660 -17 q 608 69 608 33 q 634 130 608 105 q 696 155 660 155 z "},"；":{"ha":1389,"x_min":557,"x_max":783,"o":"m 696 766 q 758 741 732 766 q 783 681 783 716 q 758 620 783 646 q 696 595 733 595 q 633 620 659 595 q 608 681 608 646 q 634 741 608 716 q 696 766 660 766 m 766 168 l 652 -193 l 557 -193 l 640 168 l 766 168 z "},"？":{"ha":1389,"x_min":461,"x_max":997,"o":"m 721 297 l 603 297 l 603 355 q 631 478 603 427 q 733 586 660 529 q 836 690 805 642 q 867 802 867 739 q 819 912 867 869 q 689 956 771 956 q 461 857 559 956 l 461 996 q 708 1067 575 1067 q 919 997 840 1067 q 997 815 997 928 q 960 672 997 736 q 838 536 924 608 q 745 445 768 479 q 721 350 721 411 l 721 297 m 661 155 q 723 130 697 155 q 749 69 749 105 q 723 8 749 33 q 661 -17 697 -17 q 601 7 627 -17 q 575 69 575 32 q 601 131 575 106 q 661 155 626 155 z "},"｛":{"ha":1389,"x_min":526,"x_max":873,"o":"m 873 -239 q 698 -183 755 -238 q 640 -8 640 -129 l 640 208 q 526 359 640 357 l 526 452 q 640 607 640 456 l 640 817 q 873 1050 640 1048 l 873 953 q 755 808 755 952 l 755 600 q 647 408 755 444 l 647 406 q 755 214 755 370 l 755 8 q 782 -107 755 -72 q 873 -143 809 -142 l 873 -239 z "},"｝":{"ha":1389,"x_min":515,"x_max":861,"o":"m 861 359 q 749 208 749 357 l 749 -8 q 515 -239 749 -238 l 515 -143 q 605 -107 578 -142 q 632 8 632 -72 l 632 215 q 742 406 632 368 l 742 408 q 632 602 632 444 l 632 808 q 515 953 632 952 l 515 1050 q 749 817 749 1048 l 749 606 q 861 452 749 456 l 861 359 z "},"ī":{"ha":370,"x_min":-7,"x_max":376,"o":"m 118 0 l 118 750 l 251 750 l 251 0 l 118 0 m 376 888 l -7 888 l -7 975 l 376 975 l 376 888 z "},"Ł":{"ha":713,"x_min":22,"x_max":690,"o":"m 690 0 l 136 0 l 136 394 l 22 324 l 22 444 l 136 514 l 136 1050 l 271 1050 l 271 595 l 509 739 l 509 617 l 271 475 l 271 120 l 690 120 l 690 0 z "},"ł":{"ha":370,"x_min":18,"x_max":356,"o":"m 251 0 l 117 0 l 117 396 l 18 327 l 18 450 l 117 519 l 117 1110 l 251 1110 l 251 609 l 356 682 l 356 558 l 251 486 l 251 0 z "},"Ń":{"ha":1129,"x_min":136,"x_max":994,"o":"m 994 0 l 833 0 l 304 817 q 269 886 282 852 l 264 886 q 270 739 270 850 l 270 0 l 136 0 l 136 1050 l 306 1050 l 820 248 q 863 175 857 191 l 866 175 q 859 328 859 220 l 859 1050 l 994 1050 l 994 0 m 743 1384 l 547 1144 l 446 1144 l 612 1384 l 743 1384 z "},"ǎ":{"ha":768,"x_min":63,"x_max":666,"o":"m 136 698 q 395 768 248 768 q 666 483 666 768 l 666 0 l 534 0 l 534 116 l 531 116 q 301 -18 453 -18 q 127 41 192 -18 q 63 201 63 100 q 312 446 63 411 l 534 477 q 382 661 534 661 q 136 570 248 661 l 136 698 m 359 353 q 232 307 267 340 q 197 212 197 273 q 235 124 197 158 q 335 90 273 90 q 478 151 422 90 q 534 304 534 212 l 534 376 l 359 353 m 609 1131 l 450 889 l 344 889 l 184 1131 l 276 1131 l 395 966 l 515 1131 l 609 1131 z "},"ǐ":{"ha":370,"x_min":-26,"x_max":399,"o":"m 118 0 l 118 750 l 251 750 l 251 0 l 118 0 m 399 1131 l 240 889 l 134 889 l -26 1131 l 66 1131 l 184 966 l 304 1131 l 399 1131 z "},"ǒ":{"ha":883,"x_min":68,"x_max":814,"o":"m 68 367 q 172 660 68 553 q 454 768 276 768 q 719 664 623 768 q 814 378 814 561 q 712 92 814 201 q 437 -18 610 -18 q 169 88 269 -18 q 68 367 68 194 m 204 371 q 270 167 204 241 q 446 92 335 92 q 619 165 559 92 q 679 374 679 238 q 619 585 679 511 q 446 658 559 658 q 269 581 334 658 q 204 371 204 505 m 663 1131 l 505 889 l 398 889 l 239 1131 l 330 1131 l 449 966 l 569 1131 l 663 1131 z "},"ǔ":{"ha":856,"x_min":104,"x_max":738,"o":"m 738 0 l 604 0 l 604 118 l 602 118 q 370 -18 526 -18 q 104 301 104 -18 l 104 750 l 235 750 l 235 321 q 410 92 235 92 q 551 156 497 92 q 604 318 604 220 l 604 750 l 738 750 l 738 0 m 630 1131 l 471 889 l 365 889 l 205 1131 l 297 1131 l 416 966 l 536 1131 l 630 1131 z "},"ǚ":{"ha":856,"x_min":104,"x_max":738,"o":"m 738 0 l 604 0 l 604 118 l 602 118 q 370 -18 526 -18 q 104 301 104 -18 l 104 750 l 235 750 l 235 321 q 410 92 235 92 q 551 156 497 92 q 604 318 604 220 l 604 750 l 738 750 l 738 0 m 490 965 q 512 1019 490 998 q 565 1040 534 1040 q 620 1019 597 1040 q 643 965 643 997 q 620 911 643 932 q 566 889 597 889 q 512 911 535 889 q 490 965 490 933 m 200 965 q 222 1019 200 997 q 277 1040 244 1040 q 332 1018 309 1040 q 355 965 355 996 q 332 911 355 934 q 279 889 310 889 q 224 911 248 889 q 200 965 200 933 m 629 1402 l 471 1160 l 364 1160 l 205 1402 l 296 1402 l 415 1238 l 535 1402 l 629 1402 z "},"Ș":{"ha":802,"x_min":87,"x_max":732,"o":"m 87 197 q 216 128 135 155 q 369 101 296 101 q 590 258 590 101 q 566 338 590 302 q 501 400 543 373 q 346 484 460 427 q 138 630 188 562 q 87 784 87 697 q 193 991 87 915 q 458 1068 298 1068 q 688 1030 614 1068 l 688 882 q 448 948 593 948 q 291 908 351 948 q 230 795 230 867 q 272 692 230 732 q 454 583 314 652 q 671 435 609 509 q 732 269 732 361 q 632 56 732 130 q 353 -18 532 -18 q 208 0 291 -18 q 87 43 125 17 l 87 197 m 387 -87 l 265 -285 l 170 -285 l 253 -87 l 387 -87 z "},"ș":{"ha":643,"x_min":77,"x_max":583,"o":"m 77 162 q 293 90 177 90 q 448 191 448 90 q 414 263 448 235 q 277 330 380 291 q 115 429 152 380 q 77 548 77 478 q 162 708 77 648 q 370 768 246 768 q 547 734 465 768 l 547 606 q 357 661 463 661 q 253 633 293 661 q 213 559 213 605 q 242 490 213 515 q 370 425 271 465 q 539 328 495 378 q 583 204 583 278 q 499 42 583 101 q 280 -18 414 -18 q 77 26 163 -18 l 77 162 m 387 -87 l 265 -285 l 170 -285 l 253 -87 l 387 -87 z "},"丁":{"ha":1389,"x_min":41,"x_max":1348,"o":"m 41 1040 l 1348 1040 l 1348 934 l 812 934 l 812 50 q 604 -151 812 -150 q 343 -149 507 -151 q 320 -17 336 -96 q 567 -29 441 -28 q 692 93 692 -35 l 692 934 l 41 934 l 41 1040 z "},"七":{"ha":1389,"x_min":35,"x_max":1351,"o":"m 35 631 l 502 682 l 502 1144 l 624 1144 l 624 696 l 1341 775 l 1351 665 l 624 583 l 624 100 q 761 -25 624 -25 l 1028 -25 q 1188 60 1173 -25 q 1218 275 1206 155 q 1336 229 1270 252 q 1293 2 1314 87 q 1067 -139 1256 -139 l 731 -139 q 502 73 502 -139 l 502 570 l 46 519 l 35 631 z "},"万":{"ha":1389,"x_min":24,"x_max":1348,"o":"m 41 1042 l 1348 1042 l 1348 938 l 572 938 q 557 654 566 787 l 1187 654 q 1156 130 1173 378 q 1086 -87 1143 -21 q 890 -150 1032 -149 q 637 -139 815 -153 q 617 -14 631 -87 q 880 -37 789 -37 q 1040 146 1025 -48 q 1065 551 1057 336 l 549 551 q 104 -186 498 55 q 24 -90 73 -144 q 433 602 406 142 q 450 938 446 750 l 41 938 l 41 1042 z "},"三":{"ha":1389,"x_min":41,"x_max":1351,"o":"m 125 1018 l 1261 1018 l 1261 901 l 125 901 l 125 1018 m 41 36 l 1351 36 l 1351 -78 l 41 -78 l 41 36 m 186 553 l 1200 553 l 1200 437 l 186 437 l 186 553 z "},"上":{"ha":1389,"x_min":35,"x_max":1355,"o":"m 35 10 l 567 10 l 567 1131 l 690 1131 l 690 722 l 1248 722 l 1248 614 l 690 614 l 690 10 l 1355 10 l 1355 -98 l 35 -98 l 35 10 z "},"下":{"ha":1389,"x_min":35,"x_max":1354,"o":"m 35 1042 l 1354 1042 l 1354 931 l 694 931 l 694 635 l 757 722 q 1278 393 1067 539 l 1198 283 q 694 623 987 444 l 694 -173 l 571 -173 l 571 931 l 35 931 l 35 1042 z "},"不":{"ha":1389,"x_min":8,"x_max":1373,"o":"m 49 1036 l 1341 1036 l 1341 930 l 842 930 q 669 663 777 817 l 747 663 l 747 -188 l 631 -188 l 631 621 q 84 132 399 334 q 8 230 50 181 q 697 930 435 497 l 49 930 l 49 1036 m 883 621 q 1373 306 1137 466 l 1295 199 q 817 528 1016 406 l 883 621 z "},"与":{"ha":1389,"x_min":23,"x_max":1360,"o":"m 252 517 l 252 621 l 307 1156 l 419 1156 l 398 941 l 1360 941 l 1360 838 l 389 838 l 368 621 l 1261 621 q 1225 90 1245 336 q 1142 -104 1206 -54 q 938 -153 1081 -153 q 629 -147 804 -151 q 606 -29 621 -101 q 914 -45 812 -44 q 1112 97 1096 -58 q 1142 517 1130 277 l 252 517 m 23 306 l 1028 306 l 1028 203 l 23 203 l 23 306 z "},"专":{"ha":1389,"x_min":34,"x_max":1364,"o":"m 357 226 q 745 47 536 146 l 1051 313 l 292 313 l 292 413 l 357 581 l 34 581 l 34 684 l 398 684 l 471 870 l 117 870 l 117 973 l 512 973 l 583 1154 l 707 1154 l 635 973 l 1278 973 l 1278 870 l 595 870 l 522 684 l 1364 684 l 1364 581 l 481 581 l 415 414 l 1206 414 l 1206 309 l 845 0 q 1032 -90 936 -43 l 966 -193 q 300 135 625 -14 l 357 226 z "},"且":{"ha":1389,"x_min":20,"x_max":1364,"o":"m 20 -6 l 208 -6 l 208 1074 l 1180 1074 l 1180 -6 l 1364 -6 l 1364 -106 l 20 -106 l 20 -6 m 316 -6 l 1072 -6 l 1072 260 l 316 260 l 316 -6 m 316 355 l 1072 355 l 1072 616 l 316 616 l 316 355 m 1072 973 l 316 973 l 316 711 l 1072 711 l 1072 973 z "},"世":{"ha":1389,"x_min":37,"x_max":1351,"o":"m 582 1137 l 688 1137 l 688 802 l 1047 802 l 1047 1137 l 1153 1137 l 1153 802 l 1351 802 l 1351 699 l 1153 699 l 1153 157 l 1047 157 l 1047 245 l 688 245 l 688 147 l 582 147 l 582 699 l 323 699 l 323 -20 l 1318 -20 l 1318 -123 l 214 -123 l 214 699 l 37 699 l 37 802 l 214 802 l 214 1076 l 323 1076 l 323 802 l 582 802 l 582 1137 m 688 345 l 1047 345 l 1047 699 l 688 699 l 688 345 z "},"丘":{"ha":1389,"x_min":35,"x_max":1352,"o":"m 35 26 l 255 26 l 255 1038 q 1172 1112 765 1057 l 1217 1006 q 363 938 808 962 l 363 634 l 1286 634 l 1286 531 l 963 531 l 963 26 l 1352 26 l 1352 -74 l 35 -74 l 35 26 m 363 26 l 854 26 l 854 531 l 363 531 l 363 26 z "},"业":{"ha":1389,"x_min":26,"x_max":1366,"o":"m 26 10 l 461 10 l 461 1131 l 575 1131 l 575 10 l 812 10 l 812 1131 l 926 1131 l 926 10 l 1366 10 l 1366 -90 l 26 -90 l 26 10 m 183 865 q 399 309 294 603 l 288 258 q 84 821 197 545 l 183 865 m 975 296 q 1203 852 1111 584 l 1313 809 q 1073 252 1187 485 l 975 296 z "},"丛":{"ha":1389,"x_min":41,"x_max":1356,"o":"m 875 1137 l 985 1137 q 980 836 985 1027 q 1356 139 1058 317 q 1268 35 1301 78 q 941 568 1031 204 q 582 7 869 239 q 503 94 545 54 q 872 855 864 364 q 875 1137 875 988 m 363 1139 l 471 1139 q 441 647 474 848 q 693 408 595 507 l 609 322 q 416 528 514 431 q 136 21 346 264 q 60 104 107 56 q 307 535 245 321 q 363 1139 374 752 m 41 -12 l 1356 -12 l 1356 -109 l 41 -109 l 41 -12 z "},"东":{"ha":1389,"x_min":12,"x_max":1381,"o":"m 153 409 l 153 512 l 309 873 l 42 873 l 42 976 l 353 976 l 433 1162 l 549 1137 l 479 976 l 1347 976 l 1347 873 l 434 873 l 277 512 l 685 512 l 685 809 l 799 809 l 799 512 l 1283 512 l 1283 409 l 799 409 l 799 9 q 623 -161 799 -161 q 419 -159 533 -161 q 399 -37 411 -106 q 591 -50 488 -49 q 685 47 685 -50 l 685 409 l 153 409 m 351 328 l 442 258 q 90 -116 288 77 q 12 -40 54 -78 q 351 328 193 131 m 930 237 l 1006 311 q 1381 -13 1194 157 l 1297 -98 q 930 237 1111 85 z "},"丝":{"ha":1389,"x_min":34,"x_max":1355,"o":"m 1298 227 q 837 186 1055 210 q 742 169 789 181 l 700 288 q 802 357 768 318 q 980 591 898 473 q 779 574 849 583 q 678 555 743 570 l 628 656 q 716 721 678 677 q 964 1145 842 881 l 1073 1101 q 807 676 930 850 q 1042 683 906 678 q 1169 899 1111 789 l 1278 846 q 878 291 1076 528 q 1299 322 1095 306 q 1298 227 1298 273 m 613 223 q 237 185 426 208 q 142 168 193 180 l 99 286 q 194 347 159 306 q 385 608 290 463 q 195 593 281 602 q 95 574 146 588 l 45 675 q 133 740 95 694 q 372 1156 263 920 l 481 1113 q 224 695 349 876 q 445 705 330 699 q 560 904 503 799 l 666 851 q 277 288 486 561 q 614 318 439 300 q 613 223 613 276 m 34 -12 l 1355 -12 l 1355 -109 l 34 -109 l 34 -12 z "},"丢":{"ha":1389,"x_min":37,"x_max":1354,"o":"m 916 258 q 1282 -117 1101 86 l 1184 -188 q 1090 -76 1141 -134 q 302 -117 641 -92 q 186 -139 263 -121 l 130 -32 q 258 36 202 -3 q 519 314 392 145 l 37 314 l 37 410 l 637 410 l 637 633 l 125 633 l 125 729 l 637 729 l 637 958 q 144 941 404 949 q 122 1045 134 992 q 1238 1094 753 1060 l 1255 989 q 753 964 1023 975 l 753 729 l 1264 729 l 1264 633 l 753 633 l 753 410 l 1354 410 l 1354 314 l 665 314 q 358 -9 518 139 q 1011 13 511 -5 q 834 197 930 101 l 916 258 z "},"两":{"ha":1389,"x_min":35,"x_max":1354,"o":"m 35 1083 l 1354 1083 l 1354 984 l 939 984 q 937 802 939 886 l 1271 802 l 1271 1 q 1115 -155 1271 -155 q 907 -153 1042 -155 q 888 -47 901 -105 q 1084 -56 1017 -56 q 1169 26 1169 -56 l 1169 705 l 932 705 q 905 464 926 572 q 1156 210 1055 326 l 1085 134 q 876 364 981 259 q 662 32 810 181 q 578 105 632 66 q 834 705 834 338 l 551 705 q 530 503 544 562 q 713 348 642 412 l 654 258 q 505 406 581 334 q 300 73 444 222 q 221 150 267 109 q 452 705 446 359 l 217 705 l 217 -162 l 115 -162 l 115 802 l 456 802 q 458 984 459 888 l 35 984 l 35 1083 m 555 802 l 838 802 q 840 984 841 888 l 557 984 q 555 802 557 886 z "},"严":{"ha":1389,"x_min":16,"x_max":1351,"o":"m 264 439 q 94 -178 264 47 q 16 -85 58 -132 q 152 420 152 102 l 152 607 l 496 607 l 496 981 l 52 981 l 52 1082 l 1351 1082 l 1351 981 l 920 981 l 920 607 l 1348 607 l 1348 507 l 264 507 l 264 439 m 608 607 l 808 607 l 808 981 l 608 981 l 608 607 m 994 720 q 1176 941 1096 831 l 1268 873 q 1073 654 1143 722 l 994 720 m 159 886 l 240 943 q 407 734 343 831 l 315 667 q 159 886 243 779 z "},"丧":{"ha":1389,"x_min":34,"x_max":1375,"o":"m 708 101 q 709 -24 708 41 q 339 -162 545 -79 q 288 -189 320 -172 l 220 -82 q 262 -2 262 -51 l 262 459 l 34 459 l 34 553 l 642 553 l 642 918 l 76 918 l 76 1011 l 642 1011 l 642 1163 l 750 1163 l 750 1011 l 1317 1011 l 1317 918 l 750 918 l 750 553 l 1355 553 l 1355 459 l 654 459 q 833 208 720 313 q 1185 406 1029 308 l 1257 310 q 916 139 1097 226 q 1375 -44 1099 7 q 1298 -158 1329 -108 q 544 459 726 -12 l 370 459 l 370 -26 q 708 101 545 36 m 888 654 q 1118 895 1012 771 l 1208 817 q 967 581 1074 677 l 888 654 m 186 828 l 264 892 q 484 661 365 794 l 393 584 q 186 828 281 724 z "},"个":{"ha":1389,"x_min":18,"x_max":1371,"o":"m 632 657 l 755 657 l 755 -182 l 632 -182 l 632 657 m 781 1124 l 761 1093 q 1371 574 981 730 q 1299 452 1329 508 q 696 991 901 661 q 87 433 495 677 q 18 541 57 482 q 647 1124 441 775 l 781 1124 z "},"中":{"ha":1389,"x_min":114,"x_max":1280,"o":"m 114 862 l 636 862 l 636 1158 l 753 1158 l 753 862 l 1280 862 l 1280 243 l 1169 243 l 1169 317 l 753 317 l 753 -188 l 636 -188 l 636 317 l 225 317 l 225 243 l 114 243 l 114 862 m 1169 762 l 753 762 l 753 417 l 1169 417 l 1169 762 m 225 417 l 636 417 l 636 762 l 225 762 l 225 417 z "},"丰":{"ha":1389,"x_min":34,"x_max":1355,"o":"m 34 288 l 637 288 l 637 513 l 161 513 l 161 614 l 637 614 l 637 836 l 75 836 l 75 937 l 637 937 l 637 1155 l 751 1155 l 751 937 l 1314 937 l 1314 836 l 751 836 l 751 614 l 1226 614 l 1226 513 l 751 513 l 751 288 l 1355 288 l 1355 188 l 751 188 l 751 -185 l 637 -185 l 637 188 l 34 188 l 34 288 z "},"临":{"ha":1389,"x_min":87,"x_max":1362,"o":"m 582 536 l 1303 536 l 1303 -170 l 1199 -170 l 1199 -82 l 686 -82 l 686 -170 l 582 -170 l 582 536 m 330 1145 l 437 1145 l 437 -177 l 330 -177 l 330 1145 m 473 671 q 747 1162 648 904 l 849 1128 q 775 962 814 1042 l 1362 962 l 1362 862 l 724 862 q 555 593 646 718 q 473 671 529 623 m 87 1017 l 194 1017 l 194 -50 l 87 -50 l 87 1017 m 1199 439 l 994 439 l 994 13 l 1199 13 l 1199 439 m 686 13 l 890 13 l 890 439 l 686 439 l 686 13 m 880 835 q 1099 648 996 745 l 1020 566 q 810 766 907 687 l 880 835 z "},"丸":{"ha":1389,"x_min":22,"x_max":1370,"o":"m 134 625 q 429 458 289 538 q 456 785 452 554 l 60 785 l 60 889 l 460 889 q 464 1148 463 1011 l 579 1148 q 572 889 576 1007 l 1010 889 l 1010 54 q 1086 -39 1005 -39 l 1141 -39 q 1234 41 1222 -39 q 1256 268 1245 112 q 1370 226 1309 246 q 1343 7 1359 112 q 1153 -143 1324 -143 l 1066 -143 q 897 45 887 -143 l 897 785 l 568 785 q 532 398 562 503 q 773 257 659 325 l 711 155 q 499 290 606 223 q 109 -180 393 -1 q 22 -90 75 -138 q 399 352 302 82 q 79 539 241 447 l 134 625 z "},"丹":{"ha":1389,"x_min":20,"x_max":1369,"o":"m 20 507 l 259 507 l 259 1101 l 1145 1101 l 1145 507 l 1369 507 l 1369 404 l 1145 404 l 1145 -6 q 987 -170 1145 -170 q 773 -165 899 -170 q 753 -50 766 -119 q 949 -59 871 -59 q 1031 29 1031 -59 l 1031 404 l 366 404 q 155 -196 335 8 q 61 -115 114 -155 q 251 404 220 43 l 20 404 l 20 507 m 373 999 l 373 507 l 1031 507 l 1031 999 l 373 999 m 543 850 l 627 918 q 840 684 728 814 l 746 608 q 543 850 662 722 z "},"为":{"ha":1389,"x_min":49,"x_max":1280,"o":"m 77 800 l 587 800 q 606 1159 606 966 l 723 1159 q 704 800 723 958 l 1280 800 q 1256 108 1272 380 q 987 -146 1242 -146 q 736 -139 882 -146 q 716 -13 731 -86 q 967 -31 844 -31 q 1138 130 1130 -31 q 1162 694 1157 395 l 689 694 q 132 -196 589 96 q 49 -96 94 -149 q 570 694 471 153 l 77 694 l 77 800 m 722 450 l 796 516 q 1032 279 926 395 l 948 203 q 722 450 844 326 m 174 1068 l 247 1136 q 464 935 359 1038 l 381 858 q 174 1068 281 968 z "},"主":{"ha":1389,"x_min":33,"x_max":1356,"o":"m 33 2 l 636 2 l 636 393 l 140 393 l 140 496 l 636 496 l 636 805 l 87 805 l 87 908 l 1297 908 l 1297 805 l 753 805 l 753 496 l 1249 496 l 1249 393 l 753 393 l 753 2 l 1356 2 l 1356 -98 l 33 -98 l 33 2 m 585 1109 l 685 1160 q 804 969 768 1037 l 697 912 q 585 1109 624 1048 z "},"举":{"ha":1389,"x_min":9,"x_max":1379,"o":"m 90 189 l 640 189 l 640 374 l 339 374 l 339 473 l 640 473 l 640 659 l 749 659 l 749 473 l 1046 473 l 1046 374 l 749 374 l 749 189 l 1299 189 l 1299 90 l 749 90 l 749 -188 l 640 -188 l 640 90 l 90 90 l 90 189 m 43 821 l 1351 821 l 1351 722 l 964 722 q 1379 421 1108 511 q 1290 319 1336 375 q 859 722 994 459 l 534 722 q 85 298 397 479 q 9 391 54 338 q 412 722 281 517 l 43 722 l 43 821 m 918 899 q 1097 1155 1013 1011 l 1202 1094 q 1005 835 1112 964 l 918 899 m 551 1105 l 639 1156 q 792 935 715 1056 l 694 880 q 551 1105 631 991 m 182 1065 l 262 1124 q 427 926 358 1015 l 335 861 q 182 1065 259 972 z "},"久":{"ha":1389,"x_min":19,"x_max":1371,"o":"m 448 1147 l 557 1113 q 494 956 528 1030 l 977 956 l 977 852 q 831 475 930 650 q 1371 -62 1006 87 q 1274 -169 1320 -115 q 768 374 935 12 q 100 -180 539 41 q 19 -79 71 -138 q 859 852 705 246 l 444 852 q 182 496 331 636 q 98 576 140 541 q 448 1147 328 794 z "},"么":{"ha":1389,"x_min":15,"x_max":1359,"o":"m 1012 428 q 1359 -96 1195 169 l 1251 -163 q 1178 -43 1214 -102 q 370 -94 534 -80 q 199 -119 263 -104 l 144 1 q 304 108 227 35 q 925 899 658 466 l 1043 839 q 377 21 732 375 q 1116 57 630 31 q 916 368 1012 224 l 1012 428 m 15 439 q 642 1155 392 730 l 753 1099 q 99 349 480 638 q 15 439 65 391 z "},"义":{"ha":1389,"x_min":22,"x_max":1373,"o":"m 1057 1061 l 1173 1040 q 782 210 1083 519 q 1373 -43 990 45 q 1278 -161 1314 -112 q 695 129 892 -35 q 96 -177 494 -36 q 22 -71 66 -127 q 613 206 420 47 q 208 1021 337 486 l 313 1061 q 697 286 430 559 q 1057 1061 996 597 m 543 1113 l 642 1160 q 814 838 745 987 l 708 781 q 543 1113 625 964 z "},"之":{"ha":1389,"x_min":11,"x_max":1370,"o":"m 117 897 l 1229 897 l 1229 795 q 377 116 866 415 q 769 -26 513 -16 q 1370 -19 1092 -32 q 1326 -135 1337 -98 q 724 -130 1187 -135 q 271 67 438 -119 q 241 68 258 83 q 71 -112 149 -17 l 11 1 q 183 153 115 102 q 273 181 229 185 q 1070 797 739 466 l 117 797 l 117 897 m 575 1109 l 675 1159 q 800 964 731 1079 l 694 907 q 575 1109 637 1010 z "},"乌":{"ha":1389,"x_min":26,"x_max":1278,"o":"m 1135 1008 q 1118 768 1128 878 q 1059 618 1105 656 q 894 578 1013 578 q 727 583 845 578 q 697 695 716 642 q 888 682 810 683 q 1012 777 1001 675 q 1023 913 1020 850 l 345 913 l 345 485 l 1278 485 q 1259 93 1270 233 q 1187 -105 1245 -52 q 985 -158 1130 -158 q 739 -153 884 -158 q 711 -28 730 -93 q 979 -44 860 -44 q 1103 -14 1069 -44 q 1147 100 1138 14 q 1162 390 1158 218 l 233 390 l 233 1008 l 527 1008 q 581 1162 560 1088 l 694 1133 q 638 1008 672 1080 l 1135 1008 m 26 224 l 1028 224 l 1028 130 l 26 130 l 26 224 z "},"乍":{"ha":1389,"x_min":23,"x_max":1340,"o":"m 385 1158 l 496 1128 q 435 979 468 1050 l 1340 979 l 1340 876 l 669 876 l 669 640 l 1240 640 l 1240 536 l 669 536 l 669 300 l 1310 300 l 1310 197 l 669 197 l 669 -178 l 553 -178 l 553 876 l 384 876 q 106 497 268 659 q 23 577 64 543 q 385 1158 279 839 z "},"乎":{"ha":1389,"x_min":20,"x_max":1369,"o":"m 20 492 l 643 492 l 643 958 q 100 935 396 947 q 80 1042 92 984 q 1257 1102 727 1057 l 1274 995 q 757 964 1055 979 l 757 492 l 1369 492 l 1369 387 l 757 387 l 757 37 q 557 -162 757 -162 q 354 -159 491 -162 q 336 -40 349 -112 q 537 -51 449 -51 q 643 58 644 -52 l 643 387 l 20 387 l 20 492 m 914 619 q 1116 890 1015 734 l 1215 825 q 1004 551 1115 683 l 914 619 m 179 821 l 267 880 q 469 618 363 766 l 368 549 q 179 821 269 705 z "},"乏":{"ha":1389,"x_min":15,"x_max":1370,"o":"m 644 -33 q 1370 -25 968 -37 q 1326 -134 1347 -81 q 625 -134 924 -139 q 296 28 408 -128 q 251 31 277 52 q 73 -163 168 -35 l 15 -48 q 247 150 138 90 q 296 157 274 163 q 1039 553 730 382 l 144 553 l 144 656 l 1234 656 l 1234 539 q 375 77 879 339 q 644 -33 481 -34 m 100 922 q 79 1034 94 975 q 1261 1076 652 1029 l 1278 970 q 100 922 764 935 m 541 854 l 627 919 q 789 753 715 838 l 701 682 q 541 854 639 762 z "},"乐":{"ha":1389,"x_min":20,"x_max":1371,"o":"m 209 1042 q 1183 1105 723 1053 l 1219 999 q 309 946 736 954 l 258 555 l 654 555 l 654 863 l 766 863 l 766 555 l 1301 555 l 1301 452 l 766 452 l 766 26 q 728 -117 766 -78 q 591 -161 686 -161 q 411 -159 541 -161 q 389 -43 404 -105 q 567 -54 526 -55 q 654 36 654 -56 l 654 452 l 130 452 l 209 1042 m 1013 374 q 1371 -28 1213 172 l 1280 -109 q 928 309 1123 97 l 1013 374 m 366 371 l 461 304 q 106 -109 264 43 q 20 -33 68 -75 q 366 371 208 153 z "},"乔":{"ha":1389,"x_min":15,"x_max":1371,"o":"m 52 743 l 579 743 q 650 971 637 846 q 142 958 419 964 q 119 1061 133 1013 q 1241 1098 722 1064 l 1259 996 q 763 975 1048 984 q 702 743 751 850 l 1339 743 l 1339 645 l 884 645 q 1371 375 1053 429 q 1301 268 1329 314 q 770 645 924 373 l 648 645 q 84 256 483 393 q 15 353 52 309 q 513 645 353 456 l 52 645 l 52 743 m 408 394 l 518 394 q 445 22 519 140 q 155 -196 376 -97 q 77 -102 119 -147 q 346 78 288 -17 q 408 394 412 170 m 882 394 l 990 394 l 990 -180 l 882 -180 l 882 394 z "},"乘":{"ha":1389,"x_min":19,"x_max":1375,"o":"m 1375 -7 q 1295 -121 1333 -59 q 745 337 907 14 l 745 -184 l 644 -184 l 644 319 q 94 -131 481 29 q 19 -32 62 -86 q 644 479 422 86 l 644 782 l 42 782 l 42 871 l 644 871 l 644 998 q 136 985 406 991 q 117 1078 129 1027 q 1246 1116 799 1086 l 1261 1022 q 745 1001 1028 1010 l 745 871 l 1358 871 l 1358 782 l 745 782 l 745 500 q 1375 -7 968 67 m 935 725 l 1035 725 l 1035 599 q 1293 694 1171 638 l 1329 603 q 1035 508 1200 549 l 1035 416 q 1097 344 1035 344 l 1158 344 q 1248 395 1237 344 q 1265 511 1259 443 q 1362 473 1318 486 q 1337 357 1351 408 q 1180 246 1308 246 l 1072 246 q 935 410 935 246 l 935 725 m 33 352 q 355 411 186 376 l 355 539 l 68 539 l 68 626 l 355 626 l 355 725 l 456 725 l 456 245 l 355 245 l 355 314 q 58 248 227 286 l 33 352 z "},"九":{"ha":1389,"x_min":22,"x_max":1370,"o":"m 62 870 l 452 870 q 456 1148 456 995 l 572 1148 q 568 870 572 996 l 996 870 l 996 47 q 1073 -39 991 -39 l 1138 -39 q 1234 41 1223 -39 q 1256 268 1249 138 q 1370 226 1309 245 q 1343 6 1359 108 q 1152 -143 1318 -143 l 1055 -143 q 882 35 876 -143 l 882 766 l 564 766 q 513 337 551 474 q 109 -173 422 20 q 22 -83 75 -131 q 399 370 313 92 q 448 766 434 481 l 62 766 l 62 870 z "},"也":{"ha":1389,"x_min":18,"x_max":1370,"o":"m 646 1151 l 753 1151 l 753 831 l 1226 920 q 1207 478 1215 634 q 1156 303 1202 356 q 993 254 1109 254 q 848 257 926 254 q 825 371 840 309 q 987 360 888 363 q 1076 386 1054 359 q 1101 486 1097 412 q 1115 793 1111 648 l 753 725 l 753 115 l 646 115 l 646 705 l 326 645 l 326 92 q 444 -22 326 -22 l 1077 -22 q 1227 75 1211 -22 q 1253 279 1245 165 q 1370 237 1310 256 q 1333 33 1351 109 q 1101 -127 1299 -127 l 422 -127 q 218 68 218 -127 l 218 625 l 35 591 l 18 694 l 218 731 l 218 996 l 326 996 l 326 751 l 646 811 l 646 1151 z "},"习":{"ha":1389,"x_min":79,"x_max":1242,"o":"m 109 1042 l 1242 1042 q 1217 170 1229 402 q 907 -134 1204 -134 q 654 -128 791 -134 q 632 -2 648 -75 q 892 -14 806 -14 q 1053 33 1005 -16 q 1103 199 1097 82 q 1122 931 1116 524 l 109 931 l 109 1042 m 79 181 q 1017 489 620 345 q 1017 371 1013 398 q 121 64 545 212 l 79 181 m 245 732 l 304 820 q 773 600 589 695 l 711 497 q 245 732 449 640 z "},"乡":{"ha":1389,"x_min":62,"x_max":1244,"o":"m 1134 653 l 1244 623 q 110 -186 1074 -43 q 62 -81 91 -134 q 939 291 667 2 q 350 242 608 267 q 217 223 260 233 l 176 340 q 297 390 241 357 q 690 682 508 527 q 335 665 503 673 q 201 650 241 659 l 163 752 q 279 810 222 768 q 658 1171 465 957 l 773 1129 q 368 758 582 935 q 792 772 583 763 q 1036 1019 922 890 l 1139 966 q 400 344 822 621 q 1017 387 695 361 q 1134 653 1098 506 z "},"书":{"ha":1389,"x_min":38,"x_max":1303,"o":"m 38 524 l 548 524 l 548 813 l 126 813 l 126 913 l 548 913 l 548 1147 l 661 1147 l 661 913 l 1128 913 l 1103 524 l 1290 524 q 1280 214 1287 374 q 1069 -7 1272 -10 q 841 2 963 -9 q 821 121 834 64 q 1055 98 945 98 q 1173 222 1168 96 q 1179 424 1177 318 l 661 424 l 661 -176 l 548 -176 l 548 424 l 38 424 l 38 524 m 1013 813 l 661 813 l 661 524 l 994 524 l 1013 813 m 979 1068 l 1046 1144 q 1303 962 1190 1048 l 1232 877 q 979 1068 1126 966 z "},"买":{"ha":1389,"x_min":38,"x_max":1352,"o":"m 65 -90 q 684 257 532 3 l 38 257 l 38 355 l 728 355 q 773 911 772 458 l 882 911 q 841 355 876 473 l 1352 355 l 1352 257 l 807 257 q 783 210 796 233 q 1333 -93 1005 104 l 1272 -189 q 728 131 967 9 q 137 -193 548 -90 q 65 -90 114 -154 m 94 968 l 94 1065 l 1302 1065 l 1302 979 q 1156 679 1230 802 q 1053 722 1090 710 q 1179 968 1122 832 l 94 968 m 149 621 l 206 694 q 528 488 384 591 l 464 404 q 149 621 307 522 m 285 839 l 340 912 q 650 715 505 817 l 586 630 q 285 839 446 737 z "},"乱":{"ha":1389,"x_min":27,"x_max":1370,"o":"m 95 425 l 343 425 l 343 645 l 27 645 l 27 743 l 343 743 l 343 959 q 76 932 213 945 q 52 1031 66 979 q 694 1105 377 1056 l 719 1004 q 449 971 588 987 l 449 743 l 770 743 l 770 645 l 449 645 l 449 425 l 689 425 l 689 -176 l 586 -176 l 586 -71 l 198 -71 l 198 -176 l 95 -176 l 95 425 m 853 1125 l 960 1125 l 960 33 q 1050 -64 960 -64 l 1145 -64 q 1237 20 1226 -64 q 1260 272 1253 143 q 1370 229 1299 253 q 1340 -18 1359 85 q 1145 -162 1316 -162 l 1016 -162 q 853 5 853 -162 l 853 1125 m 586 333 l 198 333 l 198 18 l 586 18 l 586 333 z "},"乳":{"ha":1389,"x_min":28,"x_max":1371,"o":"m 28 256 q 370 300 199 275 l 370 404 l 601 564 l 79 564 l 79 659 l 515 659 q 661 979 600 821 l 758 939 q 618 659 697 805 l 749 659 l 749 557 l 476 363 l 476 315 q 766 361 621 336 q 755 253 758 298 q 476 211 615 233 l 476 22 q 442 -113 476 -78 q 304 -155 403 -155 q 152 -151 225 -155 q 133 -40 146 -106 q 283 -51 190 -50 q 370 41 370 -52 l 370 194 q 47 140 208 168 l 28 256 m 857 1139 l 963 1139 l 963 51 q 1058 -39 963 -39 l 1126 -39 q 1246 59 1233 -39 q 1264 292 1260 161 q 1371 249 1318 268 q 1340 2 1358 102 q 1138 -142 1312 -142 l 1044 -142 q 898 -100 940 -142 q 857 45 857 -59 l 857 1139 m 71 979 q 52 1078 62 1021 q 753 1117 420 1087 l 774 1021 q 71 979 403 995 m 326 939 l 411 972 q 495 741 464 843 l 403 710 q 326 939 381 787 m 83 897 l 164 932 q 266 720 228 817 l 178 683 q 83 897 148 759 z "},"了":{"ha":1389,"x_min":72,"x_max":1278,"o":"m 659 649 q 1090 941 891 791 l 72 941 l 72 1053 l 1278 1053 l 1278 919 q 781 593 1035 752 l 781 94 q 730 -92 781 -40 q 544 -147 680 -146 q 323 -143 469 -147 q 301 -12 315 -75 q 534 -28 437 -26 q 659 96 659 -29 l 659 649 z "},"予":{"ha":1389,"x_min":50,"x_max":1284,"o":"m 50 600 l 695 600 q 350 848 519 731 l 419 924 q 674 751 528 852 l 991 960 l 179 960 l 179 1065 l 1190 1065 l 1190 960 l 772 684 q 821 650 796 667 l 774 600 l 1284 600 l 1284 493 l 1192 230 q 1081 257 1133 245 l 1164 493 l 762 493 l 762 58 q 548 -162 762 -162 q 320 -159 473 -162 q 293 -37 309 -101 q 530 -48 430 -48 q 648 71 648 -48 l 648 493 l 50 493 l 50 600 z "},"争":{"ha":1389,"x_min":22,"x_max":1364,"o":"m 171 280 l 612 280 l 612 443 l 33 443 l 33 535 l 612 535 l 612 695 l 212 695 l 212 743 q 100 648 159 694 q 22 725 65 687 q 427 1166 274 912 l 534 1135 q 471 1037 505 1085 l 1019 1037 l 1019 942 l 880 787 l 1173 787 l 1173 535 l 1364 535 l 1364 443 l 1173 443 l 1173 132 l 1067 132 l 1067 188 l 720 188 l 720 16 q 537 -162 720 -162 q 328 -161 449 -162 q 308 -45 321 -106 q 510 -55 426 -55 q 612 45 612 -56 l 612 188 l 171 188 l 171 280 m 886 945 l 401 945 q 258 787 335 864 l 750 787 l 886 945 m 720 280 l 1067 280 l 1067 443 l 720 443 l 720 280 m 1067 695 l 720 695 l 720 535 l 1067 535 l 1067 695 z "},"事":{"ha":1389,"x_min":31,"x_max":1366,"o":"m 115 159 l 646 159 l 646 261 l 31 261 l 31 345 l 646 345 l 646 446 l 119 446 l 119 527 l 646 527 l 646 619 l 301 619 l 301 584 l 206 584 l 206 876 l 646 876 l 646 965 l 35 965 l 35 1049 l 646 1049 l 646 1155 l 746 1155 l 746 1049 l 1355 1049 l 1355 965 l 746 965 l 746 876 l 1185 876 l 1185 584 l 1090 584 l 1090 619 l 746 619 l 746 527 l 1215 527 l 1215 345 l 1366 345 l 1366 261 l 1215 261 l 1215 13 l 1118 13 l 1118 78 l 746 78 l 746 -2 q 589 -166 746 -165 q 393 -163 514 -166 q 377 -51 388 -117 q 566 -64 483 -64 q 646 17 646 -64 l 646 78 l 115 78 l 115 159 m 746 159 l 1118 159 l 1118 261 l 746 261 l 746 159 m 1118 446 l 746 446 l 746 345 l 1118 345 l 1118 446 m 1090 800 l 746 800 l 746 695 l 1090 695 l 1090 800 m 301 695 l 646 695 l 646 800 l 301 800 l 301 695 z "},"二":{"ha":1389,"x_min":41,"x_max":1344,"o":"m 141 980 l 1248 980 l 1248 863 l 141 863 l 141 980 m 41 92 l 1344 92 l 1344 -22 l 41 -22 l 41 92 z "},"于":{"ha":1389,"x_min":27,"x_max":1362,"o":"m 27 599 l 658 599 l 658 949 l 136 949 l 136 1056 l 1259 1056 l 1259 949 l 772 949 l 772 599 l 1362 599 l 1362 492 l 772 492 l 772 26 q 738 -106 772 -66 q 595 -157 700 -154 q 366 -155 534 -157 q 345 -32 359 -93 q 557 -43 498 -43 q 639 -20 618 -43 q 658 66 658 -1 l 658 492 l 27 492 l 27 599 z "},"云":{"ha":1389,"x_min":37,"x_max":1363,"o":"m 907 409 q 1306 -66 1108 185 l 1204 -142 q 1107 -11 1156 -75 q 285 -50 620 -28 q 175 -71 227 -56 l 121 54 q 256 158 202 93 q 526 541 402 334 l 37 541 l 37 641 l 1363 641 l 1363 541 l 673 541 q 321 62 469 237 q 1034 83 784 73 q 818 349 926 221 l 907 409 m 163 1057 l 1236 1057 l 1236 957 l 163 957 l 163 1057 z "},"互":{"ha":1389,"x_min":52,"x_max":1343,"o":"m 52 16 l 970 16 l 987 249 l 222 249 l 222 345 l 308 942 l 100 942 l 100 1040 l 1291 1040 l 1291 942 l 422 942 l 393 743 l 1137 743 l 1084 16 l 1343 16 l 1343 -79 l 52 -79 l 52 16 m 1016 645 l 379 645 l 336 347 l 994 347 l 1016 645 z "},"五":{"ha":1389,"x_min":27,"x_max":1369,"o":"m 27 -7 l 343 -7 l 422 524 l 113 524 l 113 627 l 438 627 l 487 957 l 76 957 l 76 1060 l 1305 1060 l 1305 957 l 601 957 l 552 627 l 1149 627 l 1149 -7 l 1369 -7 l 1369 -109 l 27 -109 l 27 -7 m 1035 524 l 537 524 l 457 -7 l 1035 -7 l 1035 524 z "},"井":{"ha":1389,"x_min":31,"x_max":1362,"o":"m 31 425 l 382 425 q 384 753 384 459 l 69 753 l 69 859 l 384 859 l 384 1152 l 495 1152 l 495 859 l 918 859 l 918 1152 l 1029 1152 l 1029 859 l 1318 859 l 1318 753 l 1029 753 l 1029 425 l 1362 425 l 1362 319 l 1029 319 l 1029 -170 l 918 -170 l 918 319 l 486 319 q 426 85 469 172 q 136 -186 365 -52 q 60 -93 111 -154 q 321 130 262 14 q 374 319 359 199 l 31 319 l 31 425 m 493 425 l 918 425 l 918 753 l 495 753 q 493 425 495 509 z "},"亚":{"ha":1389,"x_min":23,"x_max":1366,"o":"m 23 10 l 461 10 l 461 961 l 76 961 l 76 1064 l 1316 1064 l 1316 961 l 926 961 l 926 10 l 1366 10 l 1366 -90 l 23 -90 l 23 10 m 575 10 l 812 10 l 812 961 l 575 961 l 575 10 m 975 256 q 1198 801 1084 477 l 1308 758 q 1073 211 1181 429 l 975 256 m 195 804 q 406 268 311 531 l 293 218 q 98 760 203 501 l 195 804 z "},"些":{"ha":1389,"x_min":27,"x_max":1362,"o":"m 27 455 q 157 474 94 465 l 157 1007 l 256 1007 l 256 489 q 420 514 341 502 l 420 1144 l 519 1144 l 519 886 l 751 886 l 751 794 l 519 794 l 519 530 q 760 570 648 551 q 764 471 761 517 q 49 349 385 410 l 27 455 m 815 1147 l 914 1147 l 914 809 q 1237 1022 1080 897 l 1310 946 q 914 708 1122 806 l 914 564 q 929 498 914 517 q 1010 474 949 474 l 1130 474 q 1240 550 1223 474 q 1261 721 1255 626 q 1362 684 1312 701 q 1336 522 1352 606 q 1143 386 1308 386 l 1000 386 q 854 424 894 386 q 815 555 815 458 l 815 1147 m 64 -16 l 1329 -16 l 1329 -109 l 64 -109 l 64 -16 m 201 253 l 1172 253 l 1172 159 l 201 159 l 201 253 z "},"亡":{"ha":1389,"x_min":27,"x_max":1360,"o":"m 27 881 l 1360 881 l 1360 774 l 349 774 l 349 6 l 1297 6 l 1297 -97 l 228 -97 l 228 774 l 27 774 l 27 881 m 581 1095 l 670 1156 q 826 958 770 1036 l 727 886 q 581 1095 648 1008 z "},"交":{"ha":1389,"x_min":33,"x_max":1351,"o":"m 910 573 l 1015 528 q 774 155 913 298 q 1351 -60 977 4 q 1270 -174 1301 -128 q 693 81 908 -82 q 100 -184 507 -64 q 33 -79 71 -136 q 608 155 414 17 q 377 512 474 292 l 468 564 q 693 226 557 362 q 910 573 817 349 m 42 951 l 677 951 q 586 1113 646 1018 l 686 1162 q 789 991 745 1080 l 713 951 l 1344 951 l 1344 851 l 42 851 l 42 951 m 444 789 l 530 718 q 136 361 340 519 q 60 448 102 404 q 444 789 264 593 m 930 795 q 1318 469 1179 600 q 1237 380 1280 431 q 856 725 1084 538 l 930 795 z "},"亥":{"ha":1389,"x_min":41,"x_max":1340,"o":"m 41 170 q 661 493 431 298 q 304 465 458 479 q 198 444 236 456 l 145 551 q 250 615 202 573 q 482 873 361 714 l 46 873 l 46 970 l 677 970 q 574 1113 626 1048 l 662 1168 q 793 999 736 1080 l 751 970 l 1340 970 l 1340 873 l 616 873 q 354 570 503 732 q 765 593 553 579 q 909 808 854 693 l 1012 755 q 110 70 781 315 q 41 170 81 119 m 153 -96 q 1105 597 850 108 l 1204 542 q 911 174 1094 334 q 1313 -81 1120 47 l 1238 -177 q 830 108 1047 -32 q 225 -196 583 -80 q 153 -96 198 -150 z "},"亦":{"ha":1389,"x_min":16,"x_max":1371,"o":"m 38 924 l 691 924 q 586 1110 624 1051 l 690 1159 q 804 969 728 1101 l 715 924 l 1356 924 l 1356 824 l 956 824 l 956 43 q 785 -150 956 -153 q 585 -149 736 -151 q 563 -29 576 -90 q 749 -40 686 -40 q 846 63 846 -43 l 846 824 l 568 824 q 486 195 573 391 q 136 -188 401 -20 q 56 -98 99 -142 q 385 245 311 59 q 460 824 463 411 l 38 824 l 38 924 m 1047 630 l 1142 677 q 1371 264 1295 422 l 1265 212 q 1047 630 1149 454 m 202 672 l 309 633 q 119 208 208 378 q 16 258 75 233 q 202 672 134 465 z "},"产":{"ha":1389,"x_min":18,"x_max":1358,"o":"m 161 610 l 803 610 q 967 878 895 745 l 1072 812 q 921 610 1000 711 l 1322 610 l 1322 515 l 271 515 l 271 420 q 235 62 271 180 q 91 -185 197 -70 q 18 -93 56 -142 q 130 108 98 -7 q 161 420 161 220 l 161 610 m 50 998 l 669 998 q 604 1112 640 1053 l 704 1162 q 794 998 748 1090 l 1358 998 l 1358 901 l 50 901 l 50 998 m 334 824 l 423 884 q 572 683 507 778 l 476 616 q 334 824 423 706 z "},"亨":{"ha":1389,"x_min":41,"x_max":1350,"o":"m 228 806 l 1161 806 l 1161 455 l 1058 455 l 1058 498 l 331 498 l 331 455 l 228 455 l 228 806 m 669 199 l 1084 302 l 98 302 l 98 389 l 1245 389 l 1245 258 l 777 138 l 777 -9 q 605 -169 777 -169 q 393 -166 519 -169 q 377 -56 389 -120 q 586 -68 510 -68 q 669 9 669 -68 l 669 199 m 41 995 l 672 995 q 587 1116 639 1048 l 685 1173 q 791 1026 743 1097 l 736 995 l 1350 995 l 1350 905 l 41 905 l 41 995 m 1058 720 l 331 720 l 331 585 l 1058 585 l 1058 720 z "},"享":{"ha":1389,"x_min":24,"x_max":1362,"o":"m 24 192 l 652 192 l 652 264 l 985 355 l 144 355 l 144 444 l 1172 444 l 1172 328 l 761 207 l 761 192 l 1362 192 l 1362 100 l 761 100 l 761 -12 q 591 -169 761 -169 q 391 -166 513 -169 q 374 -56 387 -121 q 572 -68 484 -68 q 652 5 652 -70 l 652 100 l 24 100 l 24 192 m 222 819 l 1156 819 l 1156 497 l 1053 497 l 1053 541 l 326 541 l 326 497 l 222 497 l 222 819 m 41 995 l 645 995 q 563 1113 604 1057 l 662 1171 q 768 1025 726 1087 l 716 995 l 1350 995 l 1350 903 l 41 903 l 41 995 m 1053 732 l 326 732 l 326 627 l 1053 627 l 1053 732 z "},"京":{"ha":1389,"x_min":28,"x_max":1359,"o":"m 209 751 l 1179 751 l 1179 292 l 1073 292 l 1073 347 l 761 347 l 761 2 q 608 -161 761 -159 q 430 -161 510 -161 q 410 -51 420 -102 q 567 -59 500 -59 q 652 29 652 -62 l 652 347 l 315 347 l 315 286 l 209 286 l 209 751 m 1073 657 l 315 657 l 315 440 l 1073 440 l 1073 657 m 33 966 l 659 966 q 571 1114 621 1038 l 670 1163 q 776 995 724 1082 l 722 966 l 1359 966 l 1359 871 l 33 871 l 33 966 m 381 233 l 456 151 q 91 -100 274 14 q 28 -9 65 -54 q 381 233 214 98 m 907 142 l 971 223 q 1328 1 1157 113 l 1256 -93 q 907 142 1112 14 z "},"亭":{"ha":1389,"x_min":53,"x_max":1335,"o":"m 251 843 l 1138 843 l 1138 535 l 1040 535 l 1040 566 l 349 566 l 349 535 l 251 535 l 251 843 m 58 470 l 1331 470 l 1331 219 l 1230 219 l 1230 380 l 159 380 l 159 219 l 58 219 l 58 470 m 221 261 l 1162 261 l 1162 172 l 781 172 l 781 -3 q 620 -166 781 -166 q 430 -165 509 -166 q 410 -52 422 -109 q 589 -63 522 -63 q 678 26 678 -66 l 678 172 l 221 172 l 221 261 m 53 1027 l 635 1027 q 585 1112 608 1074 l 689 1159 q 769 1027 722 1110 l 1335 1027 l 1335 938 l 53 938 l 53 1027 m 1040 762 l 349 762 l 349 648 l 1040 648 l 1040 762 z "},"亮":{"ha":1389,"x_min":34,"x_max":1371,"o":"m 266 842 l 1118 842 l 1118 522 l 1028 522 l 1028 562 l 355 562 l 355 522 l 266 522 l 266 842 m 970 283 l 970 32 q 986 -39 970 -18 q 1066 -62 1006 -62 l 1150 -62 q 1251 13 1238 -62 q 1270 166 1264 82 q 1371 127 1320 143 q 1350 -14 1362 47 q 1164 -158 1326 -158 l 1040 -158 q 903 -117 937 -158 q 867 25 867 -79 l 867 193 l 494 193 q 423 -39 494 50 q 79 -189 317 -155 q 34 -90 64 -146 q 339 25 251 -67 q 392 189 392 89 l 392 283 l 970 283 m 77 471 l 1312 471 l 1312 256 l 1203 256 l 1203 379 l 186 379 l 186 256 l 77 256 l 77 471 m 60 1023 l 642 1023 q 597 1133 620 1080 l 699 1162 q 752 1023 726 1094 l 1332 1023 l 1332 931 l 60 931 l 60 1023 m 1028 755 l 355 755 l 355 649 l 1028 649 l 1028 755 z "},"亲":{"ha":1389,"x_min":31,"x_max":1358,"o":"m 92 372 l 659 372 l 659 545 l 31 545 l 31 642 l 427 642 q 316 823 376 737 l 406 876 q 532 682 473 785 l 461 642 l 822 642 q 968 884 903 766 l 1072 831 q 943 642 1009 733 l 1358 642 l 1358 545 l 768 545 l 768 372 l 1291 372 l 1291 275 l 768 275 l 768 5 q 594 -172 768 -172 q 396 -170 519 -172 q 376 -55 389 -119 q 563 -64 490 -64 q 659 40 659 -66 l 659 275 l 92 275 l 92 372 m 98 1003 l 665 1003 q 600 1117 635 1060 l 703 1163 q 792 1003 751 1083 l 1290 1003 l 1290 905 l 98 905 l 98 1003 m 913 130 l 982 210 q 1320 -28 1165 89 l 1242 -119 q 913 130 1089 7 m 354 214 l 437 144 q 122 -120 283 1 q 47 -32 88 -73 q 354 214 202 66 z "},"人":{"ha":1389,"x_min":22,"x_max":1370,"o":"m 22 -66 q 647 1133 613 276 l 766 1133 q 738 857 759 988 q 1370 -36 906 178 q 1270 -154 1313 -98 q 695 652 867 74 q 107 -169 547 94 q 22 -66 71 -119 z "},"什":{"ha":1389,"x_min":19,"x_max":1369,"o":"m 438 654 l 848 654 l 848 1140 l 963 1140 l 963 654 l 1369 654 l 1369 546 l 963 546 l 963 -173 l 848 -173 l 848 546 l 438 546 l 438 654 m 19 475 q 336 1143 221 755 l 452 1110 q 336 817 397 953 l 336 -174 l 225 -174 l 225 595 q 68 357 151 463 q 19 475 46 416 z "},"仅":{"ha":1389,"x_min":12,"x_max":1375,"o":"m 463 958 l 463 1053 l 1282 1053 l 1282 961 q 964 207 1221 513 q 1375 -62 1129 38 q 1290 -170 1322 -125 q 884 120 1049 -53 q 453 -180 707 -57 q 372 -79 427 -143 q 806 211 631 40 q 534 958 572 512 l 463 958 m 1160 958 l 638 958 q 886 296 681 558 q 1160 958 1117 570 m 12 517 q 332 1156 227 806 l 442 1120 q 301 785 378 940 l 301 -174 l 195 -174 l 195 595 q 56 397 129 488 q 12 517 35 455 z "},"今":{"ha":1389,"x_min":7,"x_max":1379,"o":"m 784 1152 l 760 1117 q 1379 623 978 775 q 1305 505 1336 559 q 696 1027 892 707 q 73 485 498 729 q 7 589 45 532 q 646 1152 457 820 l 784 1152 m 559 701 l 650 758 q 806 542 736 644 l 708 475 q 559 701 646 583 m 174 296 l 174 405 l 1161 405 l 1161 296 q 780 -197 944 17 l 682 -121 q 1010 296 846 74 l 174 296 z "},"介":{"ha":1389,"x_min":12,"x_max":1371,"o":"m 792 1136 l 764 1097 q 1371 591 991 743 q 1298 473 1328 527 q 696 1010 899 682 q 85 452 492 695 q 12 570 52 517 q 646 1136 418 766 l 792 1136 m 380 606 l 488 606 q 420 35 488 161 q 190 -204 366 -82 q 111 -113 155 -158 q 323 92 274 -10 q 380 606 380 196 m 880 608 l 990 608 l 990 -180 l 880 -180 l 880 608 z "},"仍":{"ha":1389,"x_min":19,"x_max":1309,"o":"m 932 633 l 1077 947 l 739 947 q 682 230 739 435 q 439 -174 631 7 q 357 -92 401 -134 q 581 288 536 87 q 632 947 632 470 l 477 947 l 477 1048 l 1195 1048 l 1195 947 l 1048 631 l 1309 631 q 1291 134 1302 325 q 1232 -85 1280 -26 q 1062 -146 1181 -146 q 859 -139 989 -146 q 837 -20 849 -81 q 1051 -37 943 -36 q 1184 143 1177 -39 q 1199 531 1192 265 l 932 531 l 932 633 m 19 484 q 312 1140 202 756 l 420 1107 q 315 817 372 953 l 315 -172 l 209 -172 l 209 595 q 66 366 142 471 q 19 484 46 424 z "},"从":{"ha":1389,"x_min":12,"x_max":1373,"o":"m 831 1140 l 937 1140 q 932 789 937 984 q 1373 -50 1021 170 q 1284 -154 1324 -104 q 896 505 1001 53 q 473 -178 822 93 q 395 -92 429 -124 q 804 574 735 162 q 831 1140 831 766 m 293 1140 l 400 1140 q 387 660 400 859 q 694 315 564 469 l 612 233 q 376 522 514 361 q 91 -163 336 140 q 12 -77 60 -125 q 256 447 198 140 q 293 1140 292 631 z "},"仓":{"ha":1389,"x_min":14,"x_max":1370,"o":"m 799 1145 l 768 1106 q 1370 664 991 817 q 1298 555 1337 621 q 696 1027 929 734 q 83 539 492 767 q 14 646 54 593 q 648 1145 452 855 l 799 1145 m 283 649 l 1070 649 q 1053 359 1062 463 q 996 193 1043 238 q 827 149 947 147 q 665 151 750 149 q 643 265 656 203 q 815 253 757 253 q 914 276 887 253 q 947 366 940 298 q 959 549 955 444 l 391 549 l 391 74 q 515 -45 391 -45 l 985 -45 q 1150 52 1133 -45 q 1180 249 1168 132 q 1286 210 1229 227 q 1246 6 1270 101 q 1005 -149 1208 -149 l 484 -149 q 283 50 283 -149 l 283 649 z "},"仔":{"ha":1389,"x_min":20,"x_max":1360,"o":"m 429 545 l 894 545 l 894 668 l 1152 954 l 553 954 l 553 1060 l 1291 1060 l 1291 953 l 1002 630 l 1002 545 l 1360 545 l 1360 439 l 1002 439 l 1002 66 q 795 -155 1002 -157 q 604 -153 723 -155 q 576 -25 595 -89 q 781 -36 686 -36 q 894 82 894 -37 l 894 439 l 429 439 l 429 545 m 20 528 q 342 1144 220 768 l 454 1114 q 323 798 390 939 l 323 -169 l 214 -169 l 214 593 q 77 404 146 482 q 20 528 39 493 z "},"他":{"ha":1389,"x_min":11,"x_max":1381,"o":"m 836 1141 l 941 1141 l 941 804 l 1294 885 q 1279 469 1284 584 q 1240 310 1272 348 q 1109 264 1203 264 q 1002 267 1067 264 q 982 378 994 318 q 1099 368 1040 371 q 1175 474 1172 364 q 1184 759 1181 588 l 941 703 l 941 101 l 836 101 l 836 677 l 608 625 l 608 77 q 720 -37 608 -37 l 1097 -37 q 1238 54 1221 -37 q 1268 264 1256 140 q 1381 226 1325 242 q 1341 9 1363 97 q 1115 -140 1308 -140 l 699 -140 q 502 55 502 -140 l 502 600 l 380 572 l 362 672 l 502 704 l 502 983 l 608 983 l 608 728 l 836 780 l 836 1141 m 11 513 q 330 1155 221 797 l 439 1118 q 296 777 373 933 l 296 -177 l 193 -177 l 193 589 q 54 393 127 483 q 11 513 34 451 z "},"付":{"ha":1389,"x_min":20,"x_max":1343,"o":"m 415 846 l 1036 846 l 1036 1143 l 1146 1143 l 1146 846 l 1343 846 l 1343 743 l 1146 743 l 1146 56 q 955 -158 1146 -155 q 751 -157 891 -159 q 730 -35 745 -104 q 930 -45 860 -45 q 1015 -18 993 -47 q 1036 89 1036 7 l 1036 743 l 415 743 l 415 846 m 20 508 q 330 1155 209 771 l 441 1113 q 326 831 385 962 l 326 -177 l 217 -177 l 217 616 q 62 379 142 482 q 20 508 38 470 m 503 528 l 594 585 q 788 272 677 466 l 690 211 q 503 528 595 397 z "},"代":{"ha":1389,"x_min":8,"x_max":1370,"o":"m 401 682 l 722 717 q 700 1147 706 889 l 818 1147 q 835 729 815 944 l 1332 783 l 1344 683 l 846 628 q 1141 -45 922 66 q 1218 -6 1200 -70 q 1261 212 1244 90 q 1370 173 1318 188 q 1321 -60 1350 41 q 1176 -176 1284 -178 q 954 -36 1059 -172 q 734 616 796 147 l 418 581 l 401 682 m 8 504 q 343 1155 220 789 l 452 1117 q 326 823 391 959 l 326 -182 l 214 -182 l 214 615 q 54 382 137 486 q 8 504 35 437 m 943 1040 l 1013 1112 q 1257 909 1133 1021 l 1175 825 q 943 1040 1061 942 z "},"令":{"ha":1389,"x_min":16,"x_max":1375,"o":"m 399 248 q 699 48 540 155 q 1010 361 834 174 l 175 361 l 175 463 l 1162 463 l 1162 361 q 789 -13 991 181 q 925 -108 856 -59 l 842 -199 q 327 169 575 9 l 399 248 m 791 1136 l 765 1101 q 1375 635 962 806 q 1299 524 1328 572 q 697 1019 905 730 q 87 519 479 737 q 16 619 58 565 q 651 1136 438 825 l 791 1136 m 545 722 l 627 786 q 819 583 732 682 l 730 507 q 545 722 642 623 z "},"以":{"ha":1389,"x_min":68,"x_max":1378,"o":"m 1046 1122 l 1157 1122 l 1157 878 q 1061 283 1157 503 q 1378 -59 1229 109 l 1284 -144 q 1007 183 1145 28 q 536 -189 850 -55 q 463 -96 505 -147 q 922 269 804 62 q 1046 881 1048 473 l 1046 1122 m 625 371 q 636 242 629 283 q 231 -16 311 37 q 145 -83 186 -47 l 68 24 q 130 161 132 81 l 130 1103 l 241 1103 l 241 134 q 625 371 391 223 m 570 1154 q 772 809 661 1010 l 666 749 q 473 1102 560 958 l 570 1154 z "},"仪":{"ha":1389,"x_min":19,"x_max":1373,"o":"m 1282 995 q 963 196 1225 510 q 1373 -60 1130 38 q 1289 -169 1321 -124 q 884 111 1051 -54 q 433 -188 700 -73 q 365 -90 411 -151 q 804 197 627 22 q 498 979 543 510 l 609 998 q 882 282 646 562 q 1164 1015 1125 575 l 1282 995 m 19 505 q 338 1147 229 789 l 448 1110 q 309 779 384 931 l 309 -180 l 206 -180 l 206 590 q 62 385 138 478 q 19 505 42 443 m 734 1099 l 831 1141 q 979 839 909 1011 l 876 787 q 734 1099 807 961 z "},"们":{"ha":1389,"x_min":18,"x_max":1297,"o":"m 1297 52 q 1256 -112 1297 -64 q 1105 -163 1213 -159 q 897 -161 1024 -166 q 875 -51 891 -120 q 1082 -59 987 -59 q 1171 -26 1146 -60 q 1185 62 1185 -3 l 1185 927 l 836 927 l 836 1033 l 1297 1033 l 1297 52 m 18 493 q 319 1143 227 806 l 425 1101 q 308 804 372 945 l 308 -176 l 201 -176 l 201 590 q 61 367 136 473 q 18 493 45 422 m 505 -162 l 505 835 l 616 835 l 616 -162 l 505 -162 m 509 1088 l 589 1148 q 761 939 712 1004 l 667 873 q 509 1088 616 954 z "},"仰":{"ha":1389,"x_min":19,"x_max":1286,"o":"m 863 998 l 1286 998 l 1286 229 q 1137 44 1286 47 q 990 45 1093 43 q 974 153 986 101 q 1100 142 1053 142 q 1188 249 1188 142 l 1188 903 l 962 903 l 962 -181 l 863 -181 l 863 998 m 19 489 q 279 1156 197 806 l 380 1136 q 286 825 340 972 l 286 -178 l 189 -178 l 189 595 q 64 375 132 479 q 19 489 41 443 m 810 265 q 815 159 810 210 q 549 22 670 92 q 491 -21 517 2 l 427 67 q 471 184 471 105 l 471 1033 q 812 1109 629 1049 l 871 1017 q 571 947 723 976 l 571 144 q 810 265 704 208 z "},"仲":{"ha":1389,"x_min":12,"x_max":1317,"o":"m 473 867 l 841 867 l 841 1145 l 949 1145 l 949 867 l 1317 867 l 1317 193 l 1208 193 l 1208 267 l 949 267 l 949 -182 l 841 -182 l 841 267 l 582 267 l 582 193 l 473 193 l 473 867 m 12 493 q 312 1162 213 805 l 422 1129 q 313 838 370 973 l 313 -182 l 206 -182 l 206 610 q 62 375 138 480 q 12 493 42 432 m 1208 764 l 949 764 l 949 370 l 1208 370 l 1208 764 m 582 370 l 841 370 l 841 764 l 582 764 l 582 370 z "},"件":{"ha":1389,"x_min":15,"x_max":1371,"o":"m 423 394 l 894 394 l 894 737 l 635 737 q 515 477 581 591 q 426 549 476 515 q 616 1055 555 775 l 726 1023 q 669 832 699 922 l 894 832 l 894 1147 l 1002 1147 l 1002 832 l 1326 832 l 1326 737 l 1002 737 l 1002 394 l 1371 394 l 1371 299 l 1002 299 l 1002 -176 l 894 -176 l 894 299 l 423 299 l 423 394 m 15 475 q 316 1145 202 752 l 427 1113 q 319 817 377 955 l 319 -177 l 212 -177 l 212 593 q 64 357 142 465 q 15 475 43 416 z "},"价":{"ha":1389,"x_min":15,"x_max":1371,"o":"m 15 470 q 301 1141 198 756 l 407 1109 q 304 817 358 953 l 304 -185 l 202 -185 l 202 591 q 61 352 134 458 q 15 470 35 425 m 937 1144 l 918 1110 q 1371 682 1086 813 q 1297 587 1336 641 q 863 1021 1021 745 q 434 565 711 759 q 363 650 401 612 q 815 1144 670 843 l 937 1144 m 719 614 l 719 421 q 494 -193 719 29 q 403 -117 454 -154 q 613 412 613 75 l 613 614 l 719 614 m 1005 614 l 1111 614 l 1111 -180 l 1005 -180 l 1005 614 z "},"任":{"ha":1389,"x_min":16,"x_max":1371,"o":"m 464 -1 l 860 -1 l 860 428 l 439 428 l 439 531 l 860 531 l 860 935 q 507 913 692 923 q 488 1018 500 961 q 1295 1080 945 1042 l 1316 973 q 974 943 1156 957 l 974 531 l 1371 531 l 1371 428 l 974 428 l 974 -1 l 1351 -1 l 1351 -101 l 464 -101 l 464 -1 m 16 501 q 349 1148 227 785 l 456 1109 q 328 812 395 949 l 328 -182 l 221 -182 l 221 612 q 61 380 144 483 q 16 501 42 435 z "},"份":{"ha":1389,"x_min":16,"x_max":1373,"o":"m 492 576 l 1171 576 q 1150 79 1169 557 q 937 -157 1145 -154 q 743 -153 826 -157 q 723 -40 736 -90 q 911 -55 817 -52 q 1044 92 1043 -64 q 1061 481 1055 273 l 755 481 q 690 124 751 265 q 438 -178 617 -37 q 359 -90 403 -135 q 589 168 532 44 q 650 481 644 277 l 492 481 l 492 576 m 16 511 q 331 1147 210 767 l 437 1110 q 293 772 371 930 l 293 -176 l 190 -176 l 190 584 q 60 390 127 481 q 16 511 39 448 m 869 1110 l 959 1148 q 1373 645 1093 804 q 1295 546 1321 585 q 869 1110 993 753 m 345 595 q 686 1093 556 781 l 783 1056 q 426 520 656 740 q 345 595 377 570 z "},"仿":{"ha":1389,"x_min":19,"x_max":1371,"o":"m 415 924 l 893 924 q 772 1102 835 1021 l 860 1158 q 996 983 935 1068 l 905 924 l 1371 924 l 1371 821 l 758 821 q 750 599 756 704 l 1283 599 q 1264 134 1275 286 q 1204 -83 1252 -25 q 1035 -146 1153 -146 q 831 -139 959 -146 q 810 -20 822 -81 q 1024 -37 902 -36 q 1157 140 1147 -43 q 1172 497 1168 307 l 743 497 q 458 -176 722 74 q 376 -93 420 -135 q 620 385 574 94 q 649 821 645 541 l 415 821 l 415 924 m 19 484 q 312 1140 202 756 l 420 1107 q 315 817 372 953 l 315 -178 l 209 -178 l 209 595 q 66 366 142 471 q 19 484 46 429 z "},"企":{"ha":1389,"x_min":7,"x_max":1371,"o":"m 80 -22 l 263 -22 l 263 504 l 376 504 l 376 -22 l 656 -22 l 656 736 l 769 736 l 769 436 l 1183 436 l 1183 337 l 769 337 l 769 -22 l 1312 -22 l 1312 -123 l 80 -123 l 80 -22 m 798 1141 l 770 1105 q 1371 671 982 825 q 1297 554 1341 627 q 700 1021 926 740 q 85 522 487 745 q 7 633 50 573 q 651 1141 420 821 l 798 1141 z "},"伊":{"ha":1389,"x_min":12,"x_max":1369,"o":"m 420 371 l 675 371 q 689 619 688 476 l 380 619 l 380 717 l 690 717 q 690 962 690 804 l 469 962 l 469 1057 l 1232 1057 l 1232 717 l 1369 717 l 1369 619 l 1232 619 l 1232 218 l 1128 218 l 1128 276 l 765 276 q 464 -186 722 -16 q 389 -100 433 -146 q 660 276 618 50 l 420 276 l 420 371 m 12 519 q 331 1160 222 802 l 441 1124 q 294 777 374 935 l 294 -177 l 191 -177 l 191 591 q 56 398 127 486 q 12 519 37 456 m 778 371 l 1128 371 l 1128 619 l 793 619 q 778 371 790 479 m 1128 962 l 796 962 q 795 717 796 812 l 1128 717 l 1128 962 z "},"伏":{"ha":1389,"x_min":19,"x_max":1370,"o":"m 400 741 l 801 741 q 807 1154 807 943 l 917 1154 q 911 741 916 994 l 1360 741 l 1360 642 l 913 642 q 1370 -68 998 170 q 1278 -172 1316 -127 q 868 439 964 72 q 425 -184 787 82 q 350 -87 392 -139 q 796 642 760 194 l 400 642 l 400 741 m 19 505 q 338 1147 229 789 l 448 1110 q 301 763 380 922 l 301 -176 l 198 -176 l 198 577 q 62 385 134 473 q 19 505 42 443 m 1086 1091 q 1283 893 1198 981 q 1200 817 1241 857 q 1015 1026 1108 927 l 1086 1091 z "},"伐":{"ha":1389,"x_min":19,"x_max":1370,"o":"m 435 733 l 745 770 q 727 1148 736 938 l 842 1148 q 852 782 846 945 l 1321 838 l 1333 739 l 857 682 q 914 295 873 440 q 1241 607 1105 433 l 1325 531 q 951 186 1164 337 q 1120 -40 1016 26 q 1229 3 1211 -97 q 1261 212 1249 101 q 1370 173 1326 185 q 1324 -62 1344 18 q 1192 -178 1297 -178 q 1029 -115 1111 -178 q 860 125 926 -31 q 463 -75 678 11 q 403 22 442 -33 q 822 232 635 113 q 751 669 770 401 l 452 633 l 435 733 m 19 482 q 366 1148 255 795 l 484 1114 q 342 792 418 943 l 342 -173 l 231 -173 l 231 593 q 71 364 155 471 q 19 482 47 422 m 941 1046 l 1002 1120 q 1238 950 1122 1041 l 1169 871 q 941 1046 1062 965 z "},"休":{"ha":1389,"x_min":18,"x_max":1383,"o":"m 1383 116 q 1290 16 1331 63 q 911 639 1051 251 l 911 -182 l 808 -182 l 808 654 q 414 1 682 294 q 335 90 378 44 q 764 756 620 387 l 406 756 l 406 854 l 808 854 l 808 1151 l 911 1151 l 911 854 l 1328 854 l 1328 756 l 953 756 q 1383 116 1099 351 m 18 519 q 338 1159 231 806 l 448 1122 q 301 775 380 934 l 301 -182 l 198 -182 l 198 589 q 62 397 134 485 q 18 519 43 455 z "},"众":{"ha":1389,"x_min":9,"x_max":1379,"o":"m 787 1136 l 762 1103 q 1369 698 990 810 q 1295 587 1332 653 q 694 1018 939 722 q 88 554 487 747 q 20 660 61 608 q 648 1136 437 843 l 787 1136 m 869 661 l 978 661 q 974 542 977 599 q 1379 -70 1078 59 q 1298 -173 1339 -116 q 943 309 1039 -24 q 575 -193 863 -43 q 494 -108 545 -155 q 789 181 709 14 q 869 661 873 345 m 343 642 l 456 642 q 422 330 454 474 l 487 380 q 709 128 608 257 l 620 55 q 416 306 525 185 q 94 -174 331 -14 q 9 -86 60 -132 q 343 642 351 131 z "},"优":{"ha":1389,"x_min":19,"x_max":1366,"o":"m 396 783 l 691 783 q 697 1144 698 938 l 806 1144 q 800 783 807 941 l 1343 783 l 1343 684 l 971 684 l 971 50 q 1050 -26 971 -26 l 1138 -26 q 1237 66 1227 -26 q 1255 275 1248 143 q 1366 231 1309 253 q 1340 24 1355 115 q 1280 -97 1324 -63 q 1145 -130 1240 -131 l 1034 -130 q 901 -92 939 -130 q 861 40 861 -56 l 861 684 l 795 684 q 423 -174 781 172 q 342 -86 385 -130 q 686 684 673 223 l 396 684 l 396 783 m 19 507 q 338 1148 229 790 l 448 1112 q 301 764 380 923 l 301 -176 l 198 -176 l 198 578 q 62 386 134 474 q 19 507 42 444 m 998 1125 q 1240 953 1143 1033 q 1169 866 1202 911 q 939 1050 1058 965 l 998 1125 z "},"伙":{"ha":1389,"x_min":18,"x_max":1370,"o":"m 807 1154 l 917 1154 q 905 692 917 852 q 1370 -68 978 182 q 1278 -172 1316 -127 q 868 437 964 72 q 425 -184 788 81 q 350 -87 392 -140 q 707 302 620 119 q 803 817 802 485 q 807 1154 807 973 m 18 484 q 346 1158 235 781 l 457 1125 q 328 808 396 954 l 328 -177 l 222 -177 l 222 603 q 64 364 146 470 q 18 484 45 424 m 1000 536 q 1240 871 1128 702 l 1333 802 q 1080 471 1214 635 l 1000 536 m 396 802 l 487 858 q 678 532 589 690 l 579 470 q 396 802 486 652 z "},"会":{"ha":1389,"x_min":11,"x_max":1381,"o":"m 899 211 q 1238 -117 1096 36 l 1150 -196 q 1050 -85 1107 -146 q 359 -131 712 -105 q 244 -161 302 -136 l 183 -48 q 296 17 250 -24 q 524 287 414 132 l 72 287 l 72 387 l 1317 387 l 1317 287 l 661 287 q 391 -24 522 112 q 963 5 690 -9 q 826 143 901 68 l 899 211 m 694 1030 q 85 515 423 710 q 11 614 53 564 q 642 1140 400 813 l 787 1140 l 761 1106 q 1381 646 996 793 q 1305 531 1340 592 q 694 1030 911 722 m 317 667 l 1066 667 l 1066 566 l 317 566 l 317 667 z "},"伞":{"ha":1389,"x_min":18,"x_max":1370,"o":"m 61 234 l 637 234 l 637 795 l 750 795 l 750 234 l 1329 234 l 1329 130 l 750 130 l 750 -189 l 637 -189 l 637 130 l 61 130 l 61 234 m 798 1145 l 768 1110 q 1370 668 994 817 q 1298 562 1328 610 q 699 1029 943 734 q 85 545 487 760 q 18 644 57 591 q 650 1145 437 852 l 798 1145 m 861 397 q 1072 631 979 511 l 1162 553 q 940 321 1066 448 l 861 397 m 229 545 l 308 611 q 513 398 412 505 l 419 321 q 229 545 331 433 z "},"传":{"ha":1389,"x_min":19,"x_max":1367,"o":"m 524 149 l 582 229 q 880 60 737 144 l 1143 319 l 566 319 l 566 416 q 618 584 593 500 l 406 584 l 406 679 l 646 679 q 695 859 672 770 l 472 859 l 472 954 l 720 954 q 764 1140 743 1048 l 880 1140 q 835 954 859 1050 l 1313 954 l 1313 859 l 810 859 q 760 679 787 771 l 1367 679 l 1367 584 l 733 584 q 682 414 709 500 l 1282 414 l 1282 315 l 972 5 q 1137 -97 1057 -45 l 1066 -189 q 524 149 780 7 m 19 486 q 319 1149 209 766 l 429 1117 q 320 823 378 960 l 320 -174 l 213 -174 l 213 600 q 66 367 144 472 q 19 486 46 425 z "},"伤":{"ha":1389,"x_min":15,"x_max":1362,"o":"m 461 596 l 747 596 q 749 810 749 702 l 859 810 q 855 596 859 703 l 1302 596 q 1286 117 1295 333 q 1226 -93 1279 -35 q 1044 -149 1176 -150 q 840 -143 952 -149 q 819 -25 833 -90 q 1032 -40 943 -39 q 1142 -9 1111 -43 q 1177 128 1171 25 q 1190 497 1187 322 l 852 497 q 770 146 839 280 q 457 -176 673 -36 q 378 -86 425 -132 q 670 200 581 48 q 744 497 734 315 l 461 497 l 461 596 m 15 475 q 316 1145 202 753 l 427 1113 q 319 823 375 957 l 319 -177 l 212 -177 l 212 595 q 64 357 141 463 q 15 475 43 416 m 391 686 q 675 1152 576 893 l 779 1113 q 711 968 747 1038 l 1362 968 l 1362 869 l 656 869 q 471 611 572 726 q 391 686 431 653 z "},"伦":{"ha":1389,"x_min":20,"x_max":1373,"o":"m 568 621 l 677 621 l 677 326 q 1123 596 958 451 l 1199 507 q 677 210 962 325 l 677 58 q 783 -33 677 -33 l 1032 -33 q 1126 -13 1096 -33 q 1164 68 1154 6 q 1185 268 1179 151 q 1295 229 1229 249 q 1270 28 1286 117 q 1203 -102 1253 -66 q 1043 -136 1152 -136 l 776 -136 q 614 -93 659 -136 q 568 59 568 -50 l 568 621 m 20 503 q 330 1149 209 766 l 441 1107 q 309 790 377 935 l 309 -181 l 201 -181 l 201 581 q 62 374 133 465 q 20 503 38 465 m 963 1139 l 940 1102 q 1373 694 1104 825 q 1294 592 1332 645 q 879 1008 1028 764 q 456 580 746 779 q 380 675 426 627 q 829 1139 684 855 l 963 1139 z "},"伪":{"ha":1389,"x_min":15,"x_max":1305,"o":"m 410 789 l 733 789 q 739 1148 739 933 l 849 1148 q 839 789 846 928 l 1305 789 q 1286 134 1293 264 q 1226 -85 1276 -24 q 1057 -146 1177 -146 q 853 -139 983 -146 q 831 -20 844 -81 q 1047 -37 939 -36 q 1179 143 1173 -43 q 1194 688 1188 314 l 833 688 q 438 -181 808 134 q 357 -94 401 -140 q 727 688 692 174 l 410 688 l 410 789 m 15 488 q 327 1154 212 758 l 435 1121 q 312 802 379 951 l 312 -176 l 209 -176 l 209 597 q 62 371 140 475 q 15 488 43 428 m 930 534 q 1092 284 1019 413 l 994 226 q 846 485 932 356 l 930 534 m 534 1084 q 682 895 623 981 l 593 831 q 456 1029 534 928 l 534 1084 z "},"伯":{"ha":1389,"x_min":7,"x_max":1287,"o":"m 525 941 l 745 941 q 826 1160 796 1063 l 943 1125 q 861 941 900 1025 l 1287 941 l 1287 -163 l 1176 -163 l 1176 -48 l 636 -48 l 636 -166 l 525 -166 l 525 941 m 636 51 l 1176 51 l 1176 401 l 636 401 l 636 51 m 1176 839 l 636 839 l 636 498 l 1176 498 l 1176 839 m 7 475 q 308 1145 194 755 l 419 1113 q 311 821 368 956 l 311 -177 l 203 -177 l 203 594 q 56 357 133 463 q 7 475 35 416 z "},"估":{"ha":1389,"x_min":9,"x_max":1367,"o":"m 488 496 l 821 496 l 821 771 l 391 771 l 391 871 l 821 871 l 821 1154 l 932 1154 l 932 871 l 1367 871 l 1367 771 l 932 771 l 932 496 l 1265 496 l 1265 -182 l 1154 -182 l 1154 -77 l 600 -77 l 600 -182 l 488 -182 l 488 496 m 1154 395 l 600 395 l 600 21 l 1154 21 l 1154 395 m 9 490 q 311 1160 199 772 l 422 1128 q 316 842 372 975 l 316 -185 l 209 -185 l 209 615 q 58 372 138 480 q 9 490 38 431 z "},"伴":{"ha":1389,"x_min":18,"x_max":1367,"o":"m 404 319 l 830 319 l 830 542 l 458 542 l 458 645 l 830 645 l 830 1147 l 939 1147 l 939 645 l 1310 645 l 1310 542 l 939 542 l 939 319 l 1367 319 l 1367 216 l 939 216 l 939 -177 l 830 -177 l 830 216 l 404 216 l 404 319 m 18 484 q 346 1158 235 779 l 457 1125 q 328 807 396 954 l 328 -177 l 222 -177 l 222 602 q 64 364 146 469 q 18 484 45 424 m 1043 775 q 1232 1029 1157 918 l 1329 958 q 1128 707 1268 878 l 1043 775 m 458 956 l 548 1018 q 724 786 635 905 l 629 714 q 458 956 526 863 z "},"伸":{"ha":1389,"x_min":20,"x_max":1291,"o":"m 827 1154 l 925 1154 l 925 922 l 1291 922 l 1291 169 l 1194 169 l 1194 218 l 925 218 l 925 -180 l 827 -180 l 827 218 l 559 218 l 559 157 l 461 157 l 461 922 l 827 922 l 827 1154 m 20 489 q 308 1147 205 767 l 410 1117 q 285 777 353 934 l 285 -176 l 187 -176 l 187 578 q 62 380 128 471 q 20 489 46 431 m 1194 831 l 925 831 l 925 614 l 1194 614 l 1194 831 m 559 309 l 827 309 l 827 526 l 559 526 l 559 309 m 559 831 l 559 614 l 827 614 l 827 831 l 559 831 m 925 309 l 1194 309 l 1194 526 l 925 526 l 925 309 z "},"伺":{"ha":1389,"x_min":18,"x_max":1293,"o":"m 500 553 l 1012 553 l 1012 116 l 601 116 l 601 9 l 500 9 l 500 553 m 483 977 l 483 1078 l 1293 1078 l 1293 -1 q 1259 -130 1293 -94 q 1127 -168 1223 -165 q 909 -166 1034 -170 q 887 -58 905 -121 q 1107 -67 1017 -67 q 1190 14 1190 -70 l 1190 977 l 483 977 m 18 469 q 312 1140 202 749 l 420 1107 q 311 802 369 945 l 311 -182 l 208 -182 l 208 583 q 65 351 140 455 q 18 469 46 409 m 911 458 l 601 458 l 601 211 l 911 211 l 911 458 m 442 816 l 1114 816 l 1114 715 l 442 715 l 442 816 z "},"似":{"ha":1389,"x_min":18,"x_max":1371,"o":"m 1115 1113 l 1223 1113 q 1194 473 1223 684 q 1124 222 1175 338 q 1371 -77 1267 52 l 1274 -153 q 1075 126 1187 -21 q 760 -184 965 -58 q 675 -94 724 -142 q 1088 489 1027 93 q 1115 1113 1115 660 m 18 494 q 270 1154 201 805 l 370 1132 q 289 850 336 986 l 289 -180 l 183 -180 l 183 596 q 64 379 129 484 q 18 494 42 437 m 903 413 q 914 286 909 333 q 562 51 761 188 q 491 -6 525 24 l 415 86 q 464 210 464 130 l 464 1006 l 570 1006 l 570 193 q 903 413 713 286 m 686 1097 l 780 1145 q 970 800 892 949 l 863 744 q 686 1097 770 945 z "},"但":{"ha":1389,"x_min":18,"x_max":1371,"o":"m 525 1060 l 1257 1060 l 1257 140 l 1152 140 l 1152 229 l 631 229 l 631 140 l 525 140 l 525 1060 m 18 507 q 338 1147 232 798 l 448 1110 q 301 763 380 922 l 301 -176 l 198 -176 l 198 577 q 62 385 134 472 q 18 507 43 441 m 631 323 l 1152 323 l 1152 599 l 631 599 l 631 323 m 1152 965 l 631 965 l 631 691 l 1152 691 l 1152 965 m 401 6 l 1371 6 l 1371 -87 l 401 -87 l 401 6 z "},"位":{"ha":1389,"x_min":18,"x_max":1371,"o":"m 388 -13 l 918 -13 q 1143 732 1015 248 l 1265 695 q 1032 -13 1183 444 l 1371 -13 l 1371 -113 l 388 -113 l 388 -13 m 18 497 q 311 1155 212 790 l 426 1126 q 305 805 370 954 l 305 -185 l 203 -185 l 203 593 q 69 372 140 473 q 18 497 50 424 m 416 909 l 895 909 q 761 1098 834 1011 l 853 1162 q 1001 976 913 1093 l 901 909 l 1347 909 l 1347 809 l 416 809 l 416 909 m 601 718 q 796 127 690 474 l 684 94 q 498 683 591 427 l 601 718 z "},"低":{"ha":1389,"x_min":8,"x_max":1381,"o":"m 494 1044 q 1301 1101 883 1044 l 1339 999 q 976 970 1152 981 q 989 623 979 780 l 1356 623 l 1356 526 l 996 526 q 1211 -37 1036 54 q 1260 -9 1249 -54 q 1283 195 1272 60 q 1381 158 1336 170 q 1351 -52 1367 31 q 1245 -158 1328 -158 q 1054 -39 1145 -158 q 895 526 924 140 l 597 526 l 597 45 q 849 191 743 130 q 869 86 857 128 q 595 -77 696 -13 q 518 -138 556 -102 l 448 -48 q 494 68 494 -9 l 494 1044 m 8 520 q 332 1158 217 802 l 431 1122 q 283 777 364 935 l 283 -180 l 186 -180 l 186 603 q 46 406 119 496 q 8 520 30 460 m 871 964 q 597 951 730 956 l 597 623 l 888 623 q 871 964 881 755 m 766 -25 l 837 31 q 986 -123 913 -41 l 907 -186 q 766 -25 844 -106 z "},"住":{"ha":1389,"x_min":18,"x_max":1364,"o":"m 423 -25 l 841 -25 l 841 389 l 502 389 l 502 489 l 841 489 l 841 816 l 464 816 l 464 916 l 1324 916 l 1324 816 l 949 816 l 949 489 l 1286 489 l 1286 389 l 949 389 l 949 -25 l 1364 -25 l 1364 -125 l 423 -125 l 423 -25 m 18 484 q 346 1158 235 779 l 457 1125 q 339 831 401 967 l 339 -177 l 233 -177 l 233 621 q 64 364 153 477 q 18 484 45 424 m 772 1102 l 860 1158 q 996 983 935 1068 l 897 919 q 772 1102 837 1019 z "},"佐":{"ha":1389,"x_min":8,"x_max":1364,"o":"m 450 -2 l 882 -2 l 882 420 l 594 420 q 385 115 502 256 q 312 205 350 163 q 656 816 543 488 l 396 816 l 396 915 l 689 915 q 743 1147 723 1027 l 857 1128 q 802 915 833 1018 l 1354 915 l 1354 816 l 770 816 q 647 519 718 660 l 1294 519 l 1294 420 l 987 420 l 987 -2 l 1364 -2 l 1364 -98 l 450 -98 l 450 -2 m 8 500 q 289 1145 205 797 l 396 1114 q 293 831 346 961 l 293 -182 l 187 -182 l 187 600 q 52 379 122 475 q 8 500 31 437 z "},"体":{"ha":1389,"x_min":12,"x_max":1378,"o":"m 1378 169 q 1298 68 1332 113 q 899 775 1027 277 l 899 203 l 1099 203 l 1099 105 l 899 105 l 899 -178 l 799 -178 l 799 105 l 600 105 l 600 203 l 799 203 l 799 775 l 795 775 q 380 47 669 307 q 308 132 349 86 q 700 775 570 372 l 381 775 l 381 873 l 799 873 l 799 1149 l 899 1149 l 899 873 l 1332 873 l 1332 775 l 987 775 q 1378 169 1116 353 m 12 498 q 305 1154 209 786 l 408 1124 q 289 799 355 951 l 289 -177 l 189 -177 l 189 595 q 58 387 127 484 q 12 498 38 443 z "},"何":{"ha":1389,"x_min":12,"x_max":1369,"o":"m 496 762 l 956 762 l 956 222 l 594 222 l 594 153 l 496 153 l 496 762 m 458 1052 l 1369 1052 l 1369 951 l 1249 951 l 1249 33 q 1065 -169 1249 -168 q 849 -168 1001 -170 q 827 -51 841 -117 q 1040 -62 943 -62 q 1143 51 1143 -64 l 1143 951 l 458 951 l 458 1052 m 12 490 q 309 1151 210 787 l 418 1118 q 309 824 366 961 l 309 -182 l 205 -182 l 205 604 q 61 374 137 478 q 12 490 41 432 m 859 665 l 594 665 l 594 318 l 859 318 l 859 665 z "},"余":{"ha":1389,"x_min":18,"x_max":1370,"o":"m 71 428 l 650 428 l 650 616 l 317 616 l 317 684 q 85 545 210 611 q 18 644 57 591 q 650 1145 437 852 l 793 1145 l 766 1112 q 1370 668 993 819 q 1298 562 1328 610 q 1070 692 1177 621 l 1070 616 l 760 616 l 760 428 l 1318 428 l 1318 326 l 760 326 l 760 13 q 576 -174 760 -174 q 406 -172 513 -174 q 388 -59 399 -120 q 556 -71 490 -70 q 650 24 650 -74 l 650 326 l 71 326 l 71 428 m 699 1029 q 365 718 568 863 l 1032 718 q 699 1029 845 851 m 972 268 q 1336 -29 1187 102 l 1252 -116 q 898 195 1085 44 l 972 268 m 357 269 l 454 204 q 142 -124 289 6 q 52 -50 104 -90 q 357 269 224 86 z "},"佛":{"ha":1389,"x_min":18,"x_max":1332,"o":"m 397 973 l 644 973 l 644 1144 l 745 1144 l 745 973 l 910 973 l 910 1141 l 1010 1141 l 1010 973 l 1270 973 l 1270 542 l 1169 542 l 1169 592 l 1010 592 l 1010 375 l 1332 375 q 1321 142 1328 239 q 1168 -21 1310 -22 q 1065 -20 1104 -21 q 1042 86 1055 26 q 1143 79 1089 79 q 1218 169 1214 78 q 1223 283 1221 199 l 1010 283 l 1010 -169 l 910 -169 l 910 283 l 723 283 q 448 -185 689 1 q 370 -101 412 -139 q 619 283 591 71 l 374 283 l 374 375 l 412 684 l 644 684 l 644 881 l 397 881 l 397 973 m 18 497 q 300 1155 198 771 l 401 1129 q 282 796 348 952 l 282 -181 l 186 -181 l 186 594 q 60 386 127 484 q 18 497 41 443 m 734 375 l 910 375 l 910 592 l 744 592 q 734 375 742 471 m 745 684 l 910 684 l 910 881 l 745 881 l 745 684 m 480 375 l 632 375 q 644 592 642 468 l 505 592 l 480 375 m 1169 881 l 1010 881 l 1010 684 l 1169 684 l 1169 881 z "},"作":{"ha":1389,"x_min":15,"x_max":1366,"o":"m 392 604 q 658 1155 572 851 l 769 1135 q 697 932 737 1030 l 1366 932 l 1366 838 l 872 838 l 872 600 l 1312 600 l 1312 505 l 872 505 l 872 258 l 1329 258 l 1329 163 l 872 163 l 872 -178 l 766 -178 l 766 838 l 656 838 q 477 527 579 672 q 392 604 439 564 m 15 479 q 317 1151 206 763 l 429 1118 q 317 818 376 958 l 317 -178 l 212 -178 l 212 597 q 66 363 143 469 q 15 479 46 414 z "},"你":{"ha":1389,"x_min":18,"x_max":1373,"o":"m 18 484 q 346 1158 235 779 l 457 1125 q 328 807 396 954 l 328 -177 l 222 -177 l 222 602 q 64 364 146 469 q 18 484 45 424 m 1147 622 l 1234 833 l 664 833 q 526 600 597 704 q 442 669 486 635 q 686 1154 598 892 l 791 1114 q 714 937 753 1021 l 1344 937 l 1344 824 l 1245 585 q 1147 622 1190 608 m 849 734 l 955 734 l 955 18 q 788 -162 955 -165 q 610 -161 712 -163 q 589 -44 602 -109 q 760 -55 697 -55 q 849 37 849 -58 l 849 734 m 723 500 q 521 36 632 277 q 419 81 475 59 q 620 534 534 306 l 723 500 m 1165 539 q 1373 96 1260 349 l 1270 48 q 1070 497 1181 265 l 1165 539 z "},"佩":{"ha":1389,"x_min":19,"x_max":1371,"o":"m 1284 196 q 1371 161 1318 180 q 1270 -157 1371 -155 q 1139 1 1183 -157 q 1118 233 1118 93 l 1118 994 l 498 994 l 498 515 q 357 -172 498 78 q 354 -166 355 -170 q 289 -74 311 -98 q 406 538 406 113 l 406 1083 l 1210 1083 l 1210 243 q 1226 25 1211 96 q 1257 -13 1236 -12 q 1284 196 1289 -12 m 955 143 l 955 539 l 848 539 l 848 -155 l 755 -155 l 755 539 l 654 539 l 654 7 l 564 7 l 564 626 l 755 626 l 755 772 l 548 772 l 548 859 l 1066 859 l 1066 772 l 848 772 l 848 626 l 1048 626 l 1048 127 q 977 17 1048 32 q 883 10 940 10 q 849 113 871 62 q 921 104 890 104 q 955 143 955 104 m 19 516 q 243 1148 187 793 l 350 1133 q 260 804 311 957 l 260 -177 l 168 -177 l 168 571 q 69 386 122 471 q 19 516 47 451 z "},"佳":{"ha":1389,"x_min":19,"x_max":1370,"o":"m 418 -26 l 841 -26 l 841 210 l 472 210 l 472 307 l 841 307 l 841 489 l 947 489 l 947 307 l 1316 307 l 1316 210 l 947 210 l 947 -26 l 1370 -26 l 1370 -124 l 418 -124 l 418 -26 m 429 623 l 838 623 l 838 833 l 480 833 l 480 931 l 838 931 l 838 1141 l 944 1141 l 944 931 l 1302 931 l 1302 833 l 944 833 l 944 623 l 1354 623 l 1354 526 l 429 526 l 429 623 m 19 501 q 326 1158 222 806 l 434 1125 q 315 812 382 962 l 315 -178 l 209 -178 l 209 606 q 66 383 143 490 q 19 501 46 447 z "},"使":{"ha":1389,"x_min":20,"x_max":1373,"o":"m 492 271 l 583 321 q 740 140 645 216 q 807 366 789 210 l 453 366 l 453 739 l 819 739 l 819 873 l 385 873 l 385 965 l 819 965 l 819 1148 l 924 1148 l 924 965 l 1362 965 l 1362 873 l 924 873 l 924 739 l 1289 739 l 1289 307 l 1185 307 l 1185 366 l 912 366 q 830 81 891 176 q 829 79 829 79 q 1373 -64 1039 -44 q 1298 -177 1332 -123 q 757 -1 970 -137 q 408 -188 638 -106 q 338 -97 377 -144 q 669 63 558 -28 q 492 271 563 152 m 20 496 q 302 1154 202 771 l 403 1124 q 281 785 347 941 l 281 -184 l 184 -184 l 184 585 q 61 387 126 478 q 20 496 41 444 m 920 456 l 1185 456 l 1185 648 l 924 648 q 920 456 924 595 m 815 456 q 819 648 819 521 l 556 648 l 556 456 l 815 456 z "},"例":{"ha":1389,"x_min":19,"x_max":1309,"o":"m 517 399 l 571 475 q 705 377 633 433 q 777 679 757 516 l 587 679 q 397 280 510 431 q 332 364 369 323 q 559 981 486 585 l 412 981 l 412 1076 l 937 1076 l 937 981 l 661 981 q 614 772 640 870 l 878 772 l 878 679 q 442 -178 822 144 q 368 -90 412 -138 q 665 283 559 64 q 517 399 597 338 m 19 497 q 278 1155 194 794 l 378 1136 q 288 836 342 984 l 288 -176 l 195 -176 l 195 618 q 62 372 136 494 q 19 497 46 427 m 1210 1151 l 1309 1151 l 1309 18 q 1276 -123 1309 -85 q 1162 -159 1248 -158 q 974 -157 1104 -161 q 955 -44 968 -101 q 1126 -55 1059 -55 q 1194 -36 1179 -56 q 1210 51 1210 -18 l 1210 1151 m 1066 142 l 970 142 l 970 938 l 1066 938 l 1066 142 z "},"侍":{"ha":1389,"x_min":18,"x_max":1370,"o":"m 415 677 l 841 677 l 841 871 l 480 871 l 480 966 l 841 966 l 841 1152 l 947 1152 l 947 966 l 1310 966 l 1310 871 l 947 871 l 947 677 l 1370 677 l 1370 583 l 415 583 l 415 677 m 426 412 l 1042 412 l 1042 541 l 1147 541 l 1147 412 l 1370 412 l 1370 317 l 1147 317 l 1147 5 q 971 -161 1147 -163 q 770 -159 897 -161 q 749 -45 762 -111 q 949 -55 864 -55 q 1042 39 1042 -58 l 1042 317 l 426 317 l 426 412 m 18 520 q 336 1159 232 814 l 442 1122 q 301 781 378 938 l 301 -180 l 198 -180 l 198 593 q 62 398 134 488 q 18 520 43 455 m 519 212 l 598 273 q 770 74 696 168 l 684 7 q 519 212 609 111 z "},"供":{"ha":1389,"x_min":5,"x_max":1366,"o":"m 1013 1141 l 1124 1141 l 1124 843 l 1318 843 l 1318 745 l 1124 745 l 1124 371 l 1366 371 l 1366 273 l 380 273 l 380 371 l 609 371 l 609 745 l 434 745 l 434 843 l 609 843 l 609 1140 l 720 1140 l 720 843 l 1013 843 l 1013 1141 m 5 501 q 340 1154 218 787 l 449 1114 q 304 782 379 933 l 304 -182 l 195 -182 l 195 585 q 52 379 125 471 q 5 501 33 435 m 720 371 l 1013 371 l 1013 745 l 720 745 l 720 371 m 948 166 l 1028 234 q 1363 -97 1242 36 l 1274 -180 q 948 166 1135 -16 m 787 163 q 453 -185 627 -32 q 370 -106 416 -143 q 693 229 543 24 l 787 163 z "},"依":{"ha":1389,"x_min":15,"x_max":1374,"o":"m 1233 682 l 1310 597 q 1008 366 1169 482 q 1374 -1 1139 115 q 1289 -104 1325 -55 q 798 681 903 135 q 673 504 741 590 l 673 5 q 910 144 788 70 q 932 35 920 79 q 671 -121 792 -43 q 593 -185 631 -150 l 519 -92 q 567 31 567 -47 l 567 382 q 347 177 467 275 q 292 281 324 224 q 759 835 604 524 l 377 835 l 377 927 l 1359 927 l 1359 835 l 882 835 q 870 810 876 823 q 964 461 901 614 q 1233 682 1107 567 m 15 493 q 297 1151 197 764 l 397 1121 q 277 787 342 942 l 277 -182 l 179 -182 l 179 582 q 57 382 121 475 q 15 493 38 439 m 724 1110 l 814 1166 q 941 996 884 1078 l 846 934 q 724 1110 789 1029 z "},"侦":{"ha":1389,"x_min":16,"x_max":1352,"o":"m 486 745 l 803 745 l 803 1147 l 911 1147 l 911 1003 l 1345 1003 l 1345 908 l 911 908 l 911 745 l 1264 745 l 1264 104 l 1158 104 l 1158 650 l 591 650 l 591 104 l 486 104 l 486 745 m 16 515 q 339 1156 233 808 l 448 1120 q 301 775 381 934 l 301 -186 l 198 -186 l 198 591 q 60 394 132 485 q 16 515 39 452 m 827 577 l 933 577 q 902 199 933 315 q 1352 -96 1118 60 q 1276 -184 1316 -135 q 869 106 1067 -33 q 445 -200 761 -97 q 378 -105 418 -158 q 784 181 697 -16 q 827 577 827 277 z "},"侯":{"ha":1389,"x_min":18,"x_max":1369,"o":"m 396 292 l 804 292 q 821 469 820 369 l 579 469 q 467 317 526 387 q 387 378 441 342 q 597 703 518 530 l 693 669 q 636 561 665 613 l 1286 561 l 1286 469 l 924 469 q 909 292 922 371 l 1343 292 l 1343 199 l 946 199 q 1369 -66 1092 5 q 1293 -174 1324 -124 q 869 152 1010 -65 q 430 -186 781 -62 q 361 -89 400 -138 q 777 199 697 9 l 396 199 l 396 292 m 403 813 l 1091 813 l 1101 985 l 503 985 l 503 1078 l 1208 1078 l 1195 813 l 1347 813 l 1347 720 l 403 720 l 403 813 m 18 507 q 300 1155 208 797 l 401 1129 q 296 821 353 964 l 296 -180 l 198 -180 l 198 610 q 60 386 134 486 q 18 507 41 444 z "},"侵":{"ha":1389,"x_min":15,"x_max":1336,"o":"m 509 276 l 509 364 l 1181 364 l 1181 277 q 956 28 1106 134 q 1336 -78 1112 -44 q 1268 -180 1299 -127 q 860 -31 1026 -126 q 418 -182 680 -127 q 358 -85 392 -134 q 767 31 599 -47 q 563 276 631 134 l 509 276 m 450 724 l 1133 724 l 1133 821 l 513 821 l 513 905 l 1133 905 l 1133 1000 l 457 1000 l 457 1087 l 1230 1087 l 1230 592 l 1133 592 l 1133 637 l 450 637 l 450 724 m 15 497 q 297 1151 199 775 l 397 1121 q 277 780 345 939 l 277 -180 l 178 -180 l 178 572 q 61 380 123 471 q 15 497 38 446 m 361 546 l 1326 546 l 1326 333 l 1229 333 l 1229 456 l 458 456 l 458 329 l 361 329 l 361 546 m 1066 276 l 670 276 q 861 81 736 161 q 1066 276 993 162 z "},"便":{"ha":1389,"x_min":12,"x_max":1367,"o":"m 1196 295 l 1196 334 l 919 334 q 841 85 900 179 q 1367 -37 1051 -15 q 1305 -143 1332 -92 q 774 5 989 -109 q 420 -182 647 -116 q 346 -90 388 -139 q 682 60 572 -32 q 486 250 566 140 l 560 311 q 750 135 635 208 q 819 334 801 210 l 467 334 l 467 859 l 830 859 l 830 987 l 449 987 l 449 1079 l 1345 1079 l 1345 987 l 928 987 l 928 859 l 1291 859 l 1291 295 l 1196 295 m 12 501 q 323 1155 199 763 l 427 1113 q 298 795 364 939 l 298 -176 l 201 -176 l 201 601 q 56 379 130 474 q 12 501 37 435 m 926 421 l 1196 421 l 1196 555 l 928 555 q 926 421 928 493 m 828 421 q 830 555 830 454 l 562 555 l 562 421 l 828 421 m 1196 772 l 928 772 l 928 640 l 1196 640 l 1196 772 m 562 640 l 830 640 l 830 772 l 562 772 l 562 640 z "},"促":{"ha":1389,"x_min":18,"x_max":1371,"o":"m 324 -87 q 528 460 506 109 l 631 444 q 596 215 621 321 q 836 0 677 45 l 836 606 l 605 606 l 605 542 l 502 542 l 502 1074 l 1248 1074 l 1248 551 l 1145 551 l 1145 606 l 937 606 l 937 372 l 1310 372 l 1310 277 l 937 277 l 937 -16 q 1371 -10 1124 -25 q 1326 -120 1340 -75 q 930 -117 1119 -123 q 559 92 688 -118 q 396 -174 500 -66 q 324 -87 370 -138 m 18 494 q 304 1152 205 775 l 407 1122 q 283 785 350 941 l 283 -177 l 182 -177 l 182 576 q 61 382 124 471 q 18 494 43 440 m 1145 980 l 605 980 l 605 699 l 1145 699 l 1145 980 z "},"保":{"ha":1389,"x_min":15,"x_max":1375,"o":"m 491 1086 l 1248 1086 l 1248 574 l 1145 574 l 1145 626 l 917 626 l 917 443 l 1364 443 l 1364 351 l 996 351 q 1375 24 1120 143 q 1308 -77 1333 -35 q 917 341 1053 78 l 917 -184 l 818 -184 l 818 347 q 407 -104 654 51 q 331 -21 376 -66 q 723 351 572 112 l 368 351 l 368 443 l 818 443 l 818 626 l 594 626 l 594 565 l 491 565 l 491 1086 m 15 488 q 297 1145 197 759 l 397 1116 q 277 781 342 937 l 277 -177 l 179 -177 l 179 576 q 57 376 121 469 q 15 488 38 433 m 1145 995 l 594 995 l 594 717 l 1145 717 l 1145 995 z "},"信":{"ha":1389,"x_min":18,"x_max":1364,"o":"m 499 311 l 1271 311 l 1271 -185 l 1166 -185 l 1166 -104 l 604 -104 l 604 -185 l 499 -185 l 499 311 m 18 500 q 317 1154 217 795 l 423 1124 q 294 787 364 941 l 294 -185 l 194 -185 l 194 589 q 62 389 132 479 q 18 500 41 446 m 1166 219 l 604 219 l 604 -12 l 1166 -12 l 1166 219 m 410 970 l 852 970 q 768 1109 812 1040 l 859 1156 q 955 1002 907 1083 l 896 970 l 1364 970 l 1364 876 l 410 876 l 410 970 m 484 749 l 1284 749 l 1284 657 l 484 657 l 484 749 m 484 531 l 1284 531 l 1284 439 l 484 439 l 484 531 z "},"修":{"ha":1389,"x_min":18,"x_max":1370,"o":"m 513 771 q 766 1154 680 946 l 864 1124 q 808 1015 838 1067 l 1256 1015 l 1256 930 q 1029 689 1162 793 q 1370 583 1164 618 q 1322 482 1348 547 q 941 628 1076 544 q 562 452 793 534 q 505 541 536 496 q 863 685 715 596 q 705 850 771 759 q 589 707 650 774 q 513 771 559 737 m 18 494 q 269 1154 186 793 l 369 1135 q 278 837 328 976 l 278 -178 l 182 -178 l 182 601 q 61 379 125 480 q 18 494 43 433 m 1248 239 l 1309 165 q 560 -192 985 -89 q 506 -104 533 -142 q 1248 239 930 -3 m 385 115 l 385 937 l 479 937 l 479 115 l 385 115 m 1126 401 l 1190 328 q 632 32 956 153 q 571 116 600 82 q 1126 401 910 226 m 994 539 l 1059 470 q 617 248 852 330 q 556 329 595 288 q 994 539 791 395 m 1133 931 l 759 931 q 758 928 758 930 q 945 741 838 812 q 1133 931 1066 831 z "},"倍":{"ha":1389,"x_min":12,"x_max":1370,"o":"m 507 371 l 1248 371 l 1248 -177 l 1145 -177 l 1145 -89 l 610 -89 l 610 -177 l 507 -177 l 507 371 m 12 494 q 302 1151 199 763 l 407 1121 q 282 782 351 940 l 282 -178 l 182 -178 l 182 579 q 57 380 123 473 q 12 494 37 437 m 1145 277 l 610 277 l 610 2 l 1145 2 l 1145 277 m 385 600 l 1053 600 l 978 642 q 1112 858 1058 748 l 1213 809 q 1074 600 1149 706 l 1370 600 l 1370 505 l 385 505 l 385 600 m 435 957 l 865 957 q 761 1116 818 1037 l 852 1168 q 964 1003 913 1087 l 884 957 l 1322 957 l 1322 862 l 435 862 l 435 957 m 548 806 l 635 859 q 772 660 713 751 l 680 602 q 548 806 613 718 z "},"倒":{"ha":1389,"x_min":11,"x_max":1308,"o":"m 793 871 q 963 561 887 713 q 867 511 916 539 q 829 597 849 553 q 387 555 588 577 l 340 665 q 468 797 418 703 q 555 961 516 877 l 373 961 l 373 1059 l 936 1059 l 936 961 l 674 961 q 494 663 582 793 q 785 686 645 671 q 708 828 750 756 l 793 871 m 11 507 q 252 1159 184 816 l 353 1140 q 270 844 317 984 l 270 -181 l 175 -181 l 175 606 q 60 393 122 493 q 11 507 39 446 m 1204 1147 l 1308 1147 l 1308 16 q 1150 -162 1308 -161 q 975 -161 1092 -163 q 955 -44 967 -105 q 1111 -55 1046 -54 q 1204 44 1204 -58 l 1204 1147 m 373 378 l 586 378 l 586 541 l 686 541 l 686 378 l 899 378 l 899 280 l 686 280 l 686 58 q 913 93 802 74 q 918 -9 913 48 q 361 -96 656 -47 l 331 12 q 586 43 461 26 l 586 280 l 373 280 l 373 378 m 990 938 l 1090 938 l 1090 146 l 990 146 l 990 938 z "},"倘":{"ha":1389,"x_min":18,"x_max":1318,"o":"m 817 1149 l 929 1149 l 929 759 l 1302 759 l 1302 -12 q 1157 -177 1302 -176 q 945 -176 1081 -178 q 924 -74 940 -131 q 1118 -82 1017 -81 q 1204 1 1204 -85 l 1204 661 l 541 661 l 541 -182 l 444 -182 l 444 759 l 817 759 l 817 1149 m 674 520 l 1072 520 l 1072 111 l 769 111 l 769 43 l 674 43 l 674 520 m 18 509 q 316 1148 201 781 l 415 1122 q 289 794 357 946 l 289 -181 l 191 -181 l 191 595 q 68 394 132 488 q 18 509 53 437 m 977 431 l 769 431 l 769 200 l 977 200 l 977 431 m 1021 877 q 1230 1093 1143 983 l 1318 1025 q 1097 804 1214 907 l 1021 877 m 449 1017 l 525 1082 q 738 876 625 995 l 650 802 q 449 1017 560 912 z "},"候":{"ha":1389,"x_min":8,"x_max":1386,"o":"m 533 315 l 887 315 q 895 496 895 387 l 721 496 q 633 337 680 408 q 543 393 591 364 q 699 720 647 536 l 800 698 q 762 591 781 642 l 1299 591 l 1299 496 l 1000 496 q 992 315 998 390 l 1367 315 l 1367 220 l 1004 220 q 1386 -68 1128 -26 q 1312 -178 1348 -125 q 945 140 1069 -109 q 509 -192 862 -68 q 439 -92 479 -144 q 869 220 798 3 l 533 220 l 533 315 m 8 507 q 254 1154 190 816 l 355 1135 q 273 847 320 983 l 273 -184 l 175 -184 l 175 609 q 54 394 120 495 q 8 507 34 447 m 536 825 l 1080 825 l 1101 1000 l 614 1000 l 614 1093 l 1217 1093 l 1185 825 l 1356 825 l 1356 730 l 536 730 l 536 825 m 382 960 l 483 960 l 483 111 l 382 111 l 382 960 z "},"借":{"ha":1389,"x_min":23,"x_max":1359,"o":"m 503 470 l 1233 470 l 1233 -176 l 1130 -176 l 1130 -104 l 606 -104 l 606 -176 l 503 -176 l 503 470 m 399 675 l 628 675 l 628 867 l 453 867 l 453 960 l 628 960 l 628 1147 l 731 1147 l 731 960 l 1001 960 l 1001 1147 l 1104 1147 l 1104 960 l 1310 960 l 1310 867 l 1104 867 l 1104 675 l 1359 675 l 1359 583 l 399 583 l 399 675 m 23 532 q 328 1152 231 833 l 434 1116 q 304 802 372 946 l 304 -176 l 201 -176 l 201 608 q 66 410 136 500 q 23 532 43 484 m 1130 378 l 606 378 l 606 227 l 1130 227 l 1130 378 m 606 -12 l 1130 -12 l 1130 138 l 606 138 l 606 -12 m 731 675 l 1001 675 l 1001 867 l 731 867 l 731 675 z "},"值":{"ha":1389,"x_min":15,"x_max":1369,"o":"m 351 -47 l 488 -47 l 488 793 l 808 793 l 808 916 l 415 916 l 415 1008 l 808 1008 l 808 1152 l 911 1152 l 911 1008 l 1339 1008 l 1339 916 l 911 916 l 911 793 l 1240 793 l 1240 -47 l 1369 -47 l 1369 -139 l 351 -139 l 351 -47 m 15 488 q 297 1145 197 759 l 397 1116 q 279 787 343 941 l 279 -177 l 180 -177 l 180 578 q 57 376 122 470 q 15 488 38 433 m 589 -47 l 1139 -47 l 1139 77 l 589 77 l 589 -47 m 1139 703 l 589 703 l 589 581 l 1139 581 l 1139 703 m 589 372 l 1139 372 l 1139 494 l 589 494 l 589 372 m 589 163 l 1139 163 l 1139 286 l 589 286 l 589 163 z "},"倾":{"ha":1389,"x_min":19,"x_max":1371,"o":"m 723 812 l 906 812 l 941 979 l 665 979 l 665 1071 l 1364 1071 l 1364 979 l 1051 979 l 1010 812 l 1306 812 l 1306 109 l 1214 109 l 1214 722 l 815 722 l 815 109 l 723 109 l 723 812 m 19 484 q 260 1149 193 791 l 361 1131 q 278 840 326 980 l 278 -184 l 183 -184 l 183 604 q 61 374 127 484 q 19 484 43 428 m 674 241 q 680 131 675 184 q 502 41 585 89 q 438 -7 467 18 l 374 82 q 418 192 418 117 l 418 1116 l 513 1116 l 513 745 l 667 745 l 667 653 l 513 653 l 513 161 q 674 241 591 197 m 967 646 l 1062 646 l 1062 470 q 1032 192 1062 307 q 1371 -116 1171 78 l 1295 -195 q 1000 96 1166 -54 q 694 -197 914 -82 q 624 -115 658 -146 q 897 113 814 -26 q 967 486 967 235 l 967 646 z "},"假":{"ha":1389,"x_min":14,"x_max":1385,"o":"m 817 1075 l 817 616 l 722 616 l 722 659 l 503 659 l 503 488 l 787 488 l 787 401 l 503 401 l 503 227 l 804 227 l 804 140 l 503 140 l 503 -184 l 403 -184 l 403 1075 l 817 1075 m 815 458 l 815 542 l 1294 542 l 1294 460 q 1126 80 1251 237 q 1385 -82 1229 -23 q 1309 -177 1332 -143 q 1061 7 1161 -100 q 749 -189 935 -115 q 685 -102 722 -149 q 1000 81 878 -35 q 855 458 886 241 l 815 458 m 14 488 q 255 1154 187 795 l 355 1135 q 273 842 321 983 l 273 -186 l 178 -186 l 178 605 q 57 378 123 487 q 14 488 39 431 m 861 748 l 1188 748 l 1188 989 l 869 989 l 869 1076 l 1283 1076 l 1283 610 l 1188 610 l 1188 661 l 861 661 l 861 748 m 722 988 l 503 988 l 503 745 l 722 745 l 722 988 m 1196 458 l 944 458 q 1064 153 973 279 q 1196 458 1164 281 z "},"偏":{"ha":1389,"x_min":18,"x_max":1313,"o":"m 670 -174 l 581 -174 l 581 547 l 1313 547 l 1313 -28 q 1284 -136 1313 -108 q 1181 -170 1257 -166 q 1089 -172 1131 -172 q 1075 -101 1084 -134 l 1008 -101 l 1008 173 l 882 173 l 882 -106 l 796 -106 l 796 173 l 670 173 l 670 -174 m 437 1015 l 843 1015 q 783 1116 811 1072 l 886 1163 q 972 1015 924 1101 l 1293 1015 l 1293 644 l 1199 644 l 1199 687 l 532 687 l 532 611 q 498 134 532 286 q 370 -182 464 -33 q 296 -93 342 -140 q 407 181 378 35 q 437 604 437 323 l 437 1015 m 18 497 q 300 1155 198 771 l 401 1129 q 277 783 346 945 l 277 -180 l 182 -180 l 182 587 q 60 386 124 479 q 18 497 41 443 m 1199 928 l 532 928 l 532 774 l 1199 774 l 1199 928 m 1168 -85 q 1222 -22 1222 -85 l 1222 173 l 1093 173 l 1093 -81 q 1168 -85 1137 -85 m 1222 460 l 1093 460 l 1093 256 l 1222 256 l 1222 460 m 882 256 l 1008 256 l 1008 460 l 882 460 l 882 256 m 670 256 l 796 256 l 796 460 l 670 460 l 670 256 z "},"做":{"ha":1389,"x_min":8,"x_max":1374,"o":"m 994 1147 l 1093 1131 q 1038 889 1069 1002 l 1359 889 l 1359 801 l 1290 801 q 1153 170 1271 412 q 1374 -68 1240 21 q 1310 -169 1339 -119 q 1096 73 1181 -66 q 857 -196 1001 -70 q 789 -111 830 -157 q 1040 173 954 28 q 929 595 954 357 q 860 465 897 526 q 800 551 836 505 q 994 1147 940 797 m 396 512 l 551 512 l 551 782 l 335 782 l 335 874 l 551 874 l 551 1137 l 651 1137 l 651 874 l 867 874 l 867 782 l 651 782 l 651 512 l 814 512 l 814 14 l 494 14 l 494 -79 l 396 -79 l 396 512 m 8 505 q 269 1147 184 786 l 369 1121 q 274 824 326 962 l 274 -184 l 182 -184 l 182 612 q 52 391 121 492 q 8 505 33 446 m 716 422 l 494 422 l 494 104 l 716 104 l 716 422 m 1190 801 l 1010 801 q 1000 770 1005 785 q 1097 286 1016 486 q 1190 801 1177 482 z "},"停":{"ha":1389,"x_min":16,"x_max":1350,"o":"m 509 838 l 1191 838 l 1191 535 l 1096 535 l 1096 572 l 604 572 l 604 535 l 509 535 l 509 838 m 16 496 q 293 1152 208 795 l 393 1128 q 285 811 343 958 l 285 -176 l 193 -176 l 193 607 q 60 383 130 484 q 16 496 39 443 m 496 283 l 1211 283 l 1211 196 l 945 196 l 945 -1 q 799 -159 945 -158 q 628 -158 734 -161 q 606 -52 620 -109 q 769 -62 694 -62 q 848 28 848 -62 l 848 196 l 496 196 l 496 283 m 361 484 l 1350 484 l 1350 271 l 1255 271 l 1255 397 l 456 397 l 456 271 l 361 271 l 361 484 m 396 1004 l 808 1004 q 745 1125 779 1066 l 837 1166 q 919 1004 882 1086 l 1335 1004 l 1335 918 l 396 918 l 396 1004 m 1096 756 l 604 756 l 604 653 l 1096 653 l 1096 756 z "},"健":{"ha":1389,"x_min":12,"x_max":1371,"o":"m 666 216 l 910 216 l 910 336 l 697 336 l 697 412 l 910 412 l 910 531 l 716 531 l 716 607 l 910 607 l 910 725 l 648 725 l 648 804 l 910 804 l 910 922 l 719 922 l 719 998 l 910 998 l 910 1139 l 1002 1139 l 1002 998 l 1246 998 l 1246 804 l 1359 804 l 1359 725 l 1246 725 l 1246 498 l 1156 498 l 1156 531 l 1002 531 l 1002 412 l 1270 412 l 1270 336 l 1002 336 l 1002 216 l 1290 216 l 1290 140 l 1002 140 l 1002 -1 l 910 -1 l 910 140 l 666 140 l 666 216 m 401 425 q 495 182 433 281 q 557 515 555 333 l 355 515 l 355 604 l 543 916 l 363 916 l 363 1003 l 651 1003 l 651 915 l 463 602 l 651 602 l 651 508 q 563 97 646 281 q 962 -39 708 -47 q 1371 -31 1158 -41 q 1329 -139 1351 -82 q 951 -136 1142 -139 q 517 7 678 -140 q 366 -188 456 -97 q 294 -113 328 -143 q 449 85 388 -22 q 321 391 361 205 l 401 425 m 12 490 q 266 1148 189 782 l 359 1125 q 266 805 323 958 l 266 -177 l 176 -177 l 176 597 q 54 383 121 486 q 12 490 37 441 m 1156 607 l 1156 725 l 1002 725 l 1002 607 l 1156 607 m 1156 922 l 1002 922 l 1002 804 l 1156 804 l 1156 922 z "},"偶":{"ha":1389,"x_min":16,"x_max":1314,"o":"m 998 275 l 1084 302 q 1183 36 1139 169 l 1095 3 q 1067 91 1082 47 q 591 54 813 74 l 566 151 q 817 161 695 155 l 817 347 l 513 347 l 513 -169 l 415 -169 l 415 433 l 817 433 l 817 562 l 589 562 l 589 516 l 494 516 l 494 1082 l 1238 1082 l 1238 516 l 1143 516 l 1143 562 l 914 562 l 914 433 l 1314 433 l 1314 -10 q 1164 -162 1314 -161 q 994 -162 1085 -163 q 974 -62 987 -119 q 1124 -71 1046 -71 q 1217 -1 1217 -71 l 1217 347 l 914 347 l 914 166 q 1038 173 977 170 q 998 275 1019 224 m 16 498 q 300 1155 202 786 l 401 1129 q 283 796 349 951 l 283 -178 l 186 -178 l 186 591 q 61 386 127 481 q 16 498 41 446 m 914 649 l 1143 649 l 1143 781 l 914 781 l 914 649 m 589 649 l 817 649 l 817 781 l 589 781 l 589 649 m 1143 995 l 914 995 l 914 865 l 1143 865 l 1143 995 m 589 865 l 817 865 l 817 995 l 589 995 l 589 865 z "},"偷":{"ha":1389,"x_min":18,"x_max":1371,"o":"m 528 -176 l 433 -176 l 433 633 l 836 633 l 836 -35 q 709 -162 836 -161 q 593 -161 663 -163 q 572 -73 583 -115 q 678 -78 635 -78 q 741 -21 741 -78 l 741 121 l 528 121 l 528 -176 m 939 1144 l 913 1109 q 1371 743 1067 888 q 1299 645 1335 698 q 1072 801 1175 713 l 1072 736 l 610 736 l 610 786 q 393 629 509 701 q 328 717 345 701 q 807 1144 644 901 l 939 1144 m 18 492 q 300 1149 198 766 l 401 1124 q 282 790 347 946 l 282 -182 l 186 -182 l 186 588 q 60 380 126 478 q 18 492 41 443 m 1147 640 l 1245 640 l 1245 -14 q 1097 -162 1245 -163 q 940 -159 1032 -162 q 920 -58 935 -111 q 1077 -68 991 -67 q 1147 2 1147 -70 l 1147 640 m 943 593 l 1038 593 l 1038 70 l 943 70 l 943 593 m 853 1038 q 648 820 761 920 l 1050 820 q 853 1038 939 918 m 528 203 l 741 203 l 741 336 l 528 336 l 528 203 m 741 549 l 528 549 l 528 417 l 741 417 l 741 549 z "},"偿":{"ha":1389,"x_min":15,"x_max":1344,"o":"m 972 135 l 1047 195 q 1329 -98 1219 26 l 1252 -166 q 1191 -97 1221 -131 q 608 -123 977 -106 q 461 -139 518 -127 l 429 -43 q 530 22 480 -28 q 722 241 619 114 l 414 241 l 414 334 l 1321 334 l 1321 241 l 846 241 q 597 -31 725 96 q 1109 -7 859 -20 q 972 135 1039 68 m 15 493 q 308 1151 203 766 l 412 1121 q 294 795 358 945 l 294 -172 l 194 -172 l 194 587 q 62 379 132 473 q 15 493 45 429 m 401 821 l 818 821 l 818 1140 l 918 1140 l 918 821 l 1344 821 l 1344 576 l 1246 576 l 1246 728 l 500 728 l 500 576 l 401 576 l 401 821 m 559 573 l 1183 573 l 1183 479 l 559 479 l 559 573 m 1270 1037 q 1109 851 1195 943 l 1032 916 q 1187 1098 1111 991 l 1270 1037 m 483 1030 l 557 1090 q 716 922 632 1022 l 635 855 q 483 1030 564 950 z "},"储":{"ha":1389,"x_min":9,"x_max":1366,"o":"m 618 698 l 859 698 l 859 889 l 665 889 l 665 976 l 859 976 l 859 1151 l 956 1151 l 956 976 l 1146 976 l 1146 889 l 956 889 l 956 698 l 994 698 q 1241 1045 1139 852 l 1329 1000 q 1118 698 1242 840 l 1366 698 l 1366 611 l 1037 611 q 900 486 972 547 l 1264 486 l 1264 -172 l 1172 -172 l 1172 -79 l 854 -79 l 854 -173 l 762 -173 l 762 381 q 621 290 694 334 q 570 374 598 332 q 906 611 758 475 l 618 611 l 618 698 m 9 492 q 254 1156 186 802 l 354 1137 q 271 848 318 985 l 271 -177 l 176 -177 l 176 609 q 54 380 121 488 q 9 492 35 433 m 678 195 q 688 81 682 127 q 454 -89 567 2 l 396 -2 q 438 102 438 37 l 438 611 l 309 611 l 309 705 l 534 705 l 534 87 q 678 195 623 150 m 854 1 l 1172 1 l 1172 170 l 854 170 l 854 1 m 1172 404 l 854 404 l 854 250 l 1172 250 l 1172 404 m 473 1107 q 604 865 553 965 l 511 813 q 389 1064 465 919 l 473 1107 z "},"像":{"ha":1389,"x_min":18,"x_max":1370,"o":"m 1223 504 l 1294 429 q 1117 317 1210 372 q 1370 -2 1190 119 q 1280 -85 1318 -43 q 1040 274 1120 58 q 976 239 1008 256 q 998 63 1000 154 q 787 -165 996 -169 q 654 -162 735 -165 q 631 -62 644 -109 q 780 -73 738 -73 q 905 68 901 -75 q 897 166 905 118 q 415 -134 723 5 q 353 -50 389 -94 q 872 260 667 64 q 840 333 859 297 q 407 66 658 172 q 345 147 380 106 q 795 404 606 237 q 752 457 775 431 q 406 264 629 361 q 343 342 376 306 q 720 546 606 446 l 566 546 l 566 515 l 472 515 l 472 777 q 396 713 435 744 q 339 800 382 740 q 688 1154 545 956 l 803 1154 q 727 1048 767 1099 l 1108 1048 l 1108 968 l 986 842 l 1279 842 l 1279 546 l 844 546 q 818 516 832 531 q 947 319 903 422 q 1223 504 1112 416 m 18 497 q 309 1155 195 767 l 411 1129 q 277 780 347 939 l 277 -180 l 182 -180 l 182 586 q 60 386 123 477 q 18 497 41 443 m 978 964 l 658 964 q 542 842 603 901 l 867 842 l 978 964 m 1185 630 l 1185 758 l 935 758 q 895 630 922 689 l 1185 630 m 566 630 l 791 630 q 836 758 825 688 l 566 758 l 566 630 z "},"僧":{"ha":1389,"x_min":16,"x_max":1289,"o":"m 401 946 l 679 946 q 530 1094 612 1022 l 602 1156 q 757 1013 690 1083 l 686 946 l 930 946 q 1076 1155 1007 1048 l 1172 1102 q 1052 946 1111 1019 l 1289 946 l 1289 458 l 1191 458 l 1191 509 l 499 509 l 499 458 l 401 458 l 401 946 m 488 402 l 1202 402 l 1202 -174 l 1104 -174 l 1104 -112 l 586 -112 l 586 -174 l 488 -174 l 488 402 m 16 545 q 297 1149 209 825 l 406 1124 q 273 785 346 944 l 273 -181 l 175 -181 l 175 594 q 68 422 124 505 q 16 545 43 486 m 1191 859 l 891 859 l 891 596 l 1191 596 l 1191 859 m 499 596 l 796 596 l 796 859 l 499 859 l 499 596 m 1104 315 l 586 315 l 586 186 l 1104 186 l 1104 315 m 586 -25 l 1104 -25 l 1104 102 l 586 102 l 586 -25 m 956 669 q 1074 824 1019 741 l 1147 778 q 1023 621 1085 694 l 956 669 m 540 770 l 600 823 q 730 683 670 753 l 661 626 q 540 770 614 691 z "},"僵":{"ha":1389,"x_min":19,"x_max":1362,"o":"m 442 382 l 1251 382 l 1251 -7 l 1161 -7 l 1161 18 l 532 18 l 532 -7 l 442 -7 l 442 382 m 442 953 l 1251 953 l 1251 566 l 1161 566 l 1161 589 l 532 589 l 532 566 l 442 566 l 442 953 m 19 509 q 266 1149 183 785 l 363 1131 q 264 809 319 956 l 264 -174 l 170 -174 l 170 586 q 62 401 119 484 q 19 509 46 456 m 323 -60 l 1362 -60 l 1362 -134 l 323 -134 l 323 -60 m 323 520 l 1362 520 l 1362 450 l 323 450 l 323 520 m 385 1091 l 1335 1091 l 1335 1018 l 385 1018 l 385 1091 m 1161 885 l 891 885 l 891 802 l 1161 802 l 1161 885 m 532 802 l 802 802 l 802 885 l 532 885 l 532 802 m 1161 314 l 891 314 l 891 233 l 1161 233 l 1161 314 m 532 233 l 802 233 l 802 314 l 532 314 l 532 233 m 532 86 l 802 86 l 802 168 l 532 168 l 532 86 m 891 86 l 1161 86 l 1161 168 l 891 168 l 891 86 m 532 657 l 802 657 l 802 737 l 532 737 l 532 657 m 891 657 l 1161 657 l 1161 737 l 891 737 l 891 657 z "},"儿":{"ha":1389,"x_min":19,"x_max":1370,"o":"m 368 1120 l 484 1120 l 484 668 q 410 184 484 334 q 100 -170 334 12 q 19 -70 69 -128 q 301 242 233 90 q 368 668 368 371 l 368 1120 m 789 1129 l 906 1129 l 906 83 q 1025 -24 903 -26 l 1104 -24 q 1227 77 1214 -24 q 1249 342 1242 177 q 1370 298 1306 319 q 1340 39 1356 130 q 1126 -131 1316 -131 l 1000 -131 q 789 73 783 -138 l 789 1129 z "},"允":{"ha":1389,"x_min":16,"x_max":1364,"o":"m 966 961 q 1344 553 1161 763 l 1249 473 q 1146 599 1198 537 q 894 588 1019 593 l 894 43 q 975 -44 894 -44 l 1130 -44 q 1233 28 1222 -44 q 1248 229 1242 101 q 1364 189 1297 210 q 1341 -10 1354 63 q 1152 -143 1318 -143 l 949 -143 q 784 24 784 -143 l 784 583 q 551 572 667 577 q 456 115 543 259 q 84 -180 340 -93 q 16 -78 57 -135 q 351 165 264 12 q 444 566 435 297 q 266 557 355 562 q 125 535 193 553 l 79 652 q 193 718 145 677 q 598 1170 406 904 l 700 1107 q 292 665 538 903 q 1065 694 667 677 q 887 895 977 798 l 966 961 z "},"元":{"ha":1389,"x_min":22,"x_max":1370,"o":"m 41 669 l 1351 669 l 1351 566 l 922 566 l 922 37 q 1004 -43 922 -43 l 1120 -43 q 1232 47 1218 -43 q 1252 239 1244 123 q 1370 205 1306 220 q 1341 10 1356 89 q 1145 -139 1314 -139 l 979 -139 q 808 28 808 -139 l 808 566 l 532 566 l 532 523 q 445 97 532 235 q 102 -184 358 -54 q 22 -93 53 -124 q 338 150 256 22 q 418 517 418 272 l 418 566 l 41 566 l 41 669 m 171 1064 l 1223 1064 l 1223 961 l 171 961 l 171 1064 z "},"兄":{"ha":1389,"x_min":16,"x_max":1366,"o":"m 184 1098 l 1196 1098 l 1196 404 l 1088 404 l 1088 479 l 894 479 l 894 40 q 979 -48 894 -48 l 1139 -48 q 1234 26 1226 -48 q 1249 234 1244 117 q 1366 193 1298 215 q 1344 -7 1355 70 q 1157 -143 1325 -143 l 955 -143 q 788 25 788 -143 l 788 479 l 566 479 q 518 165 559 276 q 84 -192 433 -74 q 16 -92 57 -147 q 415 204 335 -1 q 457 479 452 294 l 293 479 l 293 404 l 184 404 l 184 1098 m 1088 995 l 293 995 l 293 583 l 1088 583 l 1088 995 z "},"充":{"ha":1389,"x_min":20,"x_max":1366,"o":"m 951 793 q 1286 421 1160 583 l 1191 352 q 1105 460 1149 407 q 916 455 1005 458 l 916 52 q 930 -25 916 -9 q 1002 -50 948 -50 l 1131 -50 q 1232 18 1221 -50 q 1246 196 1241 75 q 1366 155 1295 177 q 1343 -17 1356 60 q 1154 -143 1321 -143 l 983 -143 q 844 -100 882 -143 q 806 35 806 -63 l 806 451 q 564 442 671 446 q 477 97 557 222 q 88 -173 370 -75 q 20 -73 61 -128 q 384 162 290 12 q 458 437 451 269 q 304 429 368 433 q 195 408 264 427 l 140 524 q 266 589 212 541 q 517 863 399 715 l 46 863 l 46 964 l 685 964 q 597 1105 637 1048 l 693 1159 q 796 1003 742 1093 l 724 964 l 1347 964 l 1347 863 l 665 863 q 358 538 535 711 q 1029 553 779 547 q 872 734 952 646 l 951 793 z "},"兆":{"ha":1389,"x_min":30,"x_max":1362,"o":"m 750 1141 l 859 1141 l 859 546 q 1229 344 1038 452 l 1172 239 q 859 427 1040 324 l 859 75 q 971 -24 859 -24 l 1108 -24 q 1236 67 1221 -24 q 1256 261 1249 138 q 1362 220 1312 238 q 1333 29 1345 92 q 1122 -131 1305 -131 l 941 -131 q 750 60 750 -131 l 750 1141 m 439 1140 l 548 1140 l 548 585 q 458 119 548 275 q 106 -184 368 -44 q 30 -83 79 -142 q 359 177 279 40 q 431 418 414 261 q 100 226 286 328 l 42 333 q 439 543 256 433 l 439 1140 m 1249 869 q 975 626 1120 744 l 902 707 q 1168 946 1025 801 l 1249 869 m 61 859 l 134 934 q 393 713 308 795 l 315 629 q 61 859 194 747 z "},"先":{"ha":1389,"x_min":11,"x_max":1377,"o":"m 49 532 l 642 532 l 642 821 l 317 821 q 174 588 250 687 q 85 650 123 627 q 321 1121 237 847 l 427 1091 q 363 922 397 1001 l 642 922 l 642 1152 l 753 1152 l 753 922 l 1256 922 l 1256 821 l 753 821 l 753 532 l 1350 532 l 1350 432 l 913 432 l 913 48 q 1006 -47 905 -56 l 1145 -47 q 1248 24 1238 -47 q 1263 222 1257 93 q 1377 181 1314 200 q 1352 -26 1370 81 q 1293 -121 1339 -94 q 1146 -147 1252 -147 l 985 -147 q 803 31 795 -155 l 803 432 l 538 432 q 444 71 527 197 q 80 -184 343 -86 q 11 -86 53 -140 q 343 127 252 -3 q 429 432 418 227 l 49 432 l 49 532 z "},"光":{"ha":1389,"x_min":11,"x_max":1377,"o":"m 37 584 l 636 584 l 636 1152 l 747 1152 l 747 584 l 1358 584 l 1358 484 l 913 484 l 913 47 q 926 -25 913 -5 q 1006 -52 945 -52 l 1141 -52 q 1248 20 1238 -52 q 1263 214 1257 93 q 1377 173 1314 192 q 1352 -26 1364 33 q 1294 -121 1340 -96 q 1146 -147 1251 -147 l 985 -147 q 838 -101 880 -147 q 803 31 803 -62 l 803 484 l 541 484 q 431 58 535 202 q 80 -182 319 -100 q 11 -86 53 -140 q 340 131 250 -3 q 432 484 427 246 l 37 484 l 37 584 m 888 737 q 1165 1048 1044 886 l 1264 977 q 972 664 1128 817 l 888 737 m 134 983 l 217 1048 q 480 745 354 897 l 381 669 q 134 983 258 839 z "},"克":{"ha":1389,"x_min":26,"x_max":1367,"o":"m 209 762 l 642 762 l 642 905 l 35 905 l 35 1000 l 642 1000 l 642 1158 l 750 1158 l 750 1000 l 1350 1000 l 1350 905 l 750 905 l 750 762 l 1194 762 l 1194 262 l 1090 262 l 1090 313 l 905 313 l 905 32 q 987 -56 905 -56 l 1141 -56 q 1240 10 1232 -56 q 1255 186 1251 81 q 1367 146 1303 168 q 1343 -35 1360 66 q 1147 -154 1324 -154 l 967 -154 q 795 18 795 -154 l 795 313 l 587 313 q 469 -2 568 98 q 90 -185 349 -124 q 26 -86 62 -142 q 384 66 288 -32 q 480 313 467 144 l 312 313 l 312 262 l 209 262 l 209 762 m 1090 667 l 312 667 l 312 408 l 1090 408 l 1090 667 z "},"免":{"ha":1389,"x_min":15,"x_max":1366,"o":"m 28 -97 q 555 319 423 32 l 286 319 l 286 268 l 182 268 l 182 675 q 88 600 136 635 q 15 690 72 623 q 464 1155 258 854 l 567 1117 q 494 1013 530 1063 l 1024 1013 l 1024 916 l 872 764 l 1198 764 l 1198 268 l 1093 268 l 1093 319 l 669 319 q 99 -197 543 -26 q 28 -97 61 -130 m 1093 669 l 734 669 q 697 414 724 527 l 1093 414 l 1093 669 m 286 414 l 589 414 q 628 669 621 524 l 286 669 l 286 414 m 882 918 l 419 918 q 279 764 351 836 l 731 764 l 882 918 m 685 250 l 789 250 l 789 50 q 810 -29 789 -10 q 895 -51 831 -51 l 1128 -51 q 1240 31 1226 -51 q 1261 229 1256 119 q 1366 189 1314 207 q 1341 -3 1356 83 q 1134 -151 1320 -151 l 864 -151 q 723 -109 761 -151 q 685 31 685 -74 l 685 250 z "},"兑":{"ha":1389,"x_min":26,"x_max":1369,"o":"m 171 908 l 791 908 q 951 1160 882 1038 l 1055 1106 q 911 908 986 1006 l 1213 908 l 1213 319 l 1104 319 l 1104 382 l 899 382 l 899 43 q 917 -36 899 -17 q 993 -59 939 -59 l 1134 -59 q 1240 14 1226 -59 q 1256 197 1252 93 q 1369 157 1313 173 q 1343 -20 1358 56 q 1146 -153 1320 -153 l 971 -153 q 827 -109 867 -153 q 789 25 789 -70 l 789 382 l 570 382 q 472 47 554 154 q 95 -182 363 -93 q 26 -86 68 -139 q 370 100 283 -6 q 462 382 449 186 l 279 382 l 279 319 l 171 319 l 171 908 m 1104 810 l 279 810 l 279 479 l 1104 479 l 1104 810 m 334 1106 l 415 1164 q 570 980 492 1080 l 480 915 q 334 1106 412 1017 z "},"党":{"ha":1389,"x_min":50,"x_max":1369,"o":"m 273 659 l 1116 659 l 1116 222 l 1013 222 l 1013 265 l 884 265 l 884 33 q 899 -35 884 -17 q 989 -58 918 -58 l 1109 -58 q 1230 6 1211 -58 q 1265 189 1251 73 q 1369 151 1314 168 q 1328 -28 1350 45 q 1128 -154 1291 -154 l 968 -154 q 827 -120 868 -154 q 779 20 779 -81 l 779 265 l 597 265 q 453 -35 578 71 q 115 -193 339 -128 q 50 -93 84 -138 q 388 51 281 -40 q 491 265 477 130 l 376 265 l 376 222 l 273 222 l 273 659 m 77 886 l 643 886 l 643 1152 l 746 1152 l 746 886 l 1312 886 l 1312 585 l 1211 585 l 1211 791 l 178 791 l 178 585 l 77 585 l 77 886 m 1013 566 l 376 566 l 376 357 l 1013 357 l 1013 566 m 918 988 q 1133 1141 1031 1059 l 1210 1064 q 983 908 1092 976 l 918 988 m 206 1064 l 269 1135 q 473 992 370 1067 l 399 912 q 206 1064 307 991 z "},"入":{"ha":1389,"x_min":19,"x_max":1371,"o":"m 397 1074 l 487 1137 q 821 657 639 1044 q 1371 -20 1074 102 l 1276 -139 q 727 604 979 37 q 687 691 707 650 q 102 -147 530 152 q 19 -45 65 -93 q 612 832 459 232 q 397 1074 505 1010 z "},"全":{"ha":1389,"x_min":18,"x_max":1371,"o":"m 80 -22 l 640 -22 l 640 214 l 201 214 l 201 313 l 640 313 l 640 522 l 251 522 l 251 621 l 1143 621 l 1143 522 l 753 522 l 753 313 l 1194 313 l 1194 214 l 753 214 l 753 -22 l 1312 -22 l 1312 -123 l 80 -123 l 80 -22 m 793 1136 l 766 1102 q 1371 653 994 804 q 1299 545 1329 593 q 699 1018 941 721 q 85 527 491 749 q 18 629 58 573 q 651 1136 437 839 l 793 1136 z "},"八":{"ha":1389,"x_min":12,"x_max":1373,"o":"m 426 1083 l 548 1074 q 434 374 522 652 q 99 -161 323 54 q 12 -67 60 -113 q 319 418 216 128 q 426 1083 408 692 m 806 1097 l 921 1101 q 1373 -36 962 222 q 1274 -149 1316 -100 q 806 1097 848 162 z "},"公":{"ha":1389,"x_min":16,"x_max":1373,"o":"m 899 345 q 1229 -116 1095 92 l 1126 -184 q 1045 -54 1088 -121 q 317 -98 597 -76 q 193 -121 266 -104 l 133 -6 q 245 68 194 18 q 590 610 404 252 l 707 557 q 347 17 538 268 q 981 42 627 26 q 811 290 904 159 l 899 345 m 783 1075 l 883 1114 q 1373 553 1015 760 q 1289 447 1336 515 q 783 1075 914 705 m 16 513 q 468 1095 319 760 l 575 1050 q 103 427 392 669 q 16 513 68 471 z "},"六":{"ha":1389,"x_min":37,"x_max":1358,"o":"m 41 804 l 1358 804 l 1358 695 l 41 695 l 41 804 m 556 1090 l 655 1145 q 812 900 720 1053 l 701 840 q 556 1090 613 1008 m 448 535 l 564 474 q 138 -153 380 143 q 37 -67 95 -115 q 448 535 271 185 m 815 456 l 909 526 q 1340 -54 1131 248 l 1226 -138 q 815 456 993 230 z "},"兰":{"ha":1389,"x_min":33,"x_max":1356,"o":"m 76 858 l 787 858 q 994 1156 886 983 l 1103 1086 q 926 858 1002 951 l 1313 858 l 1313 744 l 76 744 l 76 858 m 33 33 l 1356 33 l 1356 -78 l 33 -78 l 33 33 m 174 458 l 1204 458 l 1204 345 l 174 345 l 174 458 m 283 1090 l 366 1156 q 560 943 480 1046 l 463 867 q 283 1090 361 1003 z "},"共":{"ha":1389,"x_min":24,"x_max":1362,"o":"m 27 401 l 377 401 l 377 775 l 81 775 l 81 878 l 377 878 l 377 1139 l 488 1139 l 488 878 l 899 878 l 899 1140 l 1010 1140 l 1010 878 l 1308 878 l 1308 775 l 1010 775 l 1010 401 l 1362 401 l 1362 298 l 27 298 l 27 401 m 488 401 l 899 401 l 899 775 l 488 775 l 488 401 m 481 229 l 566 142 q 96 -162 340 -22 q 24 -68 66 -119 q 481 229 262 58 m 812 135 l 882 220 q 1331 -66 1115 82 l 1252 -165 q 812 135 1038 -3 z "},"关":{"ha":1389,"x_min":28,"x_max":1363,"o":"m 28 -86 q 608 412 515 87 l 56 412 l 56 515 l 628 515 q 631 774 631 544 l 136 774 l 136 877 l 461 877 q 262 1083 345 1005 l 340 1154 q 553 954 457 1049 l 467 877 l 790 877 q 975 1155 895 1025 l 1088 1093 q 916 877 994 973 l 1259 877 l 1259 774 l 746 774 q 744 515 746 574 l 1339 515 l 1339 412 l 763 412 q 1363 -56 922 71 q 1263 -166 1308 -113 q 695 323 845 -3 q 107 -184 585 6 q 28 -86 72 -138 z "},"兴":{"ha":1389,"x_min":31,"x_max":1362,"o":"m 31 501 l 1362 501 l 1362 389 l 31 389 l 31 501 m 830 252 l 910 325 q 1344 -87 1149 108 l 1246 -177 q 830 252 1053 39 m 468 328 l 563 258 q 133 -182 357 10 q 62 -108 99 -144 l 50 -96 q 468 328 283 89 m 928 633 q 1195 1095 1088 877 l 1303 1045 q 1025 574 1176 805 l 928 633 m 530 1117 l 637 1149 q 802 669 731 895 l 684 634 q 530 1117 617 886 m 106 1013 l 203 1067 q 438 637 328 855 l 328 578 q 106 1013 217 819 z "},"兵":{"ha":1389,"x_min":31,"x_max":1358,"o":"m 31 319 l 266 319 l 266 1053 q 1146 1117 758 1060 l 1183 1007 q 374 954 803 968 l 374 734 l 1286 734 l 1286 637 l 982 637 l 982 319 l 1358 319 l 1358 222 l 31 222 l 31 319 m 374 319 l 873 319 l 873 637 l 374 637 l 374 319 m 456 186 l 532 108 q 102 -189 302 -77 q 35 -98 72 -139 q 456 186 270 22 m 838 108 l 903 182 q 1328 -93 1109 59 l 1257 -181 q 838 108 1048 -29 z "},"其":{"ha":1389,"x_min":20,"x_max":1369,"o":"m 1130 1147 l 1130 979 l 1335 979 l 1335 881 l 1130 881 l 1130 250 l 1364 250 l 1364 153 l 27 153 l 27 250 l 259 250 l 259 881 l 54 881 l 54 979 l 259 979 l 259 1147 l 363 1147 l 363 979 l 1025 979 l 1025 1147 l 1130 1147 m 363 250 l 1025 250 l 1025 398 l 363 398 l 363 250 m 363 493 l 1025 493 l 1025 640 l 363 640 l 363 493 m 363 734 l 1025 734 l 1025 881 l 363 881 l 363 734 m 823 40 l 883 132 q 1369 -77 1211 1 l 1312 -182 q 823 40 1080 -62 m 492 131 l 557 40 q 76 -189 300 -102 q 20 -87 58 -146 q 492 131 304 16 z "},"具":{"ha":1389,"x_min":20,"x_max":1364,"o":"m 20 222 l 208 222 l 208 1094 l 1180 1094 l 1180 222 l 1364 222 l 1364 124 l 20 124 l 20 222 m 312 222 l 1076 222 l 1076 349 l 312 349 l 312 222 m 1076 996 l 312 996 l 312 871 l 1076 871 l 1076 996 m 312 656 l 1076 656 l 1076 781 l 312 781 l 312 656 m 312 440 l 1076 440 l 1076 565 l 312 565 l 312 440 m 807 -2 l 864 87 q 1345 -75 1101 16 l 1293 -182 q 807 -2 1108 -101 m 503 96 l 568 6 q 87 -189 330 -104 q 37 -87 66 -144 q 503 96 245 -25 z "},"典":{"ha":1389,"x_min":43,"x_max":1351,"o":"m 490 1147 l 590 1147 l 590 979 l 804 979 l 804 1147 l 905 1147 l 905 979 l 1219 979 l 1219 279 l 1351 279 l 1351 178 l 43 178 l 43 279 l 175 279 l 175 979 l 490 979 l 490 1147 m 868 130 q 1337 -81 1105 25 l 1283 -184 q 814 37 1031 -58 l 868 130 m 514 135 l 570 43 q 109 -182 361 -63 q 45 -85 80 -135 q 514 135 315 33 m 905 279 l 1119 279 l 1119 531 l 905 531 l 905 279 m 275 279 l 490 279 l 490 531 l 275 531 l 275 279 m 590 279 l 804 279 l 804 531 l 590 531 l 590 279 m 590 631 l 804 631 l 804 878 l 590 878 l 590 631 m 1119 878 l 905 878 l 905 631 l 1119 631 l 1119 878 m 275 631 l 490 631 l 490 878 l 275 878 l 275 631 z "},"兼":{"ha":1389,"x_min":12,"x_max":1367,"o":"m 1367 -22 q 1297 -120 1326 -73 q 864 193 1028 -7 l 864 -185 l 768 -185 l 768 268 l 540 268 l 540 -185 l 444 -185 l 444 178 q 77 -142 282 -12 q 12 -58 52 -100 q 416 268 235 58 l 127 268 l 127 352 l 444 352 l 444 482 l 35 482 l 35 569 l 444 569 l 444 699 l 130 699 l 130 783 l 444 783 l 444 912 l 34 912 l 34 999 l 426 999 q 340 1103 377 1064 l 423 1156 q 537 1031 480 1098 l 487 999 l 796 999 q 909 1158 860 1080 l 1010 1099 q 921 999 967 1048 l 1356 999 l 1356 912 l 864 912 l 864 783 l 1190 783 l 1190 569 l 1359 569 l 1359 482 l 1190 482 l 1190 226 l 1093 226 l 1093 268 l 898 268 q 1367 -22 1085 62 m 1093 352 l 1093 482 l 864 482 l 864 352 l 1093 352 m 1093 699 l 864 699 l 864 569 l 1093 569 l 1093 699 m 540 352 l 768 352 l 768 482 l 540 482 l 540 352 m 540 569 l 768 569 l 768 699 l 540 699 l 540 569 m 540 783 l 768 783 l 768 912 l 540 912 l 540 783 z "},"内":{"ha":1389,"x_min":138,"x_max":1248,"o":"m 138 908 l 639 908 l 639 1141 l 750 1141 l 750 908 l 1248 908 l 1248 13 q 1078 -158 1248 -159 q 859 -155 989 -158 q 838 -37 854 -109 q 1053 -50 967 -48 q 1138 36 1138 -52 l 1138 805 l 747 805 q 718 585 742 682 q 1105 246 958 393 l 1023 158 q 685 488 878 317 q 334 140 593 288 q 258 238 277 219 q 560 497 479 355 q 636 805 625 602 l 248 805 l 248 -170 l 138 -170 l 138 908 z "},"冈":{"ha":1389,"x_min":106,"x_max":1287,"o":"m 106 1042 l 1287 1042 l 1287 36 q 1107 -158 1287 -155 q 857 -155 1010 -161 q 838 -35 853 -109 q 1074 -45 981 -45 q 1179 66 1179 -48 l 1179 939 l 214 939 l 214 -166 l 106 -166 l 106 1042 m 1035 802 q 768 460 905 618 q 1042 166 910 311 l 951 86 q 694 378 819 241 q 349 58 526 198 l 278 142 q 623 457 460 284 q 332 760 472 621 l 407 833 q 695 537 556 683 q 944 855 826 686 l 1035 802 z "},"册":{"ha":1389,"x_min":27,"x_max":1364,"o":"m 772 1084 l 1219 1084 l 1219 599 l 1364 599 l 1364 498 l 1219 498 l 1219 -21 q 1089 -162 1219 -162 q 916 -158 996 -162 q 898 -58 911 -119 q 1057 -67 997 -67 q 1116 -5 1116 -67 l 1116 498 l 875 498 l 875 418 q 722 -185 875 56 q 639 -109 689 -150 q 772 413 772 100 l 772 498 l 600 498 l 600 20 q 465 -116 600 -116 q 324 -112 392 -116 q 307 -10 320 -73 q 439 -20 381 -20 q 496 41 496 -20 l 496 498 l 264 498 l 264 401 q 110 -185 264 37 q 28 -109 77 -146 q 160 391 160 93 l 160 498 l 27 498 l 27 599 l 160 599 l 160 1084 l 600 1084 l 600 599 l 772 599 l 772 1084 m 1116 989 l 875 989 l 875 599 l 1116 599 l 1116 989 m 496 989 l 264 989 l 264 599 l 496 599 l 496 989 z "},"再":{"ha":1389,"x_min":30,"x_max":1367,"o":"m 309 -174 l 202 -174 l 202 205 l 30 205 l 30 299 l 202 299 l 202 829 l 642 829 l 642 981 l 73 981 l 73 1075 l 1317 1075 l 1317 981 l 747 981 l 747 829 l 1190 829 l 1190 299 l 1367 299 l 1367 205 l 1190 205 l 1190 -9 q 1048 -159 1190 -158 q 826 -159 962 -161 q 806 -56 818 -113 q 998 -64 917 -64 q 1081 6 1081 -67 l 1081 205 l 309 205 l 309 -174 m 747 299 l 1081 299 l 1081 477 l 747 477 l 747 299 m 309 299 l 642 299 l 642 477 l 309 477 l 309 299 m 1081 741 l 747 741 l 747 565 l 1081 565 l 1081 741 m 309 565 l 642 565 l 642 741 l 309 741 l 309 565 z "},"冒":{"ha":1389,"x_min":118,"x_max":1275,"o":"m 212 555 l 1181 555 l 1181 -178 l 1080 -178 l 1080 -116 l 313 -116 l 313 -178 l 212 -178 l 212 555 m 118 1093 l 1275 1093 l 1275 611 l 1173 611 l 1173 1006 l 220 1006 l 220 611 l 118 611 l 118 1093 m 313 -32 l 1080 -32 l 1080 83 l 313 83 l 313 -32 m 1080 471 l 313 471 l 313 359 l 1080 359 l 1080 471 m 313 165 l 1080 165 l 1080 277 l 313 277 l 313 165 m 345 737 l 1048 737 l 1048 656 l 345 656 l 345 737 m 345 912 l 1048 912 l 1048 831 l 345 831 l 345 912 z "},"写":{"ha":1389,"x_min":24,"x_max":1310,"o":"m 244 402 l 244 500 l 336 934 l 450 934 l 417 772 l 1213 772 l 1213 672 l 397 672 l 362 504 l 1248 504 q 1217 37 1234 220 q 987 -158 1194 -157 q 693 -151 859 -158 q 674 -33 686 -97 q 967 -50 821 -50 q 1107 59 1089 -50 q 1130 402 1120 189 l 244 402 m 80 1076 l 1310 1076 l 1310 821 l 1199 821 l 1199 975 l 191 975 l 191 821 l 80 821 l 80 1076 m 24 233 l 1025 233 l 1025 132 l 24 132 l 24 233 z "},"军":{"ha":1389,"x_min":41,"x_max":1359,"o":"m 332 427 l 693 427 l 693 629 l 804 629 l 804 427 l 1245 427 l 1245 329 l 804 329 l 804 143 l 1359 143 l 1359 45 l 804 45 l 804 -184 l 693 -184 l 693 45 l 41 45 l 41 143 l 693 143 l 693 329 l 202 329 l 202 428 q 368 688 292 551 l 76 688 l 76 786 l 420 786 q 502 960 464 870 l 612 927 q 540 786 577 856 l 1310 786 l 1310 688 l 487 688 q 332 427 414 557 m 81 1088 l 1317 1088 l 1317 844 l 1208 844 l 1208 991 l 190 991 l 190 844 l 81 844 l 81 1088 z "},"农":{"ha":1389,"x_min":9,"x_max":1366,"o":"m 9 195 q 583 867 404 460 l 206 867 l 206 669 l 103 669 l 103 962 l 621 962 q 677 1147 654 1050 l 789 1136 q 736 962 766 1046 l 1308 962 l 1308 707 l 1204 707 l 1204 867 l 701 867 q 696 854 699 861 q 869 427 751 608 q 1183 633 1009 505 l 1252 542 q 929 341 1103 441 q 1366 18 1097 130 q 1282 -82 1320 -28 q 629 715 793 153 q 469 465 560 583 l 469 -6 q 817 157 614 56 q 826 45 818 97 q 468 -119 617 -48 q 370 -177 419 -143 l 312 -74 q 366 43 366 -32 l 366 345 q 65 90 233 204 q 9 195 42 138 z "},"冠":{"ha":1389,"x_min":26,"x_max":1354,"o":"m 232 304 l 232 437 l 65 437 l 65 532 l 708 532 l 708 437 l 576 437 l 576 56 q 665 -40 576 -39 l 1120 -40 q 1229 48 1215 -40 q 1251 269 1242 139 q 1354 231 1293 250 q 1328 22 1341 105 q 1133 -138 1305 -138 l 644 -138 q 476 54 473 -142 l 476 437 l 331 437 l 331 326 q 297 51 331 143 q 91 -178 251 -77 q 26 -96 61 -138 q 201 83 159 -16 q 232 304 232 155 m 688 706 l 1053 706 l 1053 863 l 1153 863 l 1153 706 l 1326 706 l 1326 611 l 1153 611 l 1153 215 q 985 45 1153 47 q 810 45 897 44 q 789 151 804 71 q 962 146 879 144 q 1053 235 1053 147 l 1053 611 l 688 611 l 688 706 m 76 1076 l 1302 1076 l 1302 823 l 1199 823 l 1199 981 l 179 981 l 179 823 l 76 823 l 76 1076 m 144 800 l 640 800 l 640 705 l 144 705 l 144 800 m 745 485 l 829 526 q 963 302 899 413 l 871 257 q 745 485 807 382 z "},"冰":{"ha":1389,"x_min":45,"x_max":1375,"o":"m 791 1147 l 897 1147 l 897 962 q 985 629 929 780 q 1248 884 1112 741 l 1333 805 q 1024 532 1179 660 q 1375 90 1153 245 q 1283 -6 1329 48 q 897 633 1021 189 l 897 14 q 736 -158 897 -157 q 562 -157 658 -158 q 540 -41 556 -106 q 716 -52 627 -52 q 791 35 791 -52 l 791 1147 m 404 702 l 404 797 l 727 797 l 727 703 q 351 -47 674 237 q 266 33 335 -31 q 623 702 575 295 l 404 702 m 250 530 q 357 467 300 494 q 155 -131 251 172 l 45 -71 q 250 530 152 176 m 146 1094 q 354 794 248 957 l 254 726 q 57 1031 159 890 l 146 1094 z "},"冲":{"ha":1389,"x_min":35,"x_max":1286,"o":"m 464 886 l 821 886 l 821 1152 l 929 1152 l 929 886 l 1286 886 l 1286 214 l 1180 214 l 1180 279 l 929 279 l 929 -180 l 821 -180 l 821 279 l 570 279 l 570 214 l 464 214 l 464 886 m 1180 789 l 929 789 l 929 376 l 1180 376 l 1180 789 m 570 376 l 821 376 l 821 789 l 570 789 l 570 376 m 244 528 q 354 467 301 490 q 148 -131 256 201 l 35 -71 q 244 528 144 174 m 140 1093 q 351 793 260 931 l 248 725 q 47 1030 146 897 l 140 1093 z "},"决":{"ha":1389,"x_min":23,"x_max":1367,"o":"m 366 489 l 736 489 q 750 806 749 608 l 445 806 l 445 904 l 751 904 q 753 1147 753 1025 l 860 1147 q 858 904 860 1026 l 1206 904 l 1206 489 l 1367 489 l 1367 391 l 867 391 q 1345 -52 990 81 q 1252 -161 1291 -112 q 803 302 927 5 q 358 -185 720 1 q 281 -82 331 -144 q 722 391 663 100 l 366 391 l 366 489 m 1101 806 l 857 806 q 844 489 854 617 l 1101 489 l 1101 806 m 220 559 q 327 497 270 524 q 133 -73 214 182 l 23 -13 q 220 559 130 233 m 126 1071 q 363 821 260 937 l 271 737 q 46 999 161 878 l 126 1071 z "},"况":{"ha":1389,"x_min":19,"x_max":1367,"o":"m 553 431 l 448 431 l 448 1084 l 1251 1084 l 1251 431 l 1145 431 l 1145 490 l 1015 490 l 1015 16 q 1078 -52 1015 -52 l 1172 -52 q 1245 20 1237 -52 q 1257 188 1255 83 q 1367 147 1303 169 q 1344 -32 1358 40 q 1195 -150 1325 -150 l 1061 -150 q 909 -2 909 -150 l 909 490 l 768 490 q 686 98 764 232 q 361 -188 602 -55 q 293 -96 331 -142 q 591 155 515 26 q 664 490 659 264 l 553 490 l 553 431 m 1145 987 l 553 987 l 553 588 l 1145 588 l 1145 987 m 256 524 q 361 456 315 484 q 127 -108 247 186 l 19 -43 q 256 524 148 208 m 115 1060 q 362 797 240 938 l 269 713 q 35 988 157 858 l 115 1060 z "},"冷":{"ha":1389,"x_min":34,"x_max":1386,"o":"m 468 111 l 526 199 q 812 52 661 132 q 1104 347 983 219 l 403 347 l 403 448 l 1252 448 l 1252 347 q 914 -2 1078 165 q 1107 -106 1006 -51 l 1039 -203 q 468 111 727 -17 m 917 1149 l 899 1117 q 1386 672 1084 790 q 1305 569 1340 619 q 840 1027 1016 728 q 374 557 694 759 q 300 652 342 606 q 793 1149 635 823 l 917 1149 m 209 494 q 320 450 266 466 q 160 -134 233 144 l 46 -89 q 209 494 141 200 m 111 1065 q 340 847 228 966 l 245 766 q 34 995 144 888 l 111 1065 m 701 747 l 783 804 q 966 577 880 691 l 875 515 q 701 747 788 641 z "},"冻":{"ha":1389,"x_min":35,"x_max":1381,"o":"m 380 973 l 634 973 l 715 1152 l 836 1152 l 755 973 l 1329 973 l 1329 873 l 711 873 l 555 522 l 846 522 l 846 748 l 955 748 l 955 522 l 1340 522 l 1340 421 l 955 421 l 955 10 q 792 -159 955 -159 q 633 -158 723 -159 q 612 -45 627 -111 q 764 -52 692 -52 q 846 29 846 -52 l 846 421 l 431 421 l 431 522 l 589 873 l 380 873 l 380 973 m 244 528 q 354 467 301 490 q 148 -131 258 201 l 35 -71 q 244 528 144 172 m 586 333 l 685 277 q 411 -135 557 63 l 319 -67 q 586 333 458 112 m 1137 336 q 1381 -45 1256 168 l 1280 -111 q 1043 281 1157 113 l 1137 336 m 140 1093 q 351 793 260 931 l 248 725 q 47 1030 146 897 l 140 1093 z "},"净":{"ha":1389,"x_min":45,"x_max":1360,"o":"m 437 277 l 776 277 l 776 422 l 370 422 l 370 520 l 776 520 l 776 664 l 461 664 l 461 715 q 411 665 436 690 q 338 741 388 690 q 662 1162 510 904 l 765 1135 q 709 1038 738 1085 l 1116 1038 l 1116 947 l 959 759 l 1237 759 l 1237 520 l 1360 520 l 1360 422 l 1237 422 l 1237 127 l 1134 127 l 1134 182 l 882 182 l 882 1 q 711 -168 882 -166 q 540 -168 621 -168 q 518 -55 530 -109 q 686 -64 604 -64 q 776 25 776 -64 l 776 182 l 437 182 l 437 277 m 985 945 l 648 945 q 501 759 579 846 l 835 759 l 985 945 m 201 507 q 302 460 250 482 q 155 -52 231 215 l 45 -10 q 201 507 138 252 m 882 277 l 1134 277 l 1134 422 l 882 422 l 882 277 m 144 1061 q 305 762 231 912 q 203 710 250 732 q 56 1015 134 866 l 144 1061 m 1134 664 l 882 664 l 882 520 l 1134 520 l 1134 664 z "},"准":{"ha":1389,"x_min":30,"x_max":1362,"o":"m 307 600 q 623 1158 502 839 l 723 1122 q 631 923 679 1019 l 1344 923 l 1344 829 l 1015 829 l 1015 627 l 1308 627 l 1308 534 l 1015 534 l 1015 332 l 1310 332 l 1310 238 l 1015 238 l 1015 17 l 1362 17 l 1362 -74 l 601 -74 l 601 -182 l 495 -182 l 495 680 q 384 517 441 594 q 307 600 354 559 m 601 17 l 909 17 l 909 238 l 601 238 l 601 17 m 235 526 q 338 479 288 497 q 148 -81 241 199 l 37 -31 q 235 526 141 218 m 601 332 l 909 332 l 909 534 l 601 534 l 601 332 m 601 627 l 909 627 l 909 829 l 601 829 l 601 627 m 115 1083 q 343 805 228 951 q 250 725 334 798 q 30 1014 148 867 l 115 1083 m 850 1110 l 939 1166 q 1059 1003 991 1101 l 966 941 q 850 1110 902 1038 z "},"凌":{"ha":1389,"x_min":35,"x_max":1362,"o":"m 349 166 q 686 522 559 330 l 781 492 q 723 410 752 450 l 1185 410 l 1185 326 q 958 61 1109 176 q 1362 -79 1126 -31 q 1297 -184 1325 -132 q 867 -1 1044 -115 q 384 -192 673 -119 q 324 -92 365 -153 q 781 60 597 -39 q 597 257 671 148 q 425 96 512 164 q 349 166 389 132 m 374 764 l 804 764 l 804 900 l 444 900 l 444 989 l 804 989 l 804 1148 l 907 1148 l 907 989 l 1270 989 l 1270 900 l 907 900 l 907 764 l 1339 764 l 1339 675 l 374 675 l 374 764 m 206 477 q 313 422 255 446 q 149 -142 244 204 l 35 -87 q 206 477 130 159 m 1067 321 l 670 321 q 870 115 746 203 q 1067 321 996 203 m 137 1088 q 331 779 229 953 l 227 717 q 42 1031 133 897 l 137 1088 m 709 583 q 407 375 571 477 q 338 458 374 420 q 640 654 498 545 l 709 583 m 975 573 l 1032 652 q 1347 489 1195 577 l 1289 398 q 975 573 1157 482 z "},"减":{"ha":1389,"x_min":28,"x_max":1377,"o":"m 739 -105 q 1004 191 890 18 q 943 840 951 405 l 492 840 l 492 494 q 300 -176 492 79 q 217 -101 250 -123 q 397 500 397 127 l 397 932 l 941 932 q 940 1145 940 1042 l 1039 1145 q 1040 932 1039 1042 l 1367 932 l 1367 840 l 1040 840 q 1079 315 1043 513 q 1234 706 1173 490 l 1332 672 q 1112 176 1240 389 q 1191 -10 1146 54 q 1251 12 1234 -63 q 1276 207 1265 92 q 1377 173 1340 184 q 1335 -64 1358 29 q 1237 -170 1305 -172 q 1127 -104 1179 -172 q 1041 68 1076 -28 q 827 -170 943 -68 q 739 -105 785 -134 m 576 509 l 883 509 l 883 111 l 666 111 l 666 26 l 576 26 l 576 509 m 28 3 q 201 566 113 230 q 301 523 252 542 q 138 -33 240 304 l 28 3 m 53 985 l 137 1044 q 327 809 232 934 l 233 741 q 53 985 122 901 m 793 195 l 793 425 l 666 425 l 666 195 l 793 195 m 552 720 l 887 720 l 887 633 l 552 633 l 552 720 m 1096 1094 l 1165 1148 q 1294 1013 1233 1080 l 1217 951 q 1096 1094 1161 1022 z "},"凑":{"ha":1389,"x_min":34,"x_max":1373,"o":"m 434 205 l 753 205 q 761 330 760 260 l 597 330 l 597 390 q 358 195 498 287 q 283 276 311 252 q 590 539 477 390 l 343 539 l 343 629 l 647 629 q 694 732 675 677 l 433 732 l 433 819 l 722 819 q 745 922 735 866 l 391 922 l 391 1011 l 760 1011 q 776 1154 769 1078 l 879 1154 q 863 1011 872 1078 l 1294 1011 l 1294 922 l 848 922 q 826 819 838 866 l 1253 819 l 1253 732 l 803 732 q 762 629 787 679 l 1345 629 l 1345 539 l 1039 539 q 1373 309 1160 385 q 1308 212 1335 256 q 1044 393 1156 281 l 1044 330 l 860 330 q 852 205 859 258 l 1202 205 l 1202 116 l 837 116 q 830 96 834 106 q 1294 -102 996 40 l 1244 -195 q 788 18 1025 -75 q 389 -196 680 -124 q 330 -102 368 -154 q 730 116 655 -29 l 434 116 l 434 205 m 197 539 q 309 498 263 512 q 145 -86 232 233 l 34 -32 q 197 539 123 215 m 138 1090 q 331 797 251 935 l 231 730 q 50 1036 142 896 l 138 1090 m 928 539 l 713 539 q 621 417 673 475 l 1021 417 q 928 539 970 473 z "},"几":{"ha":1389,"x_min":18,"x_max":1373,"o":"m 320 1076 l 990 1076 l 990 71 q 1067 -17 990 -17 l 1143 -17 q 1230 66 1219 -17 q 1255 279 1244 153 q 1373 235 1308 256 q 1341 28 1355 101 q 1162 -125 1317 -125 l 1043 -125 q 873 59 873 -125 l 873 972 l 437 972 l 437 629 q 370 159 437 306 q 98 -159 297 -7 q 18 -60 65 -116 q 260 216 201 75 q 320 629 320 342 l 320 1076 z "},"凡":{"ha":1389,"x_min":18,"x_max":1362,"o":"m 260 1071 l 1006 1071 l 1006 51 q 1063 -22 1006 -22 l 1145 -22 q 1230 58 1219 -22 q 1255 273 1241 134 q 1362 231 1308 250 q 1337 22 1351 124 q 1162 -131 1314 -131 l 1034 -131 q 895 37 895 -131 l 895 966 l 372 966 l 372 604 q 317 121 372 262 q 98 -184 266 -31 q 18 -85 60 -135 q 212 174 159 26 q 260 604 260 307 l 260 1071 m 475 625 l 562 696 q 814 406 662 592 l 720 328 q 475 625 604 489 z "},"凭":{"ha":1389,"x_min":16,"x_max":1362,"o":"m 456 532 l 802 532 l 802 703 l 400 703 l 400 797 l 802 797 l 802 966 q 486 951 649 957 q 467 1048 477 998 q 1208 1098 903 1059 l 1227 1000 q 905 972 1073 984 l 905 797 l 1351 797 l 1351 703 l 905 703 l 905 532 l 1275 532 l 1275 439 l 456 439 l 456 532 m 964 319 l 964 36 q 1036 -44 964 -44 l 1127 -44 q 1230 26 1214 -44 q 1257 216 1245 94 q 1362 174 1301 196 q 1329 -14 1347 67 q 1164 -142 1303 -142 l 1005 -142 q 857 12 857 -142 l 857 229 l 481 229 l 481 203 q 397 -48 481 35 q 95 -189 302 -135 q 26 -94 65 -143 q 305 17 233 -43 q 374 211 374 71 l 374 319 l 964 319 m 362 1141 l 452 1090 q 326 911 387 994 l 326 390 l 224 390 l 224 782 q 85 633 152 696 q 16 706 58 667 q 362 1141 186 873 z "},"凯":{"ha":1389,"x_min":57,"x_max":1377,"o":"m 850 979 l 850 593 q 808 109 850 268 q 637 -191 765 -50 q 548 -113 598 -149 q 716 165 677 5 q 750 593 750 284 l 750 1076 l 1175 1076 l 1175 2 q 1207 -41 1175 -41 l 1223 -41 q 1268 36 1261 -41 q 1283 269 1279 135 q 1377 224 1328 243 q 1356 -2 1369 90 q 1237 -142 1340 -142 l 1185 -142 q 1074 -14 1074 -142 l 1074 979 l 850 979 m 205 262 l 205 7 q 613 102 412 52 q 610 -7 610 44 q 239 -92 445 -39 q 122 -138 175 -108 l 62 -45 q 104 40 104 -12 l 104 355 l 513 355 l 513 516 l 57 516 l 57 608 l 616 608 l 616 224 l 513 224 l 513 262 l 205 262 m 548 680 l 548 724 l 69 724 l 69 1071 l 167 1071 l 167 813 l 307 813 l 307 1159 l 407 1159 l 407 813 l 548 813 l 548 1068 l 646 1068 l 646 680 l 548 680 z "},"凸":{"ha":1389,"x_min":111,"x_max":1283,"o":"m 111 -177 l 111 652 l 399 652 l 399 1090 l 996 1090 l 996 652 l 1283 652 l 1283 -177 l 1172 -177 l 1172 -96 l 222 -96 l 222 -177 l 111 -177 m 887 554 l 887 992 l 507 992 l 507 554 l 222 554 l 222 2 l 1172 2 l 1172 554 l 887 554 z "},"凹":{"ha":1389,"x_min":119,"x_max":1272,"o":"m 1161 -177 l 1161 -71 l 231 -71 l 231 -177 l 119 -177 l 119 1076 l 578 1076 l 578 523 l 814 523 l 814 1076 l 1272 1076 l 1272 -177 l 1161 -177 m 1161 973 l 925 973 l 925 420 l 467 420 l 467 973 l 231 973 l 231 29 l 1161 29 l 1161 973 z "},"出":{"ha":1389,"x_min":127,"x_max":1261,"o":"m 1107 471 l 1107 522 l 750 522 l 750 -10 l 1147 -10 l 1147 376 l 1261 376 l 1261 -162 l 1147 -162 l 1147 -113 l 127 -113 l 127 376 l 243 376 l 243 -10 l 632 -10 l 632 522 l 164 522 l 164 1008 l 279 1008 l 279 625 l 632 625 l 632 1133 l 750 1133 l 750 625 l 1107 625 l 1107 1008 l 1222 1008 l 1222 471 l 1107 471 z "},"击":{"ha":1389,"x_min":30,"x_max":1358,"o":"m 1118 -177 l 1118 -119 l 160 -119 l 160 344 l 277 344 l 277 -16 l 635 -16 l 635 460 l 30 460 l 30 564 l 635 564 l 635 808 l 127 808 l 127 911 l 635 911 l 635 1154 l 754 1154 l 754 911 l 1265 911 l 1265 808 l 754 808 l 754 564 l 1358 564 l 1358 460 l 754 460 l 754 -16 l 1118 -16 l 1118 344 l 1234 344 l 1234 -177 l 1118 -177 z "},"刀":{"ha":1389,"x_min":27,"x_max":1248,"o":"m 98 1041 l 1248 1041 q 1222 139 1233 387 q 944 -149 1210 -153 q 699 -143 836 -149 q 678 -14 693 -90 q 928 -29 818 -28 q 1105 155 1096 -31 q 1126 932 1118 412 l 598 932 q 495 280 587 494 q 109 -181 393 24 q 27 -81 71 -130 q 388 341 294 106 q 479 932 473 539 l 98 932 l 98 1041 z "},"分":{"ha":1389,"x_min":11,"x_max":1378,"o":"m 195 555 l 1097 555 q 1077 105 1090 325 q 837 -147 1061 -149 q 605 -140 727 -149 q 586 -25 597 -83 q 819 -41 690 -40 q 968 117 955 -44 q 985 455 979 264 l 568 455 q 473 90 551 229 q 127 -191 370 -92 q 50 -100 92 -144 q 374 144 275 -16 q 456 455 446 266 l 195 455 l 195 555 m 757 1120 l 854 1162 q 1378 618 1004 798 q 1290 515 1317 554 q 757 1120 917 730 m 11 600 q 488 1140 290 798 l 585 1087 q 90 508 378 726 q 11 600 61 550 z "},"切":{"ha":1389,"x_min":23,"x_max":1298,"o":"m 511 1063 l 1298 1063 q 1260 83 1275 332 q 1048 -142 1244 -143 q 821 -135 939 -142 q 798 -7 812 -70 q 1029 -28 918 -28 q 1147 100 1139 -28 q 1183 961 1171 363 l 862 961 q 840 498 852 682 q 483 -186 817 44 q 397 -98 449 -147 q 734 511 716 108 q 753 961 747 692 l 511 961 l 511 1063 m 585 374 q 595 248 589 288 q 294 50 438 149 q 227 -7 256 22 l 153 94 q 199 218 199 138 l 199 654 l 31 635 l 23 740 l 199 760 l 199 1162 l 305 1162 l 305 771 l 582 802 l 590 698 l 305 666 l 305 199 q 585 374 446 284 z "},"刑":{"ha":1389,"x_min":19,"x_max":1287,"o":"m 23 568 l 227 568 q 228 964 228 627 l 77 964 l 77 1064 l 795 1064 l 795 964 l 652 964 l 652 568 l 844 568 l 844 467 l 652 467 l 652 -163 l 549 -163 l 549 467 l 327 467 q 289 132 318 236 q 91 -188 248 -29 q 19 -100 57 -146 q 191 177 155 33 q 224 467 216 264 l 23 467 l 23 568 m 1180 1133 l 1287 1133 l 1287 5 q 1120 -168 1287 -168 q 935 -166 1057 -168 q 914 -44 926 -111 q 1088 -56 1017 -56 q 1180 41 1180 -56 l 1180 1133 m 901 998 l 1004 998 l 1004 140 l 901 140 l 901 998 m 330 568 l 549 568 l 549 964 l 331 964 q 330 568 331 695 z "},"划":{"ha":1389,"x_min":16,"x_max":1284,"o":"m 16 -6 q 336 212 191 85 q 262 663 281 368 l 56 626 l 39 722 l 257 760 q 241 1143 248 931 l 350 1143 q 360 778 353 942 l 800 855 l 812 760 l 365 681 q 420 289 380 429 q 682 629 569 438 l 773 572 q 456 180 632 349 q 618 -41 519 20 q 712 -2 692 -85 q 743 207 730 92 q 850 168 808 180 q 803 -63 825 14 q 680 -172 776 -172 q 533 -119 604 -172 q 375 107 438 -39 q 94 -92 243 -5 q 16 -6 65 -56 m 1177 1144 l 1284 1144 l 1284 12 q 1127 -159 1284 -158 q 924 -158 1054 -161 q 902 -43 917 -96 q 1092 -54 1002 -52 q 1177 37 1177 -55 l 1177 1144 m 997 185 l 892 185 l 892 1014 l 997 1014 l 997 185 m 434 1042 l 496 1109 q 680 964 590 1041 l 608 886 q 434 1042 534 961 z "},"列":{"ha":1389,"x_min":14,"x_max":1284,"o":"m 252 424 l 319 500 q 507 334 422 415 q 635 675 597 491 l 330 675 q 68 235 223 431 q 14 344 38 304 q 329 988 218 619 l 58 988 l 58 1086 l 819 1086 l 819 988 l 441 988 q 370 772 409 876 l 746 772 l 746 673 q 161 -185 635 117 q 77 -102 126 -144 q 449 244 309 47 q 252 424 372 320 m 1176 1135 l 1284 1135 l 1284 14 q 1128 -159 1284 -158 q 907 -158 1054 -161 q 886 -36 901 -96 q 1092 -48 1025 -48 q 1176 43 1176 -48 l 1176 1135 m 981 154 l 876 154 l 876 984 l 981 984 l 981 154 z "},"刘":{"ha":1389,"x_min":24,"x_max":1299,"o":"m 708 831 q 515 319 658 583 q 769 -33 670 109 l 675 -105 q 453 215 563 59 q 102 -173 307 -13 q 24 -82 75 -135 q 385 311 240 79 q 96 705 239 516 l 180 766 q 445 414 327 573 q 602 831 538 588 l 30 831 l 30 930 l 404 930 q 305 1107 357 1023 l 399 1155 q 505 968 467 1046 l 430 930 l 803 930 l 803 831 l 708 831 m 1192 1128 l 1299 1128 l 1299 17 q 1138 -161 1299 -159 q 921 -158 1066 -162 q 901 -37 913 -102 q 1088 -51 1010 -51 q 1192 51 1192 -52 l 1192 1128 m 876 992 l 979 992 l 979 135 l 876 135 l 876 992 z "},"则":{"ha":1389,"x_min":14,"x_max":1284,"o":"m 1176 1129 l 1284 1129 l 1284 2 q 1122 -165 1284 -163 q 910 -163 1047 -166 q 888 -43 903 -116 q 1086 -55 1027 -55 q 1176 33 1176 -56 l 1176 1129 m 1002 173 l 897 173 l 897 1008 l 1002 1008 l 1002 173 m 117 1071 l 720 1071 l 720 196 l 616 196 l 616 975 l 221 975 l 221 196 l 117 196 l 117 1071 m 699 -136 q 407 142 564 2 q 81 -192 316 -67 q 14 -102 53 -150 q 339 269 283 33 q 373 876 374 383 l 477 876 q 441 241 479 379 q 784 -51 602 115 l 699 -136 z "}}}
